G04 #@! TF.GenerationSoftware,KiCad,Pcbnew,(6.0.2)*
G04 #@! TF.CreationDate,2022-03-10T23:30:08+00:00*
G04 #@! TF.ProjectId,ENV_KB_RGB,454e565f-4b42-45f5-9247-422e6b696361,Rev.1*
G04 #@! TF.SameCoordinates,Original*
G04 #@! TF.FileFunction,Soldermask,Bot*
G04 #@! TF.FilePolarity,Negative*
%FSLAX46Y46*%
G04 Gerber Fmt 4.6, Leading zero omitted, Abs format (unit mm)*
G04 Created by KiCad (PCBNEW (6.0.2)) date 2022-03-10 23:30:08*
%MOMM*%
%LPD*%
G01*
G04 APERTURE LIST*
G04 Aperture macros list*
%AMRoundRect*
0 Rectangle with rounded corners*
0 $1 Rounding radius*
0 $2 $3 $4 $5 $6 $7 $8 $9 X,Y pos of 4 corners*
0 Add a 4 corners polygon primitive as box body*
4,1,4,$2,$3,$4,$5,$6,$7,$8,$9,$2,$3,0*
0 Add four circle primitives for the rounded corners*
1,1,$1+$1,$2,$3*
1,1,$1+$1,$4,$5*
1,1,$1+$1,$6,$7*
1,1,$1+$1,$8,$9*
0 Add four rect primitives between the rounded corners*
20,1,$1+$1,$2,$3,$4,$5,0*
20,1,$1+$1,$4,$5,$6,$7,0*
20,1,$1+$1,$6,$7,$8,$9,0*
20,1,$1+$1,$8,$9,$2,$3,0*%
G04 Aperture macros list end*
%ADD10R,2.550000X2.500000*%
%ADD11C,4.089800*%
%ADD12C,1.852000*%
%ADD13C,3.352000*%
%ADD14RoundRect,0.051000X0.900000X-0.900000X0.900000X0.900000X-0.900000X0.900000X-0.900000X-0.900000X0*%
%ADD15C,1.902000*%
%ADD16R,2.500000X2.550000*%
%ADD17C,1.702000*%
%ADD18O,1.702000X1.702000*%
%ADD19C,4.502000*%
%ADD20O,1.802000X1.802000*%
%ADD21RoundRect,0.051000X0.850000X-0.850000X0.850000X0.850000X-0.850000X0.850000X-0.850000X-0.850000X0*%
%ADD22RoundRect,0.488500X0.437500X-0.437500X0.437500X0.437500X-0.437500X0.437500X-0.437500X-0.437500X0*%
%ADD23RoundRect,0.051000X0.800000X0.800000X-0.800000X0.800000X-0.800000X-0.800000X0.800000X-0.800000X0*%
%ADD24RoundRect,0.133000X0.718000X-0.328000X0.718000X0.328000X-0.718000X0.328000X-0.718000X-0.328000X0*%
%ADD25RoundRect,0.133000X-0.328000X-0.718000X0.328000X-0.718000X0.328000X0.718000X-0.328000X0.718000X0*%
%ADD26C,3.150000*%
%ADD27C,0.752000*%
%ADD28O,1.002000X2.202000*%
%ADD29RoundRect,0.276000X-0.250000X0.225000X-0.250000X-0.225000X0.250000X-0.225000X0.250000X0.225000X0*%
%ADD30RoundRect,0.276000X0.225000X0.250000X-0.225000X0.250000X-0.225000X-0.250000X0.225000X-0.250000X0*%
G04 APERTURE END LIST*
D10*
X42021250Y-204020000D03*
D11*
X49106250Y-206560000D03*
D12*
X44026250Y-206560000D03*
D10*
X54921250Y-201480000D03*
D12*
X54186250Y-206560000D03*
D13*
X45296250Y-204020000D03*
X51646250Y-201480000D03*
D11*
X49106250Y-187510000D03*
D10*
X54921250Y-182430000D03*
D12*
X54186250Y-187510000D03*
D10*
X42021250Y-184970000D03*
D12*
X44026250Y-187510000D03*
D13*
X45296250Y-184970000D03*
X51646250Y-182430000D03*
D10*
X76352500Y-182430000D03*
D12*
X65457500Y-187510000D03*
X75617500Y-187510000D03*
D10*
X63452500Y-184970000D03*
D11*
X70537500Y-187510000D03*
D13*
X66727500Y-184970000D03*
X73077500Y-182430000D03*
D12*
X361367500Y-187510000D03*
D10*
X362102500Y-182430000D03*
X349202500Y-184970000D03*
D12*
X351207500Y-187510000D03*
D11*
X356287500Y-187510000D03*
D13*
X352477500Y-184970000D03*
X358827500Y-182430000D03*
D10*
X343052500Y-201480000D03*
D12*
X342317500Y-206560000D03*
X332157500Y-206560000D03*
D10*
X330152500Y-204020000D03*
D11*
X337237500Y-206560000D03*
D13*
X333427500Y-204020000D03*
X339777500Y-201480000D03*
D10*
X44402500Y-146870000D03*
D11*
X51487500Y-149410000D03*
D12*
X56567500Y-149410000D03*
X46407500Y-149410000D03*
D10*
X57302500Y-144330000D03*
D13*
X47677500Y-146870000D03*
X54027500Y-144330000D03*
D14*
X190050000Y-65750000D03*
D15*
X190050000Y-63210000D03*
D10*
X289671250Y-184970000D03*
D11*
X296756250Y-187510000D03*
D12*
X291676250Y-187510000D03*
D10*
X302571250Y-182430000D03*
D12*
X301836250Y-187510000D03*
D13*
X292946250Y-184970000D03*
X299296250Y-182430000D03*
D10*
X232521250Y-204020000D03*
D12*
X244686250Y-206560000D03*
D10*
X245421250Y-201480000D03*
D12*
X234526250Y-206560000D03*
D11*
X239606250Y-206560000D03*
D13*
X235796250Y-204020000D03*
X242146250Y-201480000D03*
D11*
X311025000Y-158935000D03*
D12*
X311025000Y-153855000D03*
X311025000Y-164015000D03*
D16*
X313565000Y-151850000D03*
X316105000Y-164750000D03*
D13*
X313565000Y-155125000D03*
X316105000Y-161475000D03*
D10*
X90640000Y-96705000D03*
D12*
X89905000Y-101785000D03*
D10*
X77740000Y-99245000D03*
D12*
X79745000Y-101785000D03*
D11*
X84825000Y-101785000D03*
D13*
X81015000Y-99245000D03*
X87365000Y-96705000D03*
D10*
X362102500Y-96705000D03*
D12*
X361367500Y-101785000D03*
D11*
X356287500Y-101785000D03*
D12*
X351207500Y-101785000D03*
D10*
X349202500Y-99245000D03*
D13*
X352477500Y-99245000D03*
X358827500Y-96705000D03*
D11*
X103875000Y-130360000D03*
D10*
X109690000Y-125280000D03*
D12*
X108955000Y-130360000D03*
D10*
X96790000Y-127820000D03*
D12*
X98795000Y-130360000D03*
D13*
X100065000Y-127820000D03*
X106415000Y-125280000D03*
D10*
X134890000Y-127820000D03*
D12*
X136895000Y-130360000D03*
X147055000Y-130360000D03*
D11*
X141975000Y-130360000D03*
D10*
X147790000Y-125280000D03*
D13*
X138165000Y-127820000D03*
X144515000Y-125280000D03*
D11*
X256275000Y-130360000D03*
D12*
X251195000Y-130360000D03*
X261355000Y-130360000D03*
D10*
X249190000Y-127820000D03*
X262090000Y-125280000D03*
D13*
X252465000Y-127820000D03*
X258815000Y-125280000D03*
D10*
X249190000Y-99245000D03*
X262090000Y-96705000D03*
D11*
X256275000Y-101785000D03*
D12*
X261355000Y-101785000D03*
X251195000Y-101785000D03*
D13*
X252465000Y-99245000D03*
X258815000Y-96705000D03*
D12*
X380417500Y-130360000D03*
D11*
X375337500Y-130360000D03*
D10*
X381152500Y-125280000D03*
D12*
X370257500Y-130360000D03*
D10*
X368252500Y-127820000D03*
D13*
X371527500Y-127820000D03*
X377877500Y-125280000D03*
D11*
X294375000Y-101785000D03*
D12*
X289295000Y-101785000D03*
D10*
X300190000Y-96705000D03*
X287290000Y-99245000D03*
D12*
X299455000Y-101785000D03*
D13*
X290565000Y-99245000D03*
X296915000Y-96705000D03*
D12*
X108955000Y-101785000D03*
D10*
X109690000Y-96705000D03*
D11*
X103875000Y-101785000D03*
D10*
X96790000Y-99245000D03*
D12*
X98795000Y-101785000D03*
D13*
X100065000Y-99245000D03*
X106415000Y-96705000D03*
D10*
X128740000Y-96705000D03*
X115840000Y-99245000D03*
D12*
X117845000Y-101785000D03*
X128005000Y-101785000D03*
D11*
X122925000Y-101785000D03*
D13*
X119115000Y-99245000D03*
X125465000Y-96705000D03*
D10*
X185890000Y-125280000D03*
D12*
X174995000Y-130360000D03*
D11*
X180075000Y-130360000D03*
D10*
X172990000Y-127820000D03*
D12*
X185155000Y-130360000D03*
D13*
X176265000Y-127820000D03*
X182615000Y-125280000D03*
D11*
X337237500Y-130360000D03*
D10*
X343052500Y-125280000D03*
X330152500Y-127820000D03*
D12*
X332157500Y-130360000D03*
X342317500Y-130360000D03*
D13*
X333427500Y-127820000D03*
X339777500Y-125280000D03*
D12*
X203570000Y-101785000D03*
D10*
X214465000Y-96705000D03*
D11*
X208650000Y-101785000D03*
D10*
X201565000Y-99245000D03*
D12*
X213730000Y-101785000D03*
D13*
X204840000Y-99245000D03*
X211190000Y-96705000D03*
D11*
X275325000Y-101785000D03*
D10*
X281140000Y-96705000D03*
D12*
X270245000Y-101785000D03*
X280405000Y-101785000D03*
D10*
X268240000Y-99245000D03*
D13*
X271515000Y-99245000D03*
X277865000Y-96705000D03*
D10*
X306340000Y-99245000D03*
D12*
X308345000Y-101785000D03*
D11*
X313425000Y-101785000D03*
D10*
X319240000Y-96705000D03*
D12*
X318505000Y-101785000D03*
D13*
X309615000Y-99245000D03*
X315965000Y-96705000D03*
D10*
X58690000Y-127820000D03*
D11*
X65775000Y-130360000D03*
D10*
X71590000Y-125280000D03*
D12*
X70855000Y-130360000D03*
X60695000Y-130360000D03*
D13*
X61965000Y-127820000D03*
X68315000Y-125280000D03*
D10*
X128740000Y-125280000D03*
D11*
X122925000Y-130360000D03*
D12*
X128005000Y-130360000D03*
X117845000Y-130360000D03*
D10*
X115840000Y-127820000D03*
D13*
X119115000Y-127820000D03*
X125465000Y-125280000D03*
D11*
X375337500Y-101785000D03*
D12*
X380417500Y-101785000D03*
D10*
X381152500Y-96705000D03*
D12*
X370257500Y-101785000D03*
D10*
X368252500Y-99245000D03*
D13*
X371527500Y-99245000D03*
X377877500Y-96705000D03*
D11*
X337237500Y-101785000D03*
D12*
X342317500Y-101785000D03*
D10*
X330152500Y-99245000D03*
X343052500Y-96705000D03*
D12*
X332157500Y-101785000D03*
D13*
X333427500Y-99245000D03*
X339777500Y-96705000D03*
D10*
X102546250Y-201480000D03*
D11*
X96731250Y-206560000D03*
D12*
X101811250Y-206560000D03*
X91651250Y-206560000D03*
D10*
X89646250Y-204020000D03*
D13*
X92921250Y-204020000D03*
X99271250Y-201480000D03*
D10*
X176365000Y-96705000D03*
D11*
X170550000Y-101785000D03*
D12*
X175630000Y-101785000D03*
X165470000Y-101785000D03*
D10*
X163465000Y-99245000D03*
D13*
X166740000Y-99245000D03*
X173090000Y-96705000D03*
D11*
X161025000Y-130360000D03*
D12*
X155945000Y-130360000D03*
D10*
X153940000Y-127820000D03*
D12*
X166105000Y-130360000D03*
D10*
X166840000Y-125280000D03*
D13*
X157215000Y-127820000D03*
X163565000Y-125280000D03*
D17*
X193440000Y-64750000D03*
D18*
X203600000Y-64750000D03*
D10*
X281140000Y-125280000D03*
D11*
X275325000Y-130360000D03*
D10*
X268240000Y-127820000D03*
D12*
X280405000Y-130360000D03*
X270245000Y-130360000D03*
D13*
X271515000Y-127820000D03*
X277865000Y-125280000D03*
D10*
X309715000Y-125280000D03*
D12*
X308980000Y-130360000D03*
D11*
X303900000Y-130360000D03*
D10*
X296815000Y-127820000D03*
D12*
X298820000Y-130360000D03*
D13*
X300090000Y-127820000D03*
X306440000Y-125280000D03*
D12*
X48788750Y-168460000D03*
D10*
X59683750Y-163380000D03*
X46783750Y-165920000D03*
D11*
X53868750Y-168460000D03*
D12*
X58948750Y-168460000D03*
D13*
X50058750Y-165920000D03*
X56408750Y-163380000D03*
D11*
X46725000Y-101785000D03*
D12*
X41645000Y-101785000D03*
X51805000Y-101785000D03*
D10*
X52540000Y-96705000D03*
X39640000Y-99245000D03*
D13*
X42915000Y-99245000D03*
X49265000Y-96705000D03*
D11*
X263418750Y-206560000D03*
D12*
X258338750Y-206560000D03*
D10*
X256333750Y-204020000D03*
X269233750Y-201480000D03*
D12*
X268498750Y-206560000D03*
D13*
X259608750Y-204020000D03*
X265958750Y-201480000D03*
D10*
X65833750Y-204020000D03*
D12*
X77998750Y-206560000D03*
D11*
X72918750Y-206560000D03*
D12*
X67838750Y-206560000D03*
D10*
X78733750Y-201480000D03*
D13*
X69108750Y-204020000D03*
X75458750Y-201480000D03*
D11*
X218175000Y-130360000D03*
D12*
X213095000Y-130360000D03*
D10*
X223990000Y-125280000D03*
X211090000Y-127820000D03*
D12*
X223255000Y-130360000D03*
D13*
X214365000Y-127820000D03*
X220715000Y-125280000D03*
D12*
X282151250Y-206560000D03*
D10*
X293046250Y-201480000D03*
X280146250Y-204020000D03*
D11*
X287231250Y-206560000D03*
D12*
X292311250Y-206560000D03*
D13*
X283421250Y-204020000D03*
X289771250Y-201480000D03*
D12*
X361367500Y-130360000D03*
X351207500Y-130360000D03*
D11*
X356287500Y-130360000D03*
D10*
X349202500Y-127820000D03*
X362102500Y-125280000D03*
D13*
X352477500Y-127820000D03*
X358827500Y-125280000D03*
D10*
X303958750Y-204020000D03*
D12*
X316123750Y-206560000D03*
D11*
X311043750Y-206560000D03*
D12*
X305963750Y-206560000D03*
D10*
X316858750Y-201480000D03*
D13*
X307233750Y-204020000D03*
X313583750Y-201480000D03*
D12*
X51805000Y-130360000D03*
X41645000Y-130360000D03*
D10*
X52540000Y-125280000D03*
D11*
X46725000Y-130360000D03*
D10*
X39640000Y-127820000D03*
D13*
X42915000Y-127820000D03*
X49265000Y-125280000D03*
D12*
X194045000Y-130360000D03*
D10*
X204940000Y-125280000D03*
X192040000Y-127820000D03*
D11*
X199125000Y-130360000D03*
D12*
X204205000Y-130360000D03*
D13*
X195315000Y-127820000D03*
X201665000Y-125280000D03*
D10*
X230140000Y-127820000D03*
D12*
X242305000Y-130360000D03*
D11*
X237225000Y-130360000D03*
D10*
X243040000Y-125280000D03*
D12*
X232145000Y-130360000D03*
D13*
X233415000Y-127820000D03*
X239765000Y-125280000D03*
D10*
X258715000Y-146870000D03*
D11*
X265800000Y-149410000D03*
D10*
X271615000Y-144330000D03*
D12*
X260720000Y-149410000D03*
X270880000Y-149410000D03*
D13*
X261990000Y-146870000D03*
X268340000Y-144330000D03*
D12*
X94032500Y-168460000D03*
X104192500Y-168460000D03*
D10*
X92027500Y-165920000D03*
X104927500Y-163380000D03*
D11*
X99112500Y-168460000D03*
D13*
X95302500Y-165920000D03*
X101652500Y-163380000D03*
D10*
X176365000Y-144330000D03*
X163465000Y-146870000D03*
D11*
X170550000Y-149410000D03*
D12*
X165470000Y-149410000D03*
X175630000Y-149410000D03*
D13*
X166740000Y-146870000D03*
X173090000Y-144330000D03*
D12*
X232780000Y-149410000D03*
D11*
X227700000Y-149410000D03*
D10*
X233515000Y-144330000D03*
D12*
X222620000Y-149410000D03*
D10*
X220615000Y-146870000D03*
D13*
X223890000Y-146870000D03*
X230240000Y-144330000D03*
D12*
X251830000Y-149410000D03*
D10*
X252565000Y-144330000D03*
D11*
X246750000Y-149410000D03*
D10*
X239665000Y-146870000D03*
D12*
X241670000Y-149410000D03*
D13*
X242940000Y-146870000D03*
X249290000Y-144330000D03*
D12*
X289930000Y-149410000D03*
D11*
X284850000Y-149410000D03*
D10*
X290665000Y-144330000D03*
X277765000Y-146870000D03*
D12*
X279770000Y-149410000D03*
D13*
X281040000Y-146870000D03*
X287390000Y-144330000D03*
D10*
X85877500Y-163380000D03*
D11*
X80062500Y-168460000D03*
D12*
X74982500Y-168460000D03*
X85142500Y-168460000D03*
D10*
X72977500Y-165920000D03*
D13*
X76252500Y-165920000D03*
X82602500Y-163380000D03*
D12*
X213730000Y-149410000D03*
X203570000Y-149410000D03*
D10*
X214465000Y-144330000D03*
D11*
X208650000Y-149410000D03*
D10*
X201565000Y-146870000D03*
D13*
X204840000Y-146870000D03*
X211190000Y-144330000D03*
D11*
X118162500Y-168460000D03*
D12*
X113082500Y-168460000D03*
D10*
X111077500Y-165920000D03*
D12*
X123242500Y-168460000D03*
D10*
X123977500Y-163380000D03*
D13*
X114352500Y-165920000D03*
X120702500Y-163380000D03*
D11*
X356287500Y-149410000D03*
D10*
X362102500Y-144330000D03*
X349202500Y-146870000D03*
D12*
X351207500Y-149410000D03*
X361367500Y-149410000D03*
D13*
X352477500Y-146870000D03*
X358827500Y-144330000D03*
D12*
X70220000Y-149410000D03*
D10*
X81115000Y-144330000D03*
X68215000Y-146870000D03*
D11*
X75300000Y-149410000D03*
D12*
X80380000Y-149410000D03*
D13*
X71490000Y-146870000D03*
X77840000Y-144330000D03*
D10*
X100165000Y-144330000D03*
D11*
X94350000Y-149410000D03*
D10*
X87265000Y-146870000D03*
D12*
X89270000Y-149410000D03*
X99430000Y-149410000D03*
D13*
X90540000Y-146870000D03*
X96890000Y-144330000D03*
D12*
X127370000Y-149410000D03*
D10*
X125365000Y-146870000D03*
X138265000Y-144330000D03*
D12*
X137530000Y-149410000D03*
D11*
X132450000Y-149410000D03*
D13*
X128640000Y-146870000D03*
X134990000Y-144330000D03*
D11*
X113400000Y-149410000D03*
D10*
X106315000Y-146870000D03*
X119215000Y-144330000D03*
D12*
X108320000Y-149410000D03*
X118480000Y-149410000D03*
D13*
X109590000Y-146870000D03*
X115940000Y-144330000D03*
D11*
X151500000Y-149410000D03*
D12*
X156580000Y-149410000D03*
D10*
X157315000Y-144330000D03*
D12*
X146420000Y-149410000D03*
D10*
X144415000Y-146870000D03*
D13*
X147690000Y-146870000D03*
X154040000Y-144330000D03*
D12*
X342317500Y-149410000D03*
D11*
X337237500Y-149410000D03*
D12*
X332157500Y-149410000D03*
D10*
X330152500Y-146870000D03*
X343052500Y-144330000D03*
D13*
X333427500Y-146870000D03*
X339777500Y-144330000D03*
D10*
X381152500Y-144330000D03*
D12*
X380417500Y-149410000D03*
X370257500Y-149410000D03*
D11*
X375337500Y-149410000D03*
D10*
X368252500Y-146870000D03*
D13*
X371527500Y-146870000D03*
X377877500Y-144330000D03*
D11*
X189600000Y-149410000D03*
D12*
X184520000Y-149410000D03*
D10*
X182515000Y-146870000D03*
D12*
X194680000Y-149410000D03*
D10*
X195415000Y-144330000D03*
D13*
X185790000Y-146870000D03*
X192140000Y-144330000D03*
D12*
X132132500Y-168460000D03*
D10*
X130127500Y-165920000D03*
X143027500Y-163380000D03*
D11*
X137212500Y-168460000D03*
D12*
X142292500Y-168460000D03*
D13*
X133402500Y-165920000D03*
X139752500Y-163380000D03*
D11*
X194362500Y-168460000D03*
D12*
X189282500Y-168460000D03*
D10*
X200177500Y-163380000D03*
X187277500Y-165920000D03*
D12*
X199442500Y-168460000D03*
D13*
X190552500Y-165920000D03*
X196902500Y-163380000D03*
D11*
X203887500Y-187510000D03*
D10*
X209702500Y-182430000D03*
D12*
X208967500Y-187510000D03*
D10*
X196802500Y-184970000D03*
D12*
X198807500Y-187510000D03*
D13*
X200077500Y-184970000D03*
X206427500Y-182430000D03*
D10*
X149177500Y-165920000D03*
D12*
X161342500Y-168460000D03*
D10*
X162077500Y-163380000D03*
D11*
X156262500Y-168460000D03*
D12*
X151182500Y-168460000D03*
D13*
X152452500Y-165920000D03*
X158802500Y-163380000D03*
D10*
X181127500Y-163380000D03*
D12*
X170232500Y-168460000D03*
D10*
X168227500Y-165920000D03*
D11*
X175312500Y-168460000D03*
D12*
X180392500Y-168460000D03*
D13*
X171502500Y-165920000D03*
X177852500Y-163380000D03*
D11*
X213412500Y-168460000D03*
D12*
X218492500Y-168460000D03*
D10*
X219227500Y-163380000D03*
X206327500Y-165920000D03*
D12*
X208332500Y-168460000D03*
D13*
X209602500Y-165920000D03*
X215952500Y-163380000D03*
D10*
X225377500Y-165920000D03*
D12*
X227382500Y-168460000D03*
D10*
X238277500Y-163380000D03*
D12*
X237542500Y-168460000D03*
D11*
X232462500Y-168460000D03*
D13*
X228652500Y-165920000D03*
X235002500Y-163380000D03*
D12*
X151817500Y-187510000D03*
D11*
X146737500Y-187510000D03*
D10*
X139652500Y-184970000D03*
D12*
X141657500Y-187510000D03*
D10*
X152552500Y-182430000D03*
D13*
X142927500Y-184970000D03*
X149277500Y-182430000D03*
D10*
X171602500Y-182430000D03*
D12*
X160707500Y-187510000D03*
D11*
X165787500Y-187510000D03*
D10*
X158702500Y-184970000D03*
D12*
X170867500Y-187510000D03*
D13*
X161977500Y-184970000D03*
X168327500Y-182430000D03*
D12*
X246432500Y-168460000D03*
X256592500Y-168460000D03*
D10*
X244427500Y-165920000D03*
D11*
X251512500Y-168460000D03*
D10*
X257327500Y-163380000D03*
D13*
X247702500Y-165920000D03*
X254052500Y-163380000D03*
D12*
X247067500Y-187510000D03*
X236907500Y-187510000D03*
D10*
X247802500Y-182430000D03*
X234902500Y-184970000D03*
D11*
X241987500Y-187510000D03*
D13*
X238177500Y-184970000D03*
X244527500Y-182430000D03*
D12*
X275642500Y-168460000D03*
D10*
X263477500Y-165920000D03*
D11*
X270562500Y-168460000D03*
D10*
X276377500Y-163380000D03*
D12*
X265482500Y-168460000D03*
D13*
X266752500Y-165920000D03*
X273102500Y-163380000D03*
D12*
X228017500Y-187510000D03*
D10*
X215852500Y-184970000D03*
D11*
X222937500Y-187510000D03*
D12*
X217857500Y-187510000D03*
D10*
X228752500Y-182430000D03*
D13*
X219127500Y-184970000D03*
X225477500Y-182430000D03*
D12*
X284532500Y-168460000D03*
D10*
X282527500Y-165920000D03*
D12*
X294692500Y-168460000D03*
D10*
X295427500Y-163380000D03*
D11*
X289612500Y-168460000D03*
D13*
X285802500Y-165920000D03*
X292152500Y-163380000D03*
D10*
X95402500Y-182430000D03*
D12*
X84507500Y-187510000D03*
X94667500Y-187510000D03*
D10*
X82502500Y-184970000D03*
D11*
X89587500Y-187510000D03*
D13*
X85777500Y-184970000D03*
X92127500Y-182430000D03*
D12*
X132767500Y-187510000D03*
D11*
X127687500Y-187510000D03*
D10*
X133502500Y-182430000D03*
X120602500Y-184970000D03*
D12*
X122607500Y-187510000D03*
D13*
X123877500Y-184970000D03*
X130227500Y-182430000D03*
D10*
X177752500Y-184970000D03*
D11*
X184837500Y-187510000D03*
D10*
X190652500Y-182430000D03*
D12*
X179757500Y-187510000D03*
X189917500Y-187510000D03*
D13*
X181027500Y-184970000D03*
X187377500Y-182430000D03*
D10*
X114452500Y-182430000D03*
D12*
X103557500Y-187510000D03*
D10*
X101552500Y-184970000D03*
D12*
X113717500Y-187510000D03*
D11*
X108637500Y-187510000D03*
D13*
X104827500Y-184970000D03*
X111177500Y-182430000D03*
D12*
X255957500Y-187510000D03*
D11*
X261037500Y-187510000D03*
D12*
X266117500Y-187510000D03*
D10*
X266852500Y-182430000D03*
X253952500Y-184970000D03*
D13*
X257227500Y-184970000D03*
X263577500Y-182430000D03*
D11*
X84825000Y-130360000D03*
D12*
X79745000Y-130360000D03*
D10*
X90640000Y-125280000D03*
D12*
X89905000Y-130360000D03*
D10*
X77740000Y-127820000D03*
D13*
X81015000Y-127820000D03*
X87365000Y-125280000D03*
D12*
X136895000Y-101785000D03*
D11*
X141975000Y-101785000D03*
D12*
X147055000Y-101785000D03*
D10*
X147790000Y-96705000D03*
X134890000Y-99245000D03*
D13*
X138165000Y-99245000D03*
X144515000Y-96705000D03*
D10*
X362102500Y-201480000D03*
X349202500Y-204020000D03*
D12*
X361367500Y-206560000D03*
X351207500Y-206560000D03*
D11*
X356287500Y-206560000D03*
D13*
X352477500Y-204020000D03*
X358827500Y-201480000D03*
D10*
X368252500Y-204020000D03*
D12*
X370257500Y-206560000D03*
D11*
X375337500Y-206560000D03*
D10*
X381152500Y-201480000D03*
D12*
X380417500Y-206560000D03*
D13*
X371527500Y-204020000D03*
X377877500Y-201480000D03*
D11*
X189600000Y-101785000D03*
D12*
X194680000Y-101785000D03*
X184520000Y-101785000D03*
D10*
X195415000Y-96705000D03*
X182515000Y-99245000D03*
D13*
X185790000Y-99245000D03*
X192140000Y-96705000D03*
D10*
X233515000Y-96705000D03*
D11*
X227700000Y-101785000D03*
D12*
X232780000Y-101785000D03*
X222620000Y-101785000D03*
D10*
X220615000Y-99245000D03*
D13*
X223890000Y-99245000D03*
X230240000Y-96705000D03*
D19*
X376075000Y-116060000D03*
X325267000Y-209905000D03*
D20*
X242920000Y-83600000D03*
X245460000Y-83600000D03*
D21*
X248000000Y-83600000D03*
D20*
X250540000Y-83600000D03*
X253080000Y-83600000D03*
X255620000Y-83600000D03*
X258160000Y-83600000D03*
D21*
X260700000Y-83600000D03*
D20*
X263240000Y-83600000D03*
X265780000Y-83600000D03*
X268320000Y-83600000D03*
X270860000Y-83600000D03*
D21*
X273400000Y-83600000D03*
D20*
X275940000Y-83600000D03*
X278480000Y-83600000D03*
X281020000Y-83600000D03*
X283560000Y-83600000D03*
D21*
X286100000Y-83600000D03*
D20*
X288640000Y-83600000D03*
X291180000Y-83600000D03*
X291180000Y-65820000D03*
X288640000Y-65820000D03*
D21*
X286100000Y-65820000D03*
D20*
X283560000Y-65820000D03*
X281020000Y-65820000D03*
X278480000Y-65820000D03*
X275940000Y-65820000D03*
D21*
X273400000Y-65820000D03*
D20*
X270860000Y-65820000D03*
X268320000Y-65820000D03*
X265780000Y-65820000D03*
X263240000Y-65820000D03*
D21*
X260700000Y-65820000D03*
D20*
X258160000Y-65820000D03*
X255620000Y-65820000D03*
X253080000Y-65820000D03*
X250540000Y-65820000D03*
D21*
X248000000Y-65820000D03*
D20*
X245460000Y-65820000D03*
X242920000Y-65820000D03*
X290950000Y-77250000D03*
D21*
X290950000Y-74710000D03*
D20*
X290950000Y-72170000D03*
D22*
X242925000Y-73694000D03*
X242925000Y-75726000D03*
D19*
X212225000Y-116085000D03*
X377867000Y-62705000D03*
X209225000Y-210185000D03*
X40167000Y-196305000D03*
D17*
X203600000Y-61600000D03*
D18*
X193440000Y-61600000D03*
D23*
X369200000Y-86400000D03*
D18*
X361580000Y-86400000D03*
D23*
X356600000Y-86400000D03*
D18*
X348980000Y-86400000D03*
D23*
X344100000Y-86400000D03*
D18*
X336480000Y-86400000D03*
D23*
X319000000Y-86400000D03*
D18*
X311380000Y-86400000D03*
D23*
X331500000Y-86400000D03*
D18*
X323880000Y-86400000D03*
D23*
X381700000Y-86400000D03*
D18*
X374080000Y-86400000D03*
D23*
X306400000Y-86400000D03*
D18*
X298780000Y-86400000D03*
D23*
X344125000Y-66685000D03*
D18*
X336505000Y-66685000D03*
D19*
X41267000Y-63405000D03*
D12*
X163088750Y-206560000D03*
D11*
X168168750Y-206560000D03*
D10*
X161083750Y-204020000D03*
X173983750Y-201480000D03*
D12*
X173248750Y-206560000D03*
D13*
X164358750Y-204020000D03*
X170708750Y-201480000D03*
D23*
X306400000Y-82400000D03*
D18*
X298780000Y-82400000D03*
D23*
X319000000Y-82400000D03*
D18*
X311380000Y-82400000D03*
D23*
X344100000Y-82400000D03*
D18*
X336480000Y-82400000D03*
D23*
X356600000Y-82400000D03*
D18*
X348980000Y-82400000D03*
D23*
X369200000Y-82400000D03*
D18*
X361580000Y-82400000D03*
D23*
X381700000Y-82400000D03*
D18*
X374080000Y-82400000D03*
D23*
X306400000Y-78500000D03*
D18*
X298780000Y-78500000D03*
D23*
X319000000Y-78500000D03*
D18*
X311380000Y-78500000D03*
D23*
X331500000Y-78500000D03*
D18*
X323880000Y-78500000D03*
D23*
X356600000Y-78500000D03*
D18*
X348980000Y-78500000D03*
D23*
X369200000Y-78500000D03*
D18*
X361580000Y-78500000D03*
D23*
X381700000Y-78500000D03*
D18*
X374080000Y-78500000D03*
D23*
X306400000Y-74500000D03*
D18*
X298780000Y-74500000D03*
D23*
X319000000Y-74500000D03*
D18*
X311380000Y-74500000D03*
D23*
X331500000Y-74500000D03*
D18*
X323880000Y-74500000D03*
D23*
X344100000Y-74500000D03*
D18*
X336480000Y-74500000D03*
D23*
X306400000Y-70600000D03*
D18*
X298780000Y-70600000D03*
D23*
X331500000Y-70600000D03*
D18*
X323880000Y-70600000D03*
D23*
X369200000Y-70600000D03*
D18*
X361580000Y-70600000D03*
D23*
X306475000Y-66685000D03*
D18*
X298855000Y-66685000D03*
D23*
X331575000Y-66685000D03*
D18*
X323955000Y-66685000D03*
D23*
X356675000Y-66685000D03*
D18*
X349055000Y-66685000D03*
D23*
X369225000Y-66685000D03*
D18*
X361605000Y-66685000D03*
D23*
X381775000Y-66685000D03*
D18*
X374155000Y-66685000D03*
D19*
X48375000Y-116085000D03*
D23*
X49300000Y-73100000D03*
D18*
X41680000Y-73100000D03*
D23*
X49300000Y-81100000D03*
D18*
X41680000Y-81100000D03*
D23*
X103625000Y-89185000D03*
D18*
X96005000Y-89185000D03*
D23*
X49325000Y-89185000D03*
D18*
X41705000Y-89185000D03*
D23*
X85525000Y-89185000D03*
D18*
X77905000Y-89185000D03*
D23*
X121725000Y-89185000D03*
D18*
X114105000Y-89185000D03*
D23*
X49300000Y-77100000D03*
D18*
X41680000Y-77100000D03*
D23*
X49200000Y-69100000D03*
D18*
X41580000Y-69100000D03*
D23*
X139775000Y-89185000D03*
D18*
X132155000Y-89185000D03*
D23*
X212125000Y-89185000D03*
D18*
X204505000Y-89185000D03*
D23*
X230225000Y-89185000D03*
D18*
X222605000Y-89185000D03*
D23*
X49300000Y-85100000D03*
D18*
X41680000Y-85100000D03*
D23*
X194025000Y-89185000D03*
D18*
X186405000Y-89185000D03*
D23*
X175965000Y-89185000D03*
D18*
X168345000Y-89185000D03*
D23*
X175900000Y-73100000D03*
D18*
X168280000Y-73100000D03*
D23*
X212100000Y-77100000D03*
D18*
X204480000Y-77100000D03*
D23*
X230200000Y-77100000D03*
D18*
X222580000Y-77100000D03*
D23*
X85500000Y-73100000D03*
D18*
X77880000Y-73100000D03*
D23*
X67400000Y-73100000D03*
D18*
X59780000Y-73100000D03*
D23*
X230200000Y-73100000D03*
D18*
X222580000Y-73100000D03*
D23*
X212100000Y-73100000D03*
D18*
X204480000Y-73100000D03*
D23*
X103600000Y-73100000D03*
D18*
X95980000Y-73100000D03*
D23*
X194000000Y-73100000D03*
D18*
X186380000Y-73100000D03*
D23*
X121700000Y-73100000D03*
D18*
X114080000Y-73100000D03*
D23*
X139800000Y-73100000D03*
D18*
X132180000Y-73100000D03*
D23*
X157800000Y-73100000D03*
D18*
X150180000Y-73100000D03*
D23*
X157800000Y-81100000D03*
D18*
X150180000Y-81100000D03*
D23*
X175900000Y-81100000D03*
D18*
X168280000Y-81100000D03*
D23*
X230200000Y-85100000D03*
D18*
X222580000Y-85100000D03*
D23*
X139800000Y-81100000D03*
D18*
X132180000Y-81100000D03*
D23*
X121700000Y-81100000D03*
D18*
X114080000Y-81100000D03*
D23*
X157800000Y-85100000D03*
D18*
X150180000Y-85100000D03*
D23*
X175900000Y-85100000D03*
D18*
X168280000Y-85100000D03*
D23*
X85500000Y-81100000D03*
D18*
X77880000Y-81100000D03*
D23*
X103600000Y-81100000D03*
D18*
X95980000Y-81100000D03*
D23*
X194000000Y-85100000D03*
D18*
X186380000Y-85100000D03*
D23*
X212100000Y-85100000D03*
D18*
X204480000Y-85100000D03*
D23*
X175900000Y-77100000D03*
D18*
X168280000Y-77100000D03*
D23*
X121700000Y-77100000D03*
D18*
X114080000Y-77100000D03*
D23*
X157800000Y-77100000D03*
D18*
X150180000Y-77100000D03*
D23*
X194000000Y-81100000D03*
D18*
X186380000Y-81100000D03*
D23*
X212100000Y-81100000D03*
D18*
X204480000Y-81100000D03*
D23*
X194000000Y-77100000D03*
D18*
X186380000Y-77100000D03*
D23*
X230200000Y-81100000D03*
D18*
X222580000Y-81100000D03*
D23*
X85500000Y-77100000D03*
D18*
X77880000Y-77100000D03*
D23*
X103600000Y-77100000D03*
D18*
X95980000Y-77100000D03*
D23*
X139800000Y-77100000D03*
D18*
X132180000Y-77100000D03*
D23*
X67400000Y-69100000D03*
D18*
X59780000Y-69100000D03*
D23*
X103600000Y-69100000D03*
D18*
X95980000Y-69100000D03*
D23*
X157800000Y-69100000D03*
D18*
X150180000Y-69100000D03*
D23*
X230200000Y-69100000D03*
D18*
X222580000Y-69100000D03*
D23*
X85500000Y-85100000D03*
D18*
X77880000Y-85100000D03*
D23*
X139700000Y-85100000D03*
D18*
X132080000Y-85100000D03*
D23*
X103600000Y-85100000D03*
D18*
X95980000Y-85100000D03*
D23*
X121700000Y-85100000D03*
D18*
X114080000Y-85100000D03*
D23*
X67400000Y-85100000D03*
D18*
X59780000Y-85100000D03*
D24*
X49325000Y-107615000D03*
X49325000Y-106115000D03*
X44125000Y-106115000D03*
X44125000Y-107615000D03*
X87425000Y-107615000D03*
X87425000Y-106115000D03*
X82225000Y-106115000D03*
X82225000Y-107615000D03*
X106475000Y-107615000D03*
X106475000Y-106115000D03*
X101275000Y-106115000D03*
X101275000Y-107615000D03*
X125525000Y-107615000D03*
X125525000Y-106115000D03*
X120325000Y-106115000D03*
X120325000Y-107615000D03*
X144575000Y-107615000D03*
X144575000Y-106115000D03*
X139375000Y-106115000D03*
X139375000Y-107615000D03*
X173150000Y-107615000D03*
X173150000Y-106115000D03*
X167950000Y-106115000D03*
X167950000Y-107615000D03*
X192200000Y-107615000D03*
X192200000Y-106115000D03*
X187000000Y-106115000D03*
X187000000Y-107615000D03*
X211250000Y-107615000D03*
X211250000Y-106115000D03*
X206050000Y-106115000D03*
X206050000Y-107615000D03*
X230300000Y-107615000D03*
X230300000Y-106115000D03*
X225100000Y-106115000D03*
X225100000Y-107615000D03*
X258875000Y-107615000D03*
X258875000Y-106115000D03*
X253675000Y-106115000D03*
X253675000Y-107615000D03*
X277925000Y-107615000D03*
X277925000Y-106115000D03*
X272725000Y-106115000D03*
X272725000Y-107615000D03*
X296975000Y-107615000D03*
X296975000Y-106115000D03*
X291775000Y-106115000D03*
X291775000Y-107615000D03*
X316025000Y-107615000D03*
X316025000Y-106115000D03*
X310825000Y-106115000D03*
X310825000Y-107615000D03*
X339837500Y-107615000D03*
X339837500Y-106115000D03*
X334637500Y-106115000D03*
X334637500Y-107615000D03*
X358887500Y-107615000D03*
X358887500Y-106115000D03*
X353687500Y-106115000D03*
X353687500Y-107615000D03*
X377937500Y-107615000D03*
X377937500Y-106115000D03*
X372737500Y-106115000D03*
X372737500Y-107615000D03*
X49325000Y-136190000D03*
X49325000Y-134690000D03*
X44125000Y-134690000D03*
X44125000Y-136190000D03*
X68375000Y-136190000D03*
X68375000Y-134690000D03*
X63175000Y-134690000D03*
X63175000Y-136190000D03*
X87425000Y-136190000D03*
X87425000Y-134690000D03*
X82225000Y-134690000D03*
X82225000Y-136190000D03*
X106475000Y-136190000D03*
X106475000Y-134690000D03*
X101275000Y-134690000D03*
X101275000Y-136190000D03*
X125525000Y-136190000D03*
X125525000Y-134690000D03*
X120325000Y-134690000D03*
X120325000Y-136190000D03*
X144575000Y-136190000D03*
X144575000Y-134690000D03*
X139375000Y-134690000D03*
X139375000Y-136190000D03*
X163625000Y-136190000D03*
X163625000Y-134690000D03*
X158425000Y-134690000D03*
X158425000Y-136190000D03*
X182675000Y-136190000D03*
X182675000Y-134690000D03*
X177475000Y-134690000D03*
X177475000Y-136190000D03*
X201725000Y-136190000D03*
X201725000Y-134690000D03*
X196525000Y-134690000D03*
X196525000Y-136190000D03*
X220775000Y-136190000D03*
X220775000Y-134690000D03*
X215575000Y-134690000D03*
X215575000Y-136190000D03*
X239825000Y-136190000D03*
X239825000Y-134690000D03*
X234625000Y-134690000D03*
X234625000Y-136190000D03*
X258875000Y-136190000D03*
X258875000Y-134690000D03*
X253675000Y-134690000D03*
X253675000Y-136190000D03*
X277925000Y-136190000D03*
X277925000Y-134690000D03*
X272725000Y-134690000D03*
X272725000Y-136190000D03*
X306500000Y-136190000D03*
X306500000Y-134690000D03*
X301300000Y-134690000D03*
X301300000Y-136190000D03*
X339837500Y-136190000D03*
X339837500Y-134690000D03*
X334637500Y-134690000D03*
X334637500Y-136190000D03*
X358887500Y-136190000D03*
X358887500Y-134690000D03*
X353687500Y-134690000D03*
X353687500Y-136190000D03*
X377937500Y-136190000D03*
X377937500Y-134690000D03*
X372737500Y-134690000D03*
X372737500Y-136190000D03*
X54087500Y-155240000D03*
X54087500Y-153740000D03*
X48887500Y-153740000D03*
X48887500Y-155240000D03*
X77900000Y-155240000D03*
X77900000Y-153740000D03*
X72700000Y-153740000D03*
X72700000Y-155240000D03*
X96950000Y-155240000D03*
X96950000Y-153740000D03*
X91750000Y-153740000D03*
X91750000Y-155240000D03*
X116000000Y-155240000D03*
X116000000Y-153740000D03*
X110800000Y-153740000D03*
X110800000Y-155240000D03*
X135050000Y-155240000D03*
X135050000Y-153740000D03*
X129850000Y-153740000D03*
X129850000Y-155240000D03*
X154100000Y-155240000D03*
X154100000Y-153740000D03*
X148900000Y-153740000D03*
X148900000Y-155240000D03*
X173150000Y-155240000D03*
X173150000Y-153740000D03*
X167950000Y-153740000D03*
X167950000Y-155240000D03*
X192200000Y-155240000D03*
X192200000Y-153740000D03*
X187000000Y-153740000D03*
X187000000Y-155240000D03*
X211250000Y-155240000D03*
X211250000Y-153740000D03*
X206050000Y-153740000D03*
X206050000Y-155240000D03*
X230300000Y-155240000D03*
X230300000Y-153740000D03*
X225100000Y-153740000D03*
X225100000Y-155240000D03*
X249350000Y-155240000D03*
X249350000Y-153740000D03*
X244150000Y-153740000D03*
X244150000Y-155240000D03*
X268400000Y-155240000D03*
X268400000Y-153740000D03*
X263200000Y-153740000D03*
X263200000Y-155240000D03*
X287450000Y-155240000D03*
X287450000Y-153740000D03*
X282250000Y-153740000D03*
X282250000Y-155240000D03*
D25*
X305195000Y-161535000D03*
X306695000Y-161535000D03*
X306695000Y-156335000D03*
X305195000Y-156335000D03*
D24*
X339837500Y-155240000D03*
X339837500Y-153740000D03*
X334637500Y-153740000D03*
X334637500Y-155240000D03*
X358887500Y-155240000D03*
X358887500Y-153740000D03*
X353687500Y-153740000D03*
X353687500Y-155240000D03*
X377937500Y-155240000D03*
X377937500Y-153740000D03*
X372737500Y-153740000D03*
X372737500Y-155240000D03*
X56468750Y-174290000D03*
X56468750Y-172790000D03*
X51268750Y-172790000D03*
X51268750Y-174290000D03*
X82662500Y-174290000D03*
X82662500Y-172790000D03*
X77462500Y-172790000D03*
X77462500Y-174290000D03*
X101712500Y-174290000D03*
X101712500Y-172790000D03*
X96512500Y-172790000D03*
X96512500Y-174290000D03*
X120762500Y-174290000D03*
X120762500Y-172790000D03*
X115562500Y-172790000D03*
X115562500Y-174290000D03*
X139812500Y-174290000D03*
X139812500Y-172790000D03*
X134612500Y-172790000D03*
X134612500Y-174290000D03*
X158862500Y-174290000D03*
X158862500Y-172790000D03*
X153662500Y-172790000D03*
X153662500Y-174290000D03*
X177912500Y-174290000D03*
X177912500Y-172790000D03*
X172712500Y-172790000D03*
X172712500Y-174290000D03*
X196962500Y-174290000D03*
X196962500Y-172790000D03*
X191762500Y-172790000D03*
X191762500Y-174290000D03*
X216012500Y-174290000D03*
X216012500Y-172790000D03*
X210812500Y-172790000D03*
X210812500Y-174290000D03*
X235062500Y-174290000D03*
X235062500Y-172790000D03*
X229862500Y-172790000D03*
X229862500Y-174290000D03*
X254112500Y-174290000D03*
X254112500Y-172790000D03*
X248912500Y-172790000D03*
X248912500Y-174290000D03*
X273162500Y-174290000D03*
X273162500Y-172790000D03*
X267962500Y-172790000D03*
X267962500Y-174290000D03*
X292212500Y-174290000D03*
X292212500Y-172790000D03*
X287012500Y-172790000D03*
X287012500Y-174290000D03*
X51706250Y-193340000D03*
X51706250Y-191840000D03*
X46506250Y-191840000D03*
X46506250Y-193340000D03*
X73137500Y-193340000D03*
X73137500Y-191840000D03*
X67937500Y-191840000D03*
X67937500Y-193340000D03*
X92187500Y-193340000D03*
X92187500Y-191840000D03*
X86987500Y-191840000D03*
X86987500Y-193340000D03*
X111237500Y-193340000D03*
X111237500Y-191840000D03*
X106037500Y-191840000D03*
X106037500Y-193340000D03*
X130287500Y-193340000D03*
X130287500Y-191840000D03*
X125087500Y-191840000D03*
X125087500Y-193340000D03*
X149337500Y-193340000D03*
X149337500Y-191840000D03*
X144137500Y-191840000D03*
X144137500Y-193340000D03*
X168387500Y-193340000D03*
X168387500Y-191840000D03*
X163187500Y-191840000D03*
X163187500Y-193340000D03*
X187437500Y-193340000D03*
X187437500Y-191840000D03*
X182237500Y-191840000D03*
X182237500Y-193340000D03*
X206487500Y-193340000D03*
X206487500Y-191840000D03*
X201287500Y-191840000D03*
X201287500Y-193340000D03*
X225537500Y-193340000D03*
X225537500Y-191840000D03*
X220337500Y-191840000D03*
X220337500Y-193340000D03*
X244587500Y-193340000D03*
X244587500Y-191840000D03*
X239387500Y-191840000D03*
X239387500Y-193340000D03*
X263637500Y-193340000D03*
X263637500Y-191840000D03*
X258437500Y-191840000D03*
X258437500Y-193340000D03*
X299356250Y-193340000D03*
X299356250Y-191840000D03*
X294156250Y-191840000D03*
X294156250Y-193340000D03*
X358887500Y-193340000D03*
X358887500Y-191840000D03*
X353687500Y-191840000D03*
X353687500Y-193340000D03*
X51706250Y-212390000D03*
X51706250Y-210890000D03*
X46506250Y-210890000D03*
X46506250Y-212390000D03*
X75518750Y-212390000D03*
X75518750Y-210890000D03*
X70318750Y-210890000D03*
X70318750Y-212390000D03*
X99331250Y-212390000D03*
X99331250Y-210890000D03*
X94131250Y-210890000D03*
X94131250Y-212390000D03*
X170768750Y-212390000D03*
X170768750Y-210890000D03*
X165568750Y-210890000D03*
X165568750Y-212390000D03*
X242206250Y-212390000D03*
X242206250Y-210890000D03*
X237006250Y-210890000D03*
X237006250Y-212390000D03*
X266018750Y-212390000D03*
X266018750Y-210890000D03*
X260818750Y-210890000D03*
X260818750Y-212390000D03*
X289831250Y-212390000D03*
X289831250Y-210890000D03*
X284631250Y-210890000D03*
X284631250Y-212390000D03*
X313643750Y-212390000D03*
X313643750Y-210890000D03*
X308443750Y-210890000D03*
X308443750Y-212390000D03*
X339837500Y-212390000D03*
X339837500Y-210890000D03*
X334637500Y-210890000D03*
X334637500Y-212390000D03*
X358887500Y-212390000D03*
X358887500Y-210890000D03*
X353687500Y-210890000D03*
X353687500Y-212390000D03*
X377937500Y-212390000D03*
X377937500Y-210890000D03*
X372737500Y-210890000D03*
X372737500Y-212390000D03*
D19*
X379667000Y-193405000D03*
D11*
X118168750Y-198305000D03*
D26*
X218168750Y-213545000D03*
D11*
X218168750Y-198305000D03*
D26*
X118168750Y-213545000D03*
D11*
X315838000Y-138615000D03*
X291962000Y-138615000D03*
D26*
X291962000Y-123375000D03*
X315838000Y-123375000D03*
D11*
X308694250Y-195765000D03*
D26*
X284818250Y-180525000D03*
D11*
X284818250Y-195765000D03*
D26*
X308694250Y-180525000D03*
X318010000Y-146997000D03*
D11*
X302770000Y-170873000D03*
X302770000Y-146997000D03*
D26*
X318010000Y-170873000D03*
D17*
X203600000Y-67900000D03*
D18*
X193440000Y-67900000D03*
D27*
X216000000Y-66510000D03*
X208500000Y-66510000D03*
D28*
X217825000Y-61830000D03*
X217825000Y-66430000D03*
X206675000Y-61830000D03*
X206675000Y-66430000D03*
D29*
X106475000Y-138175000D03*
X106475000Y-139725000D03*
X73150000Y-195300000D03*
X73150000Y-196850000D03*
X87425000Y-138175000D03*
X87425000Y-139725000D03*
X135050000Y-157275000D03*
X135050000Y-158825000D03*
X211250000Y-157225000D03*
X211250000Y-158775000D03*
X172790000Y-212385000D03*
X172790000Y-213935000D03*
X192200000Y-157225000D03*
X192200000Y-158775000D03*
X358900000Y-157275000D03*
X358900000Y-158825000D03*
X173150000Y-109625000D03*
X173150000Y-111175000D03*
X277925000Y-109625000D03*
X277925000Y-111175000D03*
X201725000Y-138275000D03*
X201725000Y-139825000D03*
X116000000Y-157300000D03*
X116000000Y-158850000D03*
X277925000Y-138175000D03*
X277925000Y-139725000D03*
X211250000Y-109650000D03*
X211250000Y-111200000D03*
X315680000Y-212375000D03*
X315680000Y-213925000D03*
D30*
X303250000Y-161525000D03*
X301700000Y-161525000D03*
D29*
X258875000Y-109625000D03*
X258875000Y-111175000D03*
X287450000Y-157275000D03*
X287450000Y-158825000D03*
X268400000Y-157225000D03*
X268400000Y-158775000D03*
X187450000Y-195300000D03*
X187450000Y-196850000D03*
X101700000Y-176250000D03*
X101700000Y-177800000D03*
X163625000Y-138200000D03*
X163625000Y-139750000D03*
X87425000Y-109650000D03*
X87425000Y-111200000D03*
X268020000Y-212405000D03*
X268020000Y-213955000D03*
X149325000Y-195300000D03*
X149325000Y-196850000D03*
X125525000Y-109625000D03*
X125525000Y-111175000D03*
X224920000Y-61545000D03*
X224920000Y-63095000D03*
X92175000Y-195300000D03*
X92175000Y-196850000D03*
X139825000Y-176250000D03*
X139825000Y-177800000D03*
X206475000Y-195300000D03*
X206475000Y-196850000D03*
X130300000Y-195250000D03*
X130300000Y-196800000D03*
X173150000Y-157275000D03*
X173150000Y-158825000D03*
X360900000Y-212375000D03*
X360900000Y-213925000D03*
X306500000Y-138225000D03*
X306500000Y-139775000D03*
X339850000Y-138225000D03*
X339850000Y-139775000D03*
X358900000Y-138175000D03*
X358900000Y-139725000D03*
X339850000Y-157250000D03*
X339850000Y-158800000D03*
X49325000Y-109675000D03*
X49325000Y-111225000D03*
X296975000Y-109600000D03*
X296975000Y-111150000D03*
X263625000Y-195300000D03*
X263625000Y-196850000D03*
X196950000Y-176250000D03*
X196950000Y-177800000D03*
X56475000Y-176225000D03*
X56475000Y-177775000D03*
X168375000Y-195275000D03*
X168375000Y-196825000D03*
X54100000Y-157250000D03*
X54100000Y-158800000D03*
X299375000Y-195300000D03*
X299375000Y-196850000D03*
X358900000Y-195025000D03*
X358900000Y-196575000D03*
X377940000Y-109585000D03*
X377940000Y-111135000D03*
X316025000Y-109625000D03*
X316025000Y-111175000D03*
X106475000Y-109650000D03*
X106475000Y-111200000D03*
X177900000Y-176250000D03*
X177900000Y-177800000D03*
X182675000Y-138250000D03*
X182675000Y-139800000D03*
X341900000Y-212385000D03*
X341900000Y-213935000D03*
X235050000Y-176275000D03*
X235050000Y-177825000D03*
X120750000Y-176250000D03*
X120750000Y-177800000D03*
X111225000Y-195300000D03*
X111225000Y-196850000D03*
X154100000Y-157250000D03*
X154100000Y-158800000D03*
X377950000Y-138175000D03*
X377950000Y-139725000D03*
X144575000Y-109625000D03*
X144575000Y-111175000D03*
X292200000Y-176250000D03*
X292200000Y-177800000D03*
X96950000Y-157250000D03*
X96950000Y-158800000D03*
X339850000Y-109625000D03*
X339850000Y-111175000D03*
X258875000Y-138175000D03*
X258875000Y-139725000D03*
X273150000Y-176250000D03*
X273150000Y-177800000D03*
X68375000Y-138225000D03*
X68375000Y-139775000D03*
X358875000Y-109575000D03*
X358875000Y-111125000D03*
X291830000Y-212395000D03*
X291830000Y-213945000D03*
X244600000Y-195275000D03*
X244600000Y-196825000D03*
X77550000Y-212395000D03*
X77550000Y-213945000D03*
X239825000Y-138325000D03*
X239825000Y-139875000D03*
X82650000Y-176225000D03*
X82650000Y-177775000D03*
X53700000Y-212395000D03*
X53700000Y-213945000D03*
X216025000Y-176250000D03*
X216025000Y-177800000D03*
X101330000Y-212395000D03*
X101330000Y-213945000D03*
X244190000Y-212385000D03*
X244190000Y-213935000D03*
X230300000Y-109625000D03*
X230300000Y-111175000D03*
X192200000Y-109625000D03*
X192200000Y-111175000D03*
X77900000Y-157225000D03*
X77900000Y-158775000D03*
X230300000Y-157275000D03*
X230300000Y-158825000D03*
X379930000Y-212395000D03*
X379930000Y-213945000D03*
X377925000Y-157275000D03*
X377925000Y-158825000D03*
X49325000Y-138200000D03*
X49325000Y-139750000D03*
X144575000Y-138250000D03*
X144575000Y-139800000D03*
X249350000Y-157225000D03*
X249350000Y-158775000D03*
X158850000Y-176225000D03*
X158850000Y-177775000D03*
X254100000Y-176250000D03*
X254100000Y-177800000D03*
X225525000Y-195300000D03*
X225525000Y-196850000D03*
X51700000Y-195300000D03*
X51700000Y-196850000D03*
X220750000Y-138250000D03*
X220750000Y-139800000D03*
X125525000Y-138225000D03*
X125525000Y-139775000D03*
G36*
X243573844Y-74567633D02*
G01*
X243574546Y-74569505D01*
X243573591Y-74570899D01*
X243557129Y-74580634D01*
X243556669Y-74580833D01*
X243518903Y-74591805D01*
X243460280Y-74629243D01*
X243431330Y-74692160D01*
X243440990Y-74760741D01*
X243486292Y-74813325D01*
X243518764Y-74828155D01*
X243556669Y-74839167D01*
X243557129Y-74839366D01*
X243573591Y-74849101D01*
X243574573Y-74850844D01*
X243573555Y-74852565D01*
X243571871Y-74852696D01*
X243466930Y-74813357D01*
X243362394Y-74802000D01*
X242487606Y-74802000D01*
X242383070Y-74813357D01*
X242278129Y-74852696D01*
X242276156Y-74852367D01*
X242275454Y-74850495D01*
X242276409Y-74849101D01*
X242292871Y-74839366D01*
X242293331Y-74839167D01*
X242331097Y-74828195D01*
X242389720Y-74790757D01*
X242418670Y-74727840D01*
X242409010Y-74659259D01*
X242363708Y-74606675D01*
X242331236Y-74591845D01*
X242293331Y-74580833D01*
X242292871Y-74580634D01*
X242276409Y-74570899D01*
X242275427Y-74569156D01*
X242276445Y-74567435D01*
X242278129Y-74567304D01*
X242383070Y-74606643D01*
X242487606Y-74618000D01*
X243362394Y-74618000D01*
X243466930Y-74606643D01*
X243571871Y-74567304D01*
X243573844Y-74567633D01*
G37*
M02*
