G04 #@! TF.GenerationSoftware,KiCad,Pcbnew,(6.0.2)*
G04 #@! TF.CreationDate,2022-03-10T23:30:09+00:00*
G04 #@! TF.ProjectId,ENV_KB_RGB,454e565f-4b42-45f5-9247-422e6b696361,Rev.1*
G04 #@! TF.SameCoordinates,Original*
G04 #@! TF.FileFunction,Profile,NP*
%FSLAX46Y46*%
G04 Gerber Fmt 4.6, Leading zero omitted, Abs format (unit mm)*
G04 Created by KiCad (PCBNEW (6.0.2)) date 2022-03-10 23:30:09*
%MOMM*%
%LPD*%
G01*
G04 APERTURE LIST*
G04 #@! TA.AperFunction,Profile*
%ADD10C,0.100000*%
G04 #@! TD*
G04 #@! TA.AperFunction,Profile*
%ADD11C,0.050000*%
G04 #@! TD*
G04 APERTURE END LIST*
D10*
X380767000Y-215785000D02*
X39767000Y-215785000D01*
X39767000Y-59685000D02*
X207546960Y-59700000D01*
X383767000Y-62500000D02*
G75*
G03*
X380767000Y-59500000I-3000001J-1D01*
G01*
X380767000Y-215785000D02*
G75*
G03*
X383767000Y-212785000I-1J3000001D01*
G01*
X36767000Y-212785000D02*
G75*
G03*
X39767000Y-215785000I3000001J1D01*
G01*
X39767000Y-59685000D02*
G75*
G03*
X36767000Y-62685000I1J-3000001D01*
G01*
X36767000Y-212785000D02*
X36767000Y-62685000D01*
D11*
X380767000Y-59500000D02*
X216950000Y-59500000D01*
X207546960Y-60553128D02*
X207546960Y-59700000D01*
D10*
X383767000Y-62500000D02*
X383767000Y-212785000D01*
X245825000Y-76800000D02*
X243175000Y-76800000D01*
D11*
X216953040Y-60553128D02*
X216950000Y-59500000D01*
D10*
X245825000Y-72625000D02*
X245825000Y-76800000D01*
X243175000Y-72625000D02*
X245825000Y-72625000D01*
X243175000Y-76800000D02*
X243175000Y-72625000D01*
X45025001Y-107567842D02*
X45025001Y-106162158D01*
X45930548Y-105365000D02*
X47519452Y-105365000D01*
X47519452Y-108364999D02*
X45930547Y-108364999D01*
X48424999Y-106162158D02*
X48424999Y-107567842D01*
X48474484Y-105945280D02*
G75*
G03*
X48424999Y-106162157I450505J-216876D01*
G01*
X45678289Y-105296701D02*
G75*
G03*
X44975516Y-105945281I-252259J-431700D01*
G01*
X44975515Y-107784720D02*
G75*
G03*
X45678289Y-108433298I450516J-216877D01*
G01*
X47519452Y-105365000D02*
G75*
G03*
X47771710Y-105296701I-3J500009D01*
G01*
X47771711Y-108433299D02*
G75*
G03*
X47519453Y-108365000I-252261J-431710D01*
G01*
X48424999Y-107567842D02*
G75*
G03*
X48474484Y-107784720I499990J-2D01*
G01*
X45025001Y-106162158D02*
G75*
G03*
X44975516Y-105945280I-499990J2D01*
G01*
X47771711Y-108433299D02*
G75*
G03*
X48474484Y-107784720I252258J431701D01*
G01*
X44975516Y-107784720D02*
G75*
G03*
X45025001Y-107567843I-450505J216876D01*
G01*
X48474484Y-105945280D02*
G75*
G03*
X47771711Y-105296703I-450515J216877D01*
G01*
X45678289Y-105296701D02*
G75*
G03*
X45930548Y-105365000I252261J431710D01*
G01*
X45930547Y-108364999D02*
G75*
G03*
X45678289Y-108433298I3J-500009D01*
G01*
X84030548Y-105365000D02*
X85619452Y-105365000D01*
X85619452Y-108364999D02*
X84030547Y-108364999D01*
X86524999Y-106162158D02*
X86524999Y-107567842D01*
X83125001Y-107567842D02*
X83125001Y-106162158D01*
X83778289Y-105296701D02*
G75*
G03*
X83075516Y-105945281I-252259J-431700D01*
G01*
X86524999Y-107567842D02*
G75*
G03*
X86574484Y-107784720I499990J-2D01*
G01*
X85871711Y-108433299D02*
G75*
G03*
X86574484Y-107784720I252258J431701D01*
G01*
X83778289Y-105296701D02*
G75*
G03*
X84030548Y-105365000I252261J431710D01*
G01*
X83075516Y-107784720D02*
G75*
G03*
X83125001Y-107567843I-450505J216876D01*
G01*
X86574484Y-105945280D02*
G75*
G03*
X86524999Y-106162157I450505J-216876D01*
G01*
X85871711Y-108433299D02*
G75*
G03*
X85619453Y-108365000I-252261J-431710D01*
G01*
X83075515Y-107784720D02*
G75*
G03*
X83778289Y-108433298I450516J-216877D01*
G01*
X83125001Y-106162158D02*
G75*
G03*
X83075516Y-105945280I-499990J2D01*
G01*
X86574484Y-105945280D02*
G75*
G03*
X85871711Y-105296703I-450515J216877D01*
G01*
X84030547Y-108364999D02*
G75*
G03*
X83778289Y-108433298I3J-500009D01*
G01*
X85619452Y-105365000D02*
G75*
G03*
X85871710Y-105296701I-3J500009D01*
G01*
X103080548Y-105365000D02*
X104669452Y-105365000D01*
X104669452Y-108364999D02*
X103080547Y-108364999D01*
X102175001Y-107567842D02*
X102175001Y-106162158D01*
X105574999Y-106162158D02*
X105574999Y-107567842D01*
X104921711Y-108433299D02*
G75*
G03*
X105624484Y-107784720I252258J431701D01*
G01*
X102125516Y-107784720D02*
G75*
G03*
X102175001Y-107567843I-450505J216876D01*
G01*
X102175001Y-106162158D02*
G75*
G03*
X102125516Y-105945280I-499990J2D01*
G01*
X102125515Y-107784720D02*
G75*
G03*
X102828289Y-108433298I450516J-216877D01*
G01*
X105574999Y-107567842D02*
G75*
G03*
X105624484Y-107784720I499990J-2D01*
G01*
X104921711Y-108433299D02*
G75*
G03*
X104669453Y-108365000I-252261J-431710D01*
G01*
X105624484Y-105945280D02*
G75*
G03*
X104921711Y-105296703I-450515J216877D01*
G01*
X102828289Y-105296701D02*
G75*
G03*
X102125516Y-105945281I-252259J-431700D01*
G01*
X102828289Y-105296701D02*
G75*
G03*
X103080548Y-105365000I252261J431710D01*
G01*
X103080547Y-108364999D02*
G75*
G03*
X102828289Y-108433298I3J-500009D01*
G01*
X104669452Y-105365000D02*
G75*
G03*
X104921710Y-105296701I-3J500009D01*
G01*
X105624484Y-105945280D02*
G75*
G03*
X105574999Y-106162157I450505J-216876D01*
G01*
X121225001Y-107567842D02*
X121225001Y-106162158D01*
X123719452Y-108364999D02*
X122130547Y-108364999D01*
X124624999Y-106162158D02*
X124624999Y-107567842D01*
X122130548Y-105365000D02*
X123719452Y-105365000D01*
X123971711Y-108433299D02*
G75*
G03*
X123719453Y-108365000I-252261J-431710D01*
G01*
X122130547Y-108364999D02*
G75*
G03*
X121878289Y-108433298I3J-500009D01*
G01*
X121225001Y-106162158D02*
G75*
G03*
X121175516Y-105945280I-499990J2D01*
G01*
X121175516Y-107784720D02*
G75*
G03*
X121225001Y-107567843I-450505J216876D01*
G01*
X123719452Y-105365000D02*
G75*
G03*
X123971710Y-105296701I-3J500009D01*
G01*
X121878289Y-105296701D02*
G75*
G03*
X122130548Y-105365000I252261J431710D01*
G01*
X124624999Y-107567842D02*
G75*
G03*
X124674484Y-107784720I499990J-2D01*
G01*
X124674484Y-105945280D02*
G75*
G03*
X123971711Y-105296703I-450515J216877D01*
G01*
X121878289Y-105296701D02*
G75*
G03*
X121175516Y-105945281I-252259J-431700D01*
G01*
X124674484Y-105945280D02*
G75*
G03*
X124624999Y-106162157I450505J-216876D01*
G01*
X123971711Y-108433299D02*
G75*
G03*
X124674484Y-107784720I252258J431701D01*
G01*
X121175515Y-107784720D02*
G75*
G03*
X121878289Y-108433298I450516J-216877D01*
G01*
X140275001Y-107567842D02*
X140275001Y-106162158D01*
X141180548Y-105365000D02*
X142769452Y-105365000D01*
X142769452Y-108364999D02*
X141180547Y-108364999D01*
X143674999Y-106162158D02*
X143674999Y-107567842D01*
X143021711Y-108433299D02*
G75*
G03*
X143724484Y-107784720I252258J431701D01*
G01*
X143724484Y-105945280D02*
G75*
G03*
X143674999Y-106162157I450505J-216876D01*
G01*
X142769452Y-105365000D02*
G75*
G03*
X143021710Y-105296701I-3J500009D01*
G01*
X140275001Y-106162158D02*
G75*
G03*
X140225516Y-105945280I-499990J2D01*
G01*
X143724484Y-105945280D02*
G75*
G03*
X143021711Y-105296703I-450515J216877D01*
G01*
X143674999Y-107567842D02*
G75*
G03*
X143724484Y-107784720I499990J-2D01*
G01*
X143021711Y-108433299D02*
G75*
G03*
X142769453Y-108365000I-252261J-431710D01*
G01*
X140225516Y-107784720D02*
G75*
G03*
X140275001Y-107567843I-450505J216876D01*
G01*
X140928289Y-105296701D02*
G75*
G03*
X141180548Y-105365000I252261J431710D01*
G01*
X140225515Y-107784720D02*
G75*
G03*
X140928289Y-108433298I450516J-216877D01*
G01*
X141180547Y-108364999D02*
G75*
G03*
X140928289Y-108433298I3J-500009D01*
G01*
X140928289Y-105296701D02*
G75*
G03*
X140225516Y-105945281I-252259J-431700D01*
G01*
X168850001Y-107567842D02*
X168850001Y-106162158D01*
X171344452Y-108364999D02*
X169755547Y-108364999D01*
X172249999Y-106162158D02*
X172249999Y-107567842D01*
X169755548Y-105365000D02*
X171344452Y-105365000D01*
X169503289Y-105296701D02*
G75*
G03*
X169755548Y-105365000I252261J431710D01*
G01*
X169503289Y-105296701D02*
G75*
G03*
X168800516Y-105945281I-252259J-431700D01*
G01*
X169755547Y-108364999D02*
G75*
G03*
X169503289Y-108433298I3J-500009D01*
G01*
X172299484Y-105945280D02*
G75*
G03*
X172249999Y-106162157I450505J-216876D01*
G01*
X171344452Y-105365000D02*
G75*
G03*
X171596710Y-105296701I-3J500009D01*
G01*
X171596711Y-108433299D02*
G75*
G03*
X171344453Y-108365000I-252261J-431710D01*
G01*
X171596711Y-108433299D02*
G75*
G03*
X172299484Y-107784720I252258J431701D01*
G01*
X168800515Y-107784720D02*
G75*
G03*
X169503289Y-108433298I450516J-216877D01*
G01*
X168800516Y-107784720D02*
G75*
G03*
X168850001Y-107567843I-450505J216876D01*
G01*
X172249999Y-107567842D02*
G75*
G03*
X172299484Y-107784720I499990J-2D01*
G01*
X168850001Y-106162158D02*
G75*
G03*
X168800516Y-105945280I-499990J2D01*
G01*
X172299484Y-105945280D02*
G75*
G03*
X171596711Y-105296703I-450515J216877D01*
G01*
X188805548Y-105365000D02*
X190394452Y-105365000D01*
X187900001Y-107567842D02*
X187900001Y-106162158D01*
X191299999Y-106162158D02*
X191299999Y-107567842D01*
X190394452Y-108364999D02*
X188805547Y-108364999D01*
X190394452Y-105365000D02*
G75*
G03*
X190646710Y-105296701I-3J500009D01*
G01*
X191349484Y-105945280D02*
G75*
G03*
X190646711Y-105296703I-450515J216877D01*
G01*
X190646711Y-108433299D02*
G75*
G03*
X190394453Y-108365000I-252261J-431710D01*
G01*
X188553289Y-105296701D02*
G75*
G03*
X188805548Y-105365000I252261J431710D01*
G01*
X190646711Y-108433299D02*
G75*
G03*
X191349484Y-107784720I252258J431701D01*
G01*
X187900001Y-106162158D02*
G75*
G03*
X187850516Y-105945280I-499990J2D01*
G01*
X188553289Y-105296701D02*
G75*
G03*
X187850516Y-105945281I-252259J-431700D01*
G01*
X191349484Y-105945280D02*
G75*
G03*
X191299999Y-106162157I450505J-216876D01*
G01*
X191299999Y-107567842D02*
G75*
G03*
X191349484Y-107784720I499990J-2D01*
G01*
X187850515Y-107784720D02*
G75*
G03*
X188553289Y-108433298I450516J-216877D01*
G01*
X188805547Y-108364999D02*
G75*
G03*
X188553289Y-108433298I3J-500009D01*
G01*
X187850516Y-107784720D02*
G75*
G03*
X187900001Y-107567843I-450505J216876D01*
G01*
X210349999Y-106162158D02*
X210349999Y-107567842D01*
X209444452Y-108364999D02*
X207855547Y-108364999D01*
X207855548Y-105365000D02*
X209444452Y-105365000D01*
X206950001Y-107567842D02*
X206950001Y-106162158D01*
X209696711Y-108433299D02*
G75*
G03*
X210399484Y-107784720I252258J431701D01*
G01*
X210399484Y-105945280D02*
G75*
G03*
X210349999Y-106162157I450505J-216876D01*
G01*
X206950001Y-106162158D02*
G75*
G03*
X206900516Y-105945280I-499990J2D01*
G01*
X210349999Y-107567842D02*
G75*
G03*
X210399484Y-107784720I499990J-2D01*
G01*
X206900515Y-107784720D02*
G75*
G03*
X207603289Y-108433298I450516J-216877D01*
G01*
X207603289Y-105296701D02*
G75*
G03*
X206900516Y-105945281I-252259J-431700D01*
G01*
X209696711Y-108433299D02*
G75*
G03*
X209444453Y-108365000I-252261J-431710D01*
G01*
X206900516Y-107784720D02*
G75*
G03*
X206950001Y-107567843I-450505J216876D01*
G01*
X207603289Y-105296701D02*
G75*
G03*
X207855548Y-105365000I252261J431710D01*
G01*
X210399484Y-105945280D02*
G75*
G03*
X209696711Y-105296703I-450515J216877D01*
G01*
X207855547Y-108364999D02*
G75*
G03*
X207603289Y-108433298I3J-500009D01*
G01*
X209444452Y-105365000D02*
G75*
G03*
X209696710Y-105296701I-3J500009D01*
G01*
X226000001Y-107567842D02*
X226000001Y-106162158D01*
X228494452Y-108364999D02*
X226905547Y-108364999D01*
X226905548Y-105365000D02*
X228494452Y-105365000D01*
X229399999Y-106162158D02*
X229399999Y-107567842D01*
X225950515Y-107784720D02*
G75*
G03*
X226653289Y-108433298I450516J-216877D01*
G01*
X229449484Y-105945280D02*
G75*
G03*
X229399999Y-106162157I450505J-216876D01*
G01*
X226905547Y-108364999D02*
G75*
G03*
X226653289Y-108433298I3J-500009D01*
G01*
X226653289Y-105296701D02*
G75*
G03*
X226905548Y-105365000I252261J431710D01*
G01*
X226653289Y-105296701D02*
G75*
G03*
X225950516Y-105945281I-252259J-431700D01*
G01*
X228494452Y-105365000D02*
G75*
G03*
X228746710Y-105296701I-3J500009D01*
G01*
X228746711Y-108433299D02*
G75*
G03*
X229449484Y-107784720I252258J431701D01*
G01*
X225950516Y-107784720D02*
G75*
G03*
X226000001Y-107567843I-450505J216876D01*
G01*
X229399999Y-107567842D02*
G75*
G03*
X229449484Y-107784720I499990J-2D01*
G01*
X228746711Y-108433299D02*
G75*
G03*
X228494453Y-108365000I-252261J-431710D01*
G01*
X229449484Y-105945280D02*
G75*
G03*
X228746711Y-105296703I-450515J216877D01*
G01*
X226000001Y-106162158D02*
G75*
G03*
X225950516Y-105945280I-499990J2D01*
G01*
X257069452Y-108364999D02*
X255480547Y-108364999D01*
X254575001Y-107567842D02*
X254575001Y-106162158D01*
X257974999Y-106162158D02*
X257974999Y-107567842D01*
X255480548Y-105365000D02*
X257069452Y-105365000D01*
X255228289Y-105296701D02*
G75*
G03*
X254525516Y-105945281I-252259J-431700D01*
G01*
X257321711Y-108433299D02*
G75*
G03*
X258024484Y-107784720I252258J431701D01*
G01*
X254575001Y-106162158D02*
G75*
G03*
X254525516Y-105945280I-499990J2D01*
G01*
X258024484Y-105945280D02*
G75*
G03*
X257321711Y-105296703I-450515J216877D01*
G01*
X257321711Y-108433299D02*
G75*
G03*
X257069453Y-108365000I-252261J-431710D01*
G01*
X255228289Y-105296701D02*
G75*
G03*
X255480548Y-105365000I252261J431710D01*
G01*
X257069452Y-105365000D02*
G75*
G03*
X257321710Y-105296701I-3J500009D01*
G01*
X255480547Y-108364999D02*
G75*
G03*
X255228289Y-108433298I3J-500009D01*
G01*
X258024484Y-105945280D02*
G75*
G03*
X257974999Y-106162157I450505J-216876D01*
G01*
X254525516Y-107784720D02*
G75*
G03*
X254575001Y-107567843I-450505J216876D01*
G01*
X254525515Y-107784720D02*
G75*
G03*
X255228289Y-108433298I450516J-216877D01*
G01*
X257974999Y-107567842D02*
G75*
G03*
X258024484Y-107784720I499990J-2D01*
G01*
X273625001Y-107567842D02*
X273625001Y-106162158D01*
X276119452Y-108364999D02*
X274530547Y-108364999D01*
X274530548Y-105365000D02*
X276119452Y-105365000D01*
X277024999Y-106162158D02*
X277024999Y-107567842D01*
X273625001Y-106162158D02*
G75*
G03*
X273575516Y-105945280I-499990J2D01*
G01*
X273575516Y-107784720D02*
G75*
G03*
X273625001Y-107567843I-450505J216876D01*
G01*
X274278289Y-105296701D02*
G75*
G03*
X274530548Y-105365000I252261J431710D01*
G01*
X277074484Y-105945280D02*
G75*
G03*
X276371711Y-105296703I-450515J216877D01*
G01*
X277024999Y-107567842D02*
G75*
G03*
X277074484Y-107784720I499990J-2D01*
G01*
X276371711Y-108433299D02*
G75*
G03*
X276119453Y-108365000I-252261J-431710D01*
G01*
X273575515Y-107784720D02*
G75*
G03*
X274278289Y-108433298I450516J-216877D01*
G01*
X274278289Y-105296701D02*
G75*
G03*
X273575516Y-105945281I-252259J-431700D01*
G01*
X276371711Y-108433299D02*
G75*
G03*
X277074484Y-107784720I252258J431701D01*
G01*
X276119452Y-105365000D02*
G75*
G03*
X276371710Y-105296701I-3J500009D01*
G01*
X274530547Y-108364999D02*
G75*
G03*
X274278289Y-108433298I3J-500009D01*
G01*
X277074484Y-105945280D02*
G75*
G03*
X277024999Y-106162157I450505J-216876D01*
G01*
X295169452Y-108364999D02*
X293580547Y-108364999D01*
X296074999Y-106162158D02*
X296074999Y-107567842D01*
X293580548Y-105365000D02*
X295169452Y-105365000D01*
X292675001Y-107567842D02*
X292675001Y-106162158D01*
X293580547Y-108364999D02*
G75*
G03*
X293328289Y-108433298I3J-500009D01*
G01*
X296074999Y-107567842D02*
G75*
G03*
X296124484Y-107784720I499990J-2D01*
G01*
X292675001Y-106162158D02*
G75*
G03*
X292625516Y-105945280I-499990J2D01*
G01*
X292625515Y-107784720D02*
G75*
G03*
X293328289Y-108433298I450516J-216877D01*
G01*
X293328289Y-105296701D02*
G75*
G03*
X292625516Y-105945281I-252259J-431700D01*
G01*
X296124484Y-105945280D02*
G75*
G03*
X296074999Y-106162157I450505J-216876D01*
G01*
X295421711Y-108433299D02*
G75*
G03*
X295169453Y-108365000I-252261J-431710D01*
G01*
X296124484Y-105945280D02*
G75*
G03*
X295421711Y-105296703I-450515J216877D01*
G01*
X292625516Y-107784720D02*
G75*
G03*
X292675001Y-107567843I-450505J216876D01*
G01*
X295421711Y-108433299D02*
G75*
G03*
X296124484Y-107784720I252258J431701D01*
G01*
X295169452Y-105365000D02*
G75*
G03*
X295421710Y-105296701I-3J500009D01*
G01*
X293328289Y-105296701D02*
G75*
G03*
X293580548Y-105365000I252261J431710D01*
G01*
X314219452Y-108364999D02*
X312630547Y-108364999D01*
X315124999Y-106162158D02*
X315124999Y-107567842D01*
X311725001Y-107567842D02*
X311725001Y-106162158D01*
X312630548Y-105365000D02*
X314219452Y-105365000D01*
X315174484Y-105945280D02*
G75*
G03*
X315124999Y-106162157I450505J-216876D01*
G01*
X311675515Y-107784720D02*
G75*
G03*
X312378289Y-108433298I450516J-216877D01*
G01*
X314471711Y-108433299D02*
G75*
G03*
X315174484Y-107784720I252258J431701D01*
G01*
X314471711Y-108433299D02*
G75*
G03*
X314219453Y-108365000I-252261J-431710D01*
G01*
X315174484Y-105945280D02*
G75*
G03*
X314471711Y-105296703I-450515J216877D01*
G01*
X311725001Y-106162158D02*
G75*
G03*
X311675516Y-105945280I-499990J2D01*
G01*
X311675516Y-107784720D02*
G75*
G03*
X311725001Y-107567843I-450505J216876D01*
G01*
X312630547Y-108364999D02*
G75*
G03*
X312378289Y-108433298I3J-500009D01*
G01*
X315124999Y-107567842D02*
G75*
G03*
X315174484Y-107784720I499990J-2D01*
G01*
X312378289Y-105296701D02*
G75*
G03*
X312630548Y-105365000I252261J431710D01*
G01*
X312378289Y-105296701D02*
G75*
G03*
X311675516Y-105945281I-252259J-431700D01*
G01*
X314219452Y-105365000D02*
G75*
G03*
X314471710Y-105296701I-3J500009D01*
G01*
X336443048Y-105365000D02*
X338031952Y-105365000D01*
X335537501Y-107567842D02*
X335537501Y-106162158D01*
X338937499Y-106162158D02*
X338937499Y-107567842D01*
X338031952Y-108364999D02*
X336443047Y-108364999D01*
X338986984Y-105945280D02*
G75*
G03*
X338284211Y-105296703I-450515J216877D01*
G01*
X338284211Y-108433299D02*
G75*
G03*
X338031953Y-108365000I-252261J-431710D01*
G01*
X336190789Y-105296701D02*
G75*
G03*
X335488016Y-105945281I-252259J-431700D01*
G01*
X336190789Y-105296701D02*
G75*
G03*
X336443048Y-105365000I252261J431710D01*
G01*
X338986984Y-105945280D02*
G75*
G03*
X338937499Y-106162157I450505J-216876D01*
G01*
X338284211Y-108433299D02*
G75*
G03*
X338986984Y-107784720I252258J431701D01*
G01*
X338031952Y-105365000D02*
G75*
G03*
X338284210Y-105296701I-3J500009D01*
G01*
X336443047Y-108364999D02*
G75*
G03*
X336190789Y-108433298I3J-500009D01*
G01*
X335488016Y-107784720D02*
G75*
G03*
X335537501Y-107567843I-450505J216876D01*
G01*
X338937499Y-107567842D02*
G75*
G03*
X338986984Y-107784720I499990J-2D01*
G01*
X335488015Y-107784720D02*
G75*
G03*
X336190789Y-108433298I450516J-216877D01*
G01*
X335537501Y-106162158D02*
G75*
G03*
X335488016Y-105945280I-499990J2D01*
G01*
X357987499Y-106162158D02*
X357987499Y-107567842D01*
X355493048Y-105365000D02*
X357081952Y-105365000D01*
X357081952Y-108364999D02*
X355493047Y-108364999D01*
X354587501Y-107567842D02*
X354587501Y-106162158D01*
X357334211Y-108433299D02*
G75*
G03*
X358036984Y-107784720I252258J431701D01*
G01*
X357987499Y-107567842D02*
G75*
G03*
X358036984Y-107784720I499990J-2D01*
G01*
X355240789Y-105296701D02*
G75*
G03*
X354538016Y-105945281I-252259J-431700D01*
G01*
X354538015Y-107784720D02*
G75*
G03*
X355240789Y-108433298I450516J-216877D01*
G01*
X357334211Y-108433299D02*
G75*
G03*
X357081953Y-108365000I-252261J-431710D01*
G01*
X358036984Y-105945280D02*
G75*
G03*
X357987499Y-106162157I450505J-216876D01*
G01*
X354538016Y-107784720D02*
G75*
G03*
X354587501Y-107567843I-450505J216876D01*
G01*
X357081952Y-105365000D02*
G75*
G03*
X357334210Y-105296701I-3J500009D01*
G01*
X354587501Y-106162158D02*
G75*
G03*
X354538016Y-105945280I-499990J2D01*
G01*
X355240789Y-105296701D02*
G75*
G03*
X355493048Y-105365000I252261J431710D01*
G01*
X358036984Y-105945280D02*
G75*
G03*
X357334211Y-105296703I-450515J216877D01*
G01*
X355493047Y-108364999D02*
G75*
G03*
X355240789Y-108433298I3J-500009D01*
G01*
X377037499Y-106162158D02*
X377037499Y-107567842D01*
X374543048Y-105365000D02*
X376131952Y-105365000D01*
X376131952Y-108364999D02*
X374543047Y-108364999D01*
X373637501Y-107567842D02*
X373637501Y-106162158D01*
X376384211Y-108433299D02*
G75*
G03*
X377086984Y-107784720I252258J431701D01*
G01*
X376131952Y-105365000D02*
G75*
G03*
X376384210Y-105296701I-3J500009D01*
G01*
X374543047Y-108364999D02*
G75*
G03*
X374290789Y-108433298I3J-500009D01*
G01*
X377086984Y-105945280D02*
G75*
G03*
X376384211Y-105296703I-450515J216877D01*
G01*
X373588015Y-107784720D02*
G75*
G03*
X374290789Y-108433298I450516J-216877D01*
G01*
X377086984Y-105945280D02*
G75*
G03*
X377037499Y-106162157I450505J-216876D01*
G01*
X376384211Y-108433299D02*
G75*
G03*
X376131953Y-108365000I-252261J-431710D01*
G01*
X374290789Y-105296701D02*
G75*
G03*
X374543048Y-105365000I252261J431710D01*
G01*
X373637501Y-106162158D02*
G75*
G03*
X373588016Y-105945280I-499990J2D01*
G01*
X377037499Y-107567842D02*
G75*
G03*
X377086984Y-107784720I499990J-2D01*
G01*
X373588016Y-107784720D02*
G75*
G03*
X373637501Y-107567843I-450505J216876D01*
G01*
X374290789Y-105296701D02*
G75*
G03*
X373588016Y-105945281I-252259J-431700D01*
G01*
X48424999Y-134737158D02*
X48424999Y-136142842D01*
X45930548Y-133940000D02*
X47519452Y-133940000D01*
X45025001Y-136142842D02*
X45025001Y-134737158D01*
X47519452Y-136939999D02*
X45930547Y-136939999D01*
X45678289Y-133871701D02*
G75*
G03*
X44975516Y-134520281I-252259J-431700D01*
G01*
X44975515Y-136359720D02*
G75*
G03*
X45678289Y-137008298I450516J-216877D01*
G01*
X47771711Y-137008299D02*
G75*
G03*
X48474484Y-136359720I252258J431701D01*
G01*
X44975516Y-136359720D02*
G75*
G03*
X45025001Y-136142843I-450505J216876D01*
G01*
X45678289Y-133871701D02*
G75*
G03*
X45930548Y-133940000I252261J431710D01*
G01*
X48474484Y-134520280D02*
G75*
G03*
X48424999Y-134737157I450505J-216876D01*
G01*
X48474484Y-134520280D02*
G75*
G03*
X47771711Y-133871703I-450515J216877D01*
G01*
X48424999Y-136142842D02*
G75*
G03*
X48474484Y-136359720I499990J-2D01*
G01*
X47519452Y-133940000D02*
G75*
G03*
X47771710Y-133871701I-3J500009D01*
G01*
X45930547Y-136939999D02*
G75*
G03*
X45678289Y-137008298I3J-500009D01*
G01*
X45025001Y-134737158D02*
G75*
G03*
X44975516Y-134520280I-499990J2D01*
G01*
X47771711Y-137008299D02*
G75*
G03*
X47519453Y-136940000I-252261J-431710D01*
G01*
X66569452Y-136939999D02*
X64980547Y-136939999D01*
X64075001Y-136142842D02*
X64075001Y-134737158D01*
X64980548Y-133940000D02*
X66569452Y-133940000D01*
X67474999Y-134737158D02*
X67474999Y-136142842D01*
X67524484Y-134520280D02*
G75*
G03*
X66821711Y-133871703I-450515J216877D01*
G01*
X64728289Y-133871701D02*
G75*
G03*
X64025516Y-134520281I-252259J-431700D01*
G01*
X67474999Y-136142842D02*
G75*
G03*
X67524484Y-136359720I499990J-2D01*
G01*
X66569452Y-133940000D02*
G75*
G03*
X66821710Y-133871701I-3J500009D01*
G01*
X64980547Y-136939999D02*
G75*
G03*
X64728289Y-137008298I3J-500009D01*
G01*
X64075001Y-134737158D02*
G75*
G03*
X64025516Y-134520280I-499990J2D01*
G01*
X64728289Y-133871701D02*
G75*
G03*
X64980548Y-133940000I252261J431710D01*
G01*
X66821711Y-137008299D02*
G75*
G03*
X66569453Y-136940000I-252261J-431710D01*
G01*
X66821711Y-137008299D02*
G75*
G03*
X67524484Y-136359720I252258J431701D01*
G01*
X64025516Y-136359720D02*
G75*
G03*
X64075001Y-136142843I-450505J216876D01*
G01*
X64025515Y-136359720D02*
G75*
G03*
X64728289Y-137008298I450516J-216877D01*
G01*
X67524484Y-134520280D02*
G75*
G03*
X67474999Y-134737157I450505J-216876D01*
G01*
X84030548Y-133940000D02*
X85619452Y-133940000D01*
X83125001Y-136142842D02*
X83125001Y-134737158D01*
X86524999Y-134737158D02*
X86524999Y-136142842D01*
X85619452Y-136939999D02*
X84030547Y-136939999D01*
X83778289Y-133871701D02*
G75*
G03*
X83075516Y-134520281I-252259J-431700D01*
G01*
X86524999Y-136142842D02*
G75*
G03*
X86574484Y-136359720I499990J-2D01*
G01*
X85619452Y-133940000D02*
G75*
G03*
X85871710Y-133871701I-3J500009D01*
G01*
X83075515Y-136359720D02*
G75*
G03*
X83778289Y-137008298I450516J-216877D01*
G01*
X85871711Y-137008299D02*
G75*
G03*
X86574484Y-136359720I252258J431701D01*
G01*
X83075516Y-136359720D02*
G75*
G03*
X83125001Y-136142843I-450505J216876D01*
G01*
X86574484Y-134520280D02*
G75*
G03*
X85871711Y-133871703I-450515J216877D01*
G01*
X85871711Y-137008299D02*
G75*
G03*
X85619453Y-136940000I-252261J-431710D01*
G01*
X86574484Y-134520280D02*
G75*
G03*
X86524999Y-134737157I450505J-216876D01*
G01*
X84030547Y-136939999D02*
G75*
G03*
X83778289Y-137008298I3J-500009D01*
G01*
X83778289Y-133871701D02*
G75*
G03*
X84030548Y-133940000I252261J431710D01*
G01*
X83125001Y-134737158D02*
G75*
G03*
X83075516Y-134520280I-499990J2D01*
G01*
X105574999Y-134737158D02*
X105574999Y-136142842D01*
X104669452Y-136939999D02*
X103080547Y-136939999D01*
X102175001Y-136142842D02*
X102175001Y-134737158D01*
X103080548Y-133940000D02*
X104669452Y-133940000D01*
X102175001Y-134737158D02*
G75*
G03*
X102125516Y-134520280I-499990J2D01*
G01*
X102125516Y-136359720D02*
G75*
G03*
X102175001Y-136142843I-450505J216876D01*
G01*
X103080547Y-136939999D02*
G75*
G03*
X102828289Y-137008298I3J-500009D01*
G01*
X102828289Y-133871701D02*
G75*
G03*
X102125516Y-134520281I-252259J-431700D01*
G01*
X104669452Y-133940000D02*
G75*
G03*
X104921710Y-133871701I-3J500009D01*
G01*
X104921711Y-137008299D02*
G75*
G03*
X104669453Y-136940000I-252261J-431710D01*
G01*
X102828289Y-133871701D02*
G75*
G03*
X103080548Y-133940000I252261J431710D01*
G01*
X104921711Y-137008299D02*
G75*
G03*
X105624484Y-136359720I252258J431701D01*
G01*
X105574999Y-136142842D02*
G75*
G03*
X105624484Y-136359720I499990J-2D01*
G01*
X102125515Y-136359720D02*
G75*
G03*
X102828289Y-137008298I450516J-216877D01*
G01*
X105624484Y-134520280D02*
G75*
G03*
X105574999Y-134737157I450505J-216876D01*
G01*
X105624484Y-134520280D02*
G75*
G03*
X104921711Y-133871703I-450515J216877D01*
G01*
X121225001Y-136142842D02*
X121225001Y-134737158D01*
X122130548Y-133940000D02*
X123719452Y-133940000D01*
X124624999Y-134737158D02*
X124624999Y-136142842D01*
X123719452Y-136939999D02*
X122130547Y-136939999D01*
X124674484Y-134520280D02*
G75*
G03*
X123971711Y-133871703I-450515J216877D01*
G01*
X121175516Y-136359720D02*
G75*
G03*
X121225001Y-136142843I-450505J216876D01*
G01*
X123971711Y-137008299D02*
G75*
G03*
X123719453Y-136940000I-252261J-431710D01*
G01*
X121175515Y-136359720D02*
G75*
G03*
X121878289Y-137008298I450516J-216877D01*
G01*
X122130547Y-136939999D02*
G75*
G03*
X121878289Y-137008298I3J-500009D01*
G01*
X121878289Y-133871701D02*
G75*
G03*
X122130548Y-133940000I252261J431710D01*
G01*
X124674484Y-134520280D02*
G75*
G03*
X124624999Y-134737157I450505J-216876D01*
G01*
X123719452Y-133940000D02*
G75*
G03*
X123971710Y-133871701I-3J500009D01*
G01*
X121225001Y-134737158D02*
G75*
G03*
X121175516Y-134520280I-499990J2D01*
G01*
X124624999Y-136142842D02*
G75*
G03*
X124674484Y-136359720I499990J-2D01*
G01*
X123971711Y-137008299D02*
G75*
G03*
X124674484Y-136359720I252258J431701D01*
G01*
X121878289Y-133871701D02*
G75*
G03*
X121175516Y-134520281I-252259J-431700D01*
G01*
X142769452Y-136939999D02*
X141180547Y-136939999D01*
X143674999Y-134737158D02*
X143674999Y-136142842D01*
X141180548Y-133940000D02*
X142769452Y-133940000D01*
X140275001Y-136142842D02*
X140275001Y-134737158D01*
X140928289Y-133871701D02*
G75*
G03*
X141180548Y-133940000I252261J431710D01*
G01*
X143724484Y-134520280D02*
G75*
G03*
X143674999Y-134737157I450505J-216876D01*
G01*
X143021711Y-137008299D02*
G75*
G03*
X143724484Y-136359720I252258J431701D01*
G01*
X140225515Y-136359720D02*
G75*
G03*
X140928289Y-137008298I450516J-216877D01*
G01*
X142769452Y-133940000D02*
G75*
G03*
X143021710Y-133871701I-3J500009D01*
G01*
X143724484Y-134520280D02*
G75*
G03*
X143021711Y-133871703I-450515J216877D01*
G01*
X143021711Y-137008299D02*
G75*
G03*
X142769453Y-136940000I-252261J-431710D01*
G01*
X141180547Y-136939999D02*
G75*
G03*
X140928289Y-137008298I3J-500009D01*
G01*
X140928289Y-133871701D02*
G75*
G03*
X140225516Y-134520281I-252259J-431700D01*
G01*
X140275001Y-134737158D02*
G75*
G03*
X140225516Y-134520280I-499990J2D01*
G01*
X143674999Y-136142842D02*
G75*
G03*
X143724484Y-136359720I499990J-2D01*
G01*
X140225516Y-136359720D02*
G75*
G03*
X140275001Y-136142843I-450505J216876D01*
G01*
X160230548Y-133940000D02*
X161819452Y-133940000D01*
X162724999Y-134737158D02*
X162724999Y-136142842D01*
X161819452Y-136939999D02*
X160230547Y-136939999D01*
X159325001Y-136142842D02*
X159325001Y-134737158D01*
X162071711Y-137008299D02*
G75*
G03*
X162774484Y-136359720I252258J431701D01*
G01*
X159978289Y-133871701D02*
G75*
G03*
X159275516Y-134520281I-252259J-431700D01*
G01*
X162724999Y-136142842D02*
G75*
G03*
X162774484Y-136359720I499990J-2D01*
G01*
X161819452Y-133940000D02*
G75*
G03*
X162071710Y-133871701I-3J500009D01*
G01*
X159275516Y-136359720D02*
G75*
G03*
X159325001Y-136142843I-450505J216876D01*
G01*
X162774484Y-134520280D02*
G75*
G03*
X162071711Y-133871703I-450515J216877D01*
G01*
X160230547Y-136939999D02*
G75*
G03*
X159978289Y-137008298I3J-500009D01*
G01*
X162774484Y-134520280D02*
G75*
G03*
X162724999Y-134737157I450505J-216876D01*
G01*
X162071711Y-137008299D02*
G75*
G03*
X161819453Y-136940000I-252261J-431710D01*
G01*
X159325001Y-134737158D02*
G75*
G03*
X159275516Y-134520280I-499990J2D01*
G01*
X159275515Y-136359720D02*
G75*
G03*
X159978289Y-137008298I450516J-216877D01*
G01*
X159978289Y-133871701D02*
G75*
G03*
X160230548Y-133940000I252261J431710D01*
G01*
X181774999Y-134737158D02*
X181774999Y-136142842D01*
X178375001Y-136142842D02*
X178375001Y-134737158D01*
X180869452Y-136939999D02*
X179280547Y-136939999D01*
X179280548Y-133940000D02*
X180869452Y-133940000D01*
X181121711Y-137008299D02*
G75*
G03*
X180869453Y-136940000I-252261J-431710D01*
G01*
X179028289Y-133871701D02*
G75*
G03*
X179280548Y-133940000I252261J431710D01*
G01*
X181824484Y-134520280D02*
G75*
G03*
X181121711Y-133871703I-450515J216877D01*
G01*
X181121711Y-137008299D02*
G75*
G03*
X181824484Y-136359720I252258J431701D01*
G01*
X181774999Y-136142842D02*
G75*
G03*
X181824484Y-136359720I499990J-2D01*
G01*
X180869452Y-133940000D02*
G75*
G03*
X181121710Y-133871701I-3J500009D01*
G01*
X178325516Y-136359720D02*
G75*
G03*
X178375001Y-136142843I-450505J216876D01*
G01*
X178375001Y-134737158D02*
G75*
G03*
X178325516Y-134520280I-499990J2D01*
G01*
X181824484Y-134520280D02*
G75*
G03*
X181774999Y-134737157I450505J-216876D01*
G01*
X179280547Y-136939999D02*
G75*
G03*
X179028289Y-137008298I3J-500009D01*
G01*
X178325515Y-136359720D02*
G75*
G03*
X179028289Y-137008298I450516J-216877D01*
G01*
X179028289Y-133871701D02*
G75*
G03*
X178325516Y-134520281I-252259J-431700D01*
G01*
X197425001Y-136142842D02*
X197425001Y-134737158D01*
X199919452Y-136939999D02*
X198330547Y-136939999D01*
X200824999Y-134737158D02*
X200824999Y-136142842D01*
X198330548Y-133940000D02*
X199919452Y-133940000D01*
X197375515Y-136359720D02*
G75*
G03*
X198078289Y-137008298I450516J-216877D01*
G01*
X198078289Y-133871701D02*
G75*
G03*
X198330548Y-133940000I252261J431710D01*
G01*
X200171711Y-137008299D02*
G75*
G03*
X199919453Y-136940000I-252261J-431710D01*
G01*
X200824999Y-136142842D02*
G75*
G03*
X200874484Y-136359720I499990J-2D01*
G01*
X198330547Y-136939999D02*
G75*
G03*
X198078289Y-137008298I3J-500009D01*
G01*
X200171711Y-137008299D02*
G75*
G03*
X200874484Y-136359720I252258J431701D01*
G01*
X200874484Y-134520280D02*
G75*
G03*
X200824999Y-134737157I450505J-216876D01*
G01*
X198078289Y-133871701D02*
G75*
G03*
X197375516Y-134520281I-252259J-431700D01*
G01*
X199919452Y-133940000D02*
G75*
G03*
X200171710Y-133871701I-3J500009D01*
G01*
X200874484Y-134520280D02*
G75*
G03*
X200171711Y-133871703I-450515J216877D01*
G01*
X197375516Y-136359720D02*
G75*
G03*
X197425001Y-136142843I-450505J216876D01*
G01*
X197425001Y-134737158D02*
G75*
G03*
X197375516Y-134520280I-499990J2D01*
G01*
X218969452Y-136939999D02*
X217380547Y-136939999D01*
X216475001Y-136142842D02*
X216475001Y-134737158D01*
X217380548Y-133940000D02*
X218969452Y-133940000D01*
X219874999Y-134737158D02*
X219874999Y-136142842D01*
X218969452Y-133940000D02*
G75*
G03*
X219221710Y-133871701I-3J500009D01*
G01*
X217380547Y-136939999D02*
G75*
G03*
X217128289Y-137008298I3J-500009D01*
G01*
X217128289Y-133871701D02*
G75*
G03*
X216425516Y-134520281I-252259J-431700D01*
G01*
X219874999Y-136142842D02*
G75*
G03*
X219924484Y-136359720I499990J-2D01*
G01*
X216475001Y-134737158D02*
G75*
G03*
X216425516Y-134520280I-499990J2D01*
G01*
X219924484Y-134520280D02*
G75*
G03*
X219874999Y-134737157I450505J-216876D01*
G01*
X219221711Y-137008299D02*
G75*
G03*
X218969453Y-136940000I-252261J-431710D01*
G01*
X217128289Y-133871701D02*
G75*
G03*
X217380548Y-133940000I252261J431710D01*
G01*
X216425516Y-136359720D02*
G75*
G03*
X216475001Y-136142843I-450505J216876D01*
G01*
X219924484Y-134520280D02*
G75*
G03*
X219221711Y-133871703I-450515J216877D01*
G01*
X216425515Y-136359720D02*
G75*
G03*
X217128289Y-137008298I450516J-216877D01*
G01*
X219221711Y-137008299D02*
G75*
G03*
X219924484Y-136359720I252258J431701D01*
G01*
X235525001Y-136142842D02*
X235525001Y-134737158D01*
X238019452Y-136939999D02*
X236430547Y-136939999D01*
X236430548Y-133940000D02*
X238019452Y-133940000D01*
X238924999Y-134737158D02*
X238924999Y-136142842D01*
X238271711Y-137008299D02*
G75*
G03*
X238019453Y-136940000I-252261J-431710D01*
G01*
X238271711Y-137008299D02*
G75*
G03*
X238974484Y-136359720I252258J431701D01*
G01*
X238974484Y-134520280D02*
G75*
G03*
X238924999Y-134737157I450505J-216876D01*
G01*
X235525001Y-134737158D02*
G75*
G03*
X235475516Y-134520280I-499990J2D01*
G01*
X235475516Y-136359720D02*
G75*
G03*
X235525001Y-136142843I-450505J216876D01*
G01*
X236178289Y-133871701D02*
G75*
G03*
X236430548Y-133940000I252261J431710D01*
G01*
X238019452Y-133940000D02*
G75*
G03*
X238271710Y-133871701I-3J500009D01*
G01*
X235475515Y-136359720D02*
G75*
G03*
X236178289Y-137008298I450516J-216877D01*
G01*
X238974484Y-134520280D02*
G75*
G03*
X238271711Y-133871703I-450515J216877D01*
G01*
X238924999Y-136142842D02*
G75*
G03*
X238974484Y-136359720I499990J-2D01*
G01*
X236430547Y-136939999D02*
G75*
G03*
X236178289Y-137008298I3J-500009D01*
G01*
X236178289Y-133871701D02*
G75*
G03*
X235475516Y-134520281I-252259J-431700D01*
G01*
X255480548Y-133940000D02*
X257069452Y-133940000D01*
X254575001Y-136142842D02*
X254575001Y-134737158D01*
X257974999Y-134737158D02*
X257974999Y-136142842D01*
X257069452Y-136939999D02*
X255480547Y-136939999D01*
X258024484Y-134520280D02*
G75*
G03*
X257321711Y-133871703I-450515J216877D01*
G01*
X258024484Y-134520280D02*
G75*
G03*
X257974999Y-134737157I450505J-216876D01*
G01*
X255228289Y-133871701D02*
G75*
G03*
X254525516Y-134520281I-252259J-431700D01*
G01*
X254525516Y-136359720D02*
G75*
G03*
X254575001Y-136142843I-450505J216876D01*
G01*
X255228289Y-133871701D02*
G75*
G03*
X255480548Y-133940000I252261J431710D01*
G01*
X254525515Y-136359720D02*
G75*
G03*
X255228289Y-137008298I450516J-216877D01*
G01*
X257974999Y-136142842D02*
G75*
G03*
X258024484Y-136359720I499990J-2D01*
G01*
X255480547Y-136939999D02*
G75*
G03*
X255228289Y-137008298I3J-500009D01*
G01*
X257321711Y-137008299D02*
G75*
G03*
X258024484Y-136359720I252258J431701D01*
G01*
X254575001Y-134737158D02*
G75*
G03*
X254525516Y-134520280I-499990J2D01*
G01*
X257321711Y-137008299D02*
G75*
G03*
X257069453Y-136940000I-252261J-431710D01*
G01*
X257069452Y-133940000D02*
G75*
G03*
X257321710Y-133871701I-3J500009D01*
G01*
X273625001Y-136142842D02*
X273625001Y-134737158D01*
X276119452Y-136939999D02*
X274530547Y-136939999D01*
X274530548Y-133940000D02*
X276119452Y-133940000D01*
X277024999Y-134737158D02*
X277024999Y-136142842D01*
X277074484Y-134520280D02*
G75*
G03*
X276371711Y-133871703I-450515J216877D01*
G01*
X276371711Y-137008299D02*
G75*
G03*
X277074484Y-136359720I252258J431701D01*
G01*
X276119452Y-133940000D02*
G75*
G03*
X276371710Y-133871701I-3J500009D01*
G01*
X273575516Y-136359720D02*
G75*
G03*
X273625001Y-136142843I-450505J216876D01*
G01*
X274278289Y-133871701D02*
G75*
G03*
X274530548Y-133940000I252261J431710D01*
G01*
X277074484Y-134520280D02*
G75*
G03*
X277024999Y-134737157I450505J-216876D01*
G01*
X273625001Y-134737158D02*
G75*
G03*
X273575516Y-134520280I-499990J2D01*
G01*
X274530547Y-136939999D02*
G75*
G03*
X274278289Y-137008298I3J-500009D01*
G01*
X273575515Y-136359720D02*
G75*
G03*
X274278289Y-137008298I450516J-216877D01*
G01*
X277024999Y-136142842D02*
G75*
G03*
X277074484Y-136359720I499990J-2D01*
G01*
X274278289Y-133871701D02*
G75*
G03*
X273575516Y-134520281I-252259J-431700D01*
G01*
X276371711Y-137008299D02*
G75*
G03*
X276119453Y-136940000I-252261J-431710D01*
G01*
X305599999Y-134737158D02*
X305599999Y-136142842D01*
X303105548Y-133940000D02*
X304694452Y-133940000D01*
X304694452Y-136939999D02*
X303105547Y-136939999D01*
X302200001Y-136142842D02*
X302200001Y-134737158D01*
X302200001Y-134737158D02*
G75*
G03*
X302150516Y-134520280I-499990J2D01*
G01*
X303105547Y-136939999D02*
G75*
G03*
X302853289Y-137008298I3J-500009D01*
G01*
X302150516Y-136359720D02*
G75*
G03*
X302200001Y-136142843I-450505J216876D01*
G01*
X305599999Y-136142842D02*
G75*
G03*
X305649484Y-136359720I499990J-2D01*
G01*
X304694452Y-133940000D02*
G75*
G03*
X304946710Y-133871701I-3J500009D01*
G01*
X305649484Y-134520280D02*
G75*
G03*
X304946711Y-133871703I-450515J216877D01*
G01*
X305649484Y-134520280D02*
G75*
G03*
X305599999Y-134737157I450505J-216876D01*
G01*
X302150515Y-136359720D02*
G75*
G03*
X302853289Y-137008298I450516J-216877D01*
G01*
X302853289Y-133871701D02*
G75*
G03*
X303105548Y-133940000I252261J431710D01*
G01*
X304946711Y-137008299D02*
G75*
G03*
X305649484Y-136359720I252258J431701D01*
G01*
X302853289Y-133871701D02*
G75*
G03*
X302150516Y-134520281I-252259J-431700D01*
G01*
X304946711Y-137008299D02*
G75*
G03*
X304694453Y-136940000I-252261J-431710D01*
G01*
X338937499Y-134737158D02*
X338937499Y-136142842D01*
X338031952Y-136939999D02*
X336443047Y-136939999D01*
X335537501Y-136142842D02*
X335537501Y-134737158D01*
X336443048Y-133940000D02*
X338031952Y-133940000D01*
X338031952Y-133940000D02*
G75*
G03*
X338284210Y-133871701I-3J500009D01*
G01*
X335537501Y-134737158D02*
G75*
G03*
X335488016Y-134520280I-499990J2D01*
G01*
X335488015Y-136359720D02*
G75*
G03*
X336190789Y-137008298I450516J-216877D01*
G01*
X338284211Y-137008299D02*
G75*
G03*
X338031953Y-136940000I-252261J-431710D01*
G01*
X338937499Y-136142842D02*
G75*
G03*
X338986984Y-136359720I499990J-2D01*
G01*
X335488016Y-136359720D02*
G75*
G03*
X335537501Y-136142843I-450505J216876D01*
G01*
X338986984Y-134520280D02*
G75*
G03*
X338284211Y-133871703I-450515J216877D01*
G01*
X336190789Y-133871701D02*
G75*
G03*
X335488016Y-134520281I-252259J-431700D01*
G01*
X336190789Y-133871701D02*
G75*
G03*
X336443048Y-133940000I252261J431710D01*
G01*
X338986984Y-134520280D02*
G75*
G03*
X338937499Y-134737157I450505J-216876D01*
G01*
X338284211Y-137008299D02*
G75*
G03*
X338986984Y-136359720I252258J431701D01*
G01*
X336443047Y-136939999D02*
G75*
G03*
X336190789Y-137008298I3J-500009D01*
G01*
X357987499Y-134737158D02*
X357987499Y-136142842D01*
X355493048Y-133940000D02*
X357081952Y-133940000D01*
X357081952Y-136939999D02*
X355493047Y-136939999D01*
X354587501Y-136142842D02*
X354587501Y-134737158D01*
X354538015Y-136359720D02*
G75*
G03*
X355240789Y-137008298I450516J-216877D01*
G01*
X358036984Y-134520280D02*
G75*
G03*
X357987499Y-134737157I450505J-216876D01*
G01*
X357987499Y-136142842D02*
G75*
G03*
X358036984Y-136359720I499990J-2D01*
G01*
X357081952Y-133940000D02*
G75*
G03*
X357334210Y-133871701I-3J500009D01*
G01*
X357334211Y-137008299D02*
G75*
G03*
X357081953Y-136940000I-252261J-431710D01*
G01*
X355240789Y-133871701D02*
G75*
G03*
X354538016Y-134520281I-252259J-431700D01*
G01*
X354587501Y-134737158D02*
G75*
G03*
X354538016Y-134520280I-499990J2D01*
G01*
X357334211Y-137008299D02*
G75*
G03*
X358036984Y-136359720I252258J431701D01*
G01*
X354538016Y-136359720D02*
G75*
G03*
X354587501Y-136142843I-450505J216876D01*
G01*
X355493047Y-136939999D02*
G75*
G03*
X355240789Y-137008298I3J-500009D01*
G01*
X358036984Y-134520280D02*
G75*
G03*
X357334211Y-133871703I-450515J216877D01*
G01*
X355240789Y-133871701D02*
G75*
G03*
X355493048Y-133940000I252261J431710D01*
G01*
X374543048Y-133940000D02*
X376131952Y-133940000D01*
X376131952Y-136939999D02*
X374543047Y-136939999D01*
X373637501Y-136142842D02*
X373637501Y-134737158D01*
X377037499Y-134737158D02*
X377037499Y-136142842D01*
X377086984Y-134520280D02*
G75*
G03*
X377037499Y-134737157I450505J-216876D01*
G01*
X376384211Y-137008299D02*
G75*
G03*
X376131953Y-136940000I-252261J-431710D01*
G01*
X373588015Y-136359720D02*
G75*
G03*
X374290789Y-137008298I450516J-216877D01*
G01*
X376131952Y-133940000D02*
G75*
G03*
X376384210Y-133871701I-3J500009D01*
G01*
X374290789Y-133871701D02*
G75*
G03*
X374543048Y-133940000I252261J431710D01*
G01*
X377037499Y-136142842D02*
G75*
G03*
X377086984Y-136359720I499990J-2D01*
G01*
X373637501Y-134737158D02*
G75*
G03*
X373588016Y-134520280I-499990J2D01*
G01*
X374290789Y-133871701D02*
G75*
G03*
X373588016Y-134520281I-252259J-431700D01*
G01*
X373588016Y-136359720D02*
G75*
G03*
X373637501Y-136142843I-450505J216876D01*
G01*
X374543047Y-136939999D02*
G75*
G03*
X374290789Y-137008298I3J-500009D01*
G01*
X377086984Y-134520280D02*
G75*
G03*
X376384211Y-133871703I-450515J216877D01*
G01*
X376384211Y-137008299D02*
G75*
G03*
X377086984Y-136359720I252258J431701D01*
G01*
X50693048Y-152990000D02*
X52281952Y-152990000D01*
X49787501Y-155192842D02*
X49787501Y-153787158D01*
X53187499Y-153787158D02*
X53187499Y-155192842D01*
X52281952Y-155989999D02*
X50693047Y-155989999D01*
X53187499Y-155192842D02*
G75*
G03*
X53236984Y-155409720I499990J-2D01*
G01*
X49738016Y-155409720D02*
G75*
G03*
X49787501Y-155192843I-450505J216876D01*
G01*
X50693047Y-155989999D02*
G75*
G03*
X50440789Y-156058298I3J-500009D01*
G01*
X49787501Y-153787158D02*
G75*
G03*
X49738016Y-153570280I-499990J2D01*
G01*
X49738015Y-155409720D02*
G75*
G03*
X50440789Y-156058298I450516J-216877D01*
G01*
X52534211Y-156058299D02*
G75*
G03*
X52281953Y-155990000I-252261J-431710D01*
G01*
X53236984Y-153570280D02*
G75*
G03*
X52534211Y-152921703I-450515J216877D01*
G01*
X52534211Y-156058299D02*
G75*
G03*
X53236984Y-155409720I252258J431701D01*
G01*
X50440789Y-152921701D02*
G75*
G03*
X49738016Y-153570281I-252259J-431700D01*
G01*
X50440789Y-152921701D02*
G75*
G03*
X50693048Y-152990000I252261J431710D01*
G01*
X52281952Y-152990000D02*
G75*
G03*
X52534210Y-152921701I-3J500009D01*
G01*
X53236984Y-153570280D02*
G75*
G03*
X53187499Y-153787157I450505J-216876D01*
G01*
X74505548Y-152990000D02*
X76094452Y-152990000D01*
X76094452Y-155989999D02*
X74505547Y-155989999D01*
X73600001Y-155192842D02*
X73600001Y-153787158D01*
X76999999Y-153787158D02*
X76999999Y-155192842D01*
X74253289Y-152921701D02*
G75*
G03*
X74505548Y-152990000I252261J431710D01*
G01*
X74505547Y-155989999D02*
G75*
G03*
X74253289Y-156058298I3J-500009D01*
G01*
X76346711Y-156058299D02*
G75*
G03*
X76094453Y-155990000I-252261J-431710D01*
G01*
X74253289Y-152921701D02*
G75*
G03*
X73550516Y-153570281I-252259J-431700D01*
G01*
X73600001Y-153787158D02*
G75*
G03*
X73550516Y-153570280I-499990J2D01*
G01*
X76094452Y-152990000D02*
G75*
G03*
X76346710Y-152921701I-3J500009D01*
G01*
X76346711Y-156058299D02*
G75*
G03*
X77049484Y-155409720I252258J431701D01*
G01*
X76999999Y-155192842D02*
G75*
G03*
X77049484Y-155409720I499990J-2D01*
G01*
X77049484Y-153570280D02*
G75*
G03*
X76999999Y-153787157I450505J-216876D01*
G01*
X77049484Y-153570280D02*
G75*
G03*
X76346711Y-152921703I-450515J216877D01*
G01*
X73550516Y-155409720D02*
G75*
G03*
X73600001Y-155192843I-450505J216876D01*
G01*
X73550515Y-155409720D02*
G75*
G03*
X74253289Y-156058298I450516J-216877D01*
G01*
X93555548Y-152990000D02*
X95144452Y-152990000D01*
X96049999Y-153787158D02*
X96049999Y-155192842D01*
X95144452Y-155989999D02*
X93555547Y-155989999D01*
X92650001Y-155192842D02*
X92650001Y-153787158D01*
X96099484Y-153570280D02*
G75*
G03*
X96049999Y-153787157I450505J-216876D01*
G01*
X96049999Y-155192842D02*
G75*
G03*
X96099484Y-155409720I499990J-2D01*
G01*
X95396711Y-156058299D02*
G75*
G03*
X96099484Y-155409720I252258J431701D01*
G01*
X95144452Y-152990000D02*
G75*
G03*
X95396710Y-152921701I-3J500009D01*
G01*
X93303289Y-152921701D02*
G75*
G03*
X93555548Y-152990000I252261J431710D01*
G01*
X95396711Y-156058299D02*
G75*
G03*
X95144453Y-155990000I-252261J-431710D01*
G01*
X92600515Y-155409720D02*
G75*
G03*
X93303289Y-156058298I450516J-216877D01*
G01*
X92600516Y-155409720D02*
G75*
G03*
X92650001Y-155192843I-450505J216876D01*
G01*
X96099484Y-153570280D02*
G75*
G03*
X95396711Y-152921703I-450515J216877D01*
G01*
X93555547Y-155989999D02*
G75*
G03*
X93303289Y-156058298I3J-500009D01*
G01*
X93303289Y-152921701D02*
G75*
G03*
X92600516Y-153570281I-252259J-431700D01*
G01*
X92650001Y-153787158D02*
G75*
G03*
X92600516Y-153570280I-499990J2D01*
G01*
X115099999Y-153787158D02*
X115099999Y-155192842D01*
X111700001Y-155192842D02*
X111700001Y-153787158D01*
X114194452Y-155989999D02*
X112605547Y-155989999D01*
X112605548Y-152990000D02*
X114194452Y-152990000D01*
X115149484Y-153570280D02*
G75*
G03*
X114446711Y-152921703I-450515J216877D01*
G01*
X112605547Y-155989999D02*
G75*
G03*
X112353289Y-156058298I3J-500009D01*
G01*
X111700001Y-153787158D02*
G75*
G03*
X111650516Y-153570280I-499990J2D01*
G01*
X111650516Y-155409720D02*
G75*
G03*
X111700001Y-155192843I-450505J216876D01*
G01*
X115149484Y-153570280D02*
G75*
G03*
X115099999Y-153787157I450505J-216876D01*
G01*
X112353289Y-152921701D02*
G75*
G03*
X111650516Y-153570281I-252259J-431700D01*
G01*
X114446711Y-156058299D02*
G75*
G03*
X115149484Y-155409720I252258J431701D01*
G01*
X114446711Y-156058299D02*
G75*
G03*
X114194453Y-155990000I-252261J-431710D01*
G01*
X112353289Y-152921701D02*
G75*
G03*
X112605548Y-152990000I252261J431710D01*
G01*
X111650515Y-155409720D02*
G75*
G03*
X112353289Y-156058298I450516J-216877D01*
G01*
X115099999Y-155192842D02*
G75*
G03*
X115149484Y-155409720I499990J-2D01*
G01*
X114194452Y-152990000D02*
G75*
G03*
X114446710Y-152921701I-3J500009D01*
G01*
X131655548Y-152990000D02*
X133244452Y-152990000D01*
X134149999Y-153787158D02*
X134149999Y-155192842D01*
X130750001Y-155192842D02*
X130750001Y-153787158D01*
X133244452Y-155989999D02*
X131655547Y-155989999D01*
X134199484Y-153570280D02*
G75*
G03*
X134149999Y-153787157I450505J-216876D01*
G01*
X130700516Y-155409720D02*
G75*
G03*
X130750001Y-155192843I-450505J216876D01*
G01*
X133496711Y-156058299D02*
G75*
G03*
X133244453Y-155990000I-252261J-431710D01*
G01*
X134199484Y-153570280D02*
G75*
G03*
X133496711Y-152921703I-450515J216877D01*
G01*
X131403289Y-152921701D02*
G75*
G03*
X131655548Y-152990000I252261J431710D01*
G01*
X134149999Y-155192842D02*
G75*
G03*
X134199484Y-155409720I499990J-2D01*
G01*
X131655547Y-155989999D02*
G75*
G03*
X131403289Y-156058298I3J-500009D01*
G01*
X133244452Y-152990000D02*
G75*
G03*
X133496710Y-152921701I-3J500009D01*
G01*
X130700515Y-155409720D02*
G75*
G03*
X131403289Y-156058298I450516J-216877D01*
G01*
X133496711Y-156058299D02*
G75*
G03*
X134199484Y-155409720I252258J431701D01*
G01*
X130750001Y-153787158D02*
G75*
G03*
X130700516Y-153570280I-499990J2D01*
G01*
X131403289Y-152921701D02*
G75*
G03*
X130700516Y-153570281I-252259J-431700D01*
G01*
X153199999Y-153787158D02*
X153199999Y-155192842D01*
X152294452Y-155989999D02*
X150705547Y-155989999D01*
X149800001Y-155192842D02*
X149800001Y-153787158D01*
X150705548Y-152990000D02*
X152294452Y-152990000D01*
X153249484Y-153570280D02*
G75*
G03*
X152546711Y-152921703I-450515J216877D01*
G01*
X150705547Y-155989999D02*
G75*
G03*
X150453289Y-156058298I3J-500009D01*
G01*
X152294452Y-152990000D02*
G75*
G03*
X152546710Y-152921701I-3J500009D01*
G01*
X152546711Y-156058299D02*
G75*
G03*
X153249484Y-155409720I252258J431701D01*
G01*
X150453289Y-152921701D02*
G75*
G03*
X149750516Y-153570281I-252259J-431700D01*
G01*
X152546711Y-156058299D02*
G75*
G03*
X152294453Y-155990000I-252261J-431710D01*
G01*
X149800001Y-153787158D02*
G75*
G03*
X149750516Y-153570280I-499990J2D01*
G01*
X153199999Y-155192842D02*
G75*
G03*
X153249484Y-155409720I499990J-2D01*
G01*
X153249484Y-153570280D02*
G75*
G03*
X153199999Y-153787157I450505J-216876D01*
G01*
X149750515Y-155409720D02*
G75*
G03*
X150453289Y-156058298I450516J-216877D01*
G01*
X150453289Y-152921701D02*
G75*
G03*
X150705548Y-152990000I252261J431710D01*
G01*
X149750516Y-155409720D02*
G75*
G03*
X149800001Y-155192843I-450505J216876D01*
G01*
X168850001Y-155192842D02*
X168850001Y-153787158D01*
X169755548Y-152990000D02*
X171344452Y-152990000D01*
X172249999Y-153787158D02*
X172249999Y-155192842D01*
X171344452Y-155989999D02*
X169755547Y-155989999D01*
X169503289Y-152921701D02*
G75*
G03*
X169755548Y-152990000I252261J431710D01*
G01*
X169755547Y-155989999D02*
G75*
G03*
X169503289Y-156058298I3J-500009D01*
G01*
X171344452Y-152990000D02*
G75*
G03*
X171596710Y-152921701I-3J500009D01*
G01*
X172299484Y-153570280D02*
G75*
G03*
X171596711Y-152921703I-450515J216877D01*
G01*
X172299484Y-153570280D02*
G75*
G03*
X172249999Y-153787157I450505J-216876D01*
G01*
X169503289Y-152921701D02*
G75*
G03*
X168800516Y-153570281I-252259J-431700D01*
G01*
X168800515Y-155409720D02*
G75*
G03*
X169503289Y-156058298I450516J-216877D01*
G01*
X172249999Y-155192842D02*
G75*
G03*
X172299484Y-155409720I499990J-2D01*
G01*
X168800516Y-155409720D02*
G75*
G03*
X168850001Y-155192843I-450505J216876D01*
G01*
X168850001Y-153787158D02*
G75*
G03*
X168800516Y-153570280I-499990J2D01*
G01*
X171596711Y-156058299D02*
G75*
G03*
X172299484Y-155409720I252258J431701D01*
G01*
X171596711Y-156058299D02*
G75*
G03*
X171344453Y-155990000I-252261J-431710D01*
G01*
X188805548Y-152990000D02*
X190394452Y-152990000D01*
X187900001Y-155192842D02*
X187900001Y-153787158D01*
X190394452Y-155989999D02*
X188805547Y-155989999D01*
X191299999Y-153787158D02*
X191299999Y-155192842D01*
X187850516Y-155409720D02*
G75*
G03*
X187900001Y-155192843I-450505J216876D01*
G01*
X187850515Y-155409720D02*
G75*
G03*
X188553289Y-156058298I450516J-216877D01*
G01*
X187900001Y-153787158D02*
G75*
G03*
X187850516Y-153570280I-499990J2D01*
G01*
X191299999Y-155192842D02*
G75*
G03*
X191349484Y-155409720I499990J-2D01*
G01*
X191349484Y-153570280D02*
G75*
G03*
X191299999Y-153787157I450505J-216876D01*
G01*
X190646711Y-156058299D02*
G75*
G03*
X191349484Y-155409720I252258J431701D01*
G01*
X188553289Y-152921701D02*
G75*
G03*
X188805548Y-152990000I252261J431710D01*
G01*
X191349484Y-153570280D02*
G75*
G03*
X190646711Y-152921703I-450515J216877D01*
G01*
X190394452Y-152990000D02*
G75*
G03*
X190646710Y-152921701I-3J500009D01*
G01*
X188553289Y-152921701D02*
G75*
G03*
X187850516Y-153570281I-252259J-431700D01*
G01*
X188805547Y-155989999D02*
G75*
G03*
X188553289Y-156058298I3J-500009D01*
G01*
X190646711Y-156058299D02*
G75*
G03*
X190394453Y-155990000I-252261J-431710D01*
G01*
X209444452Y-155989999D02*
X207855547Y-155989999D01*
X210349999Y-153787158D02*
X210349999Y-155192842D01*
X207855548Y-152990000D02*
X209444452Y-152990000D01*
X206950001Y-155192842D02*
X206950001Y-153787158D01*
X210399484Y-153570280D02*
G75*
G03*
X210349999Y-153787157I450505J-216876D01*
G01*
X209444452Y-152990000D02*
G75*
G03*
X209696710Y-152921701I-3J500009D01*
G01*
X206950001Y-153787158D02*
G75*
G03*
X206900516Y-153570280I-499990J2D01*
G01*
X210349999Y-155192842D02*
G75*
G03*
X210399484Y-155409720I499990J-2D01*
G01*
X206900515Y-155409720D02*
G75*
G03*
X207603289Y-156058298I450516J-216877D01*
G01*
X206900516Y-155409720D02*
G75*
G03*
X206950001Y-155192843I-450505J216876D01*
G01*
X209696711Y-156058299D02*
G75*
G03*
X209444453Y-155990000I-252261J-431710D01*
G01*
X207603289Y-152921701D02*
G75*
G03*
X206900516Y-153570281I-252259J-431700D01*
G01*
X207603289Y-152921701D02*
G75*
G03*
X207855548Y-152990000I252261J431710D01*
G01*
X207855547Y-155989999D02*
G75*
G03*
X207603289Y-156058298I3J-500009D01*
G01*
X210399484Y-153570280D02*
G75*
G03*
X209696711Y-152921703I-450515J216877D01*
G01*
X209696711Y-156058299D02*
G75*
G03*
X210399484Y-155409720I252258J431701D01*
G01*
X226000001Y-155192842D02*
X226000001Y-153787158D01*
X226905548Y-152990000D02*
X228494452Y-152990000D01*
X228494452Y-155989999D02*
X226905547Y-155989999D01*
X229399999Y-153787158D02*
X229399999Y-155192842D01*
X226905547Y-155989999D02*
G75*
G03*
X226653289Y-156058298I3J-500009D01*
G01*
X225950515Y-155409720D02*
G75*
G03*
X226653289Y-156058298I450516J-216877D01*
G01*
X229399999Y-155192842D02*
G75*
G03*
X229449484Y-155409720I499990J-2D01*
G01*
X226653289Y-152921701D02*
G75*
G03*
X225950516Y-153570281I-252259J-431700D01*
G01*
X229449484Y-153570280D02*
G75*
G03*
X229399999Y-153787157I450505J-216876D01*
G01*
X229449484Y-153570280D02*
G75*
G03*
X228746711Y-152921703I-450515J216877D01*
G01*
X226000001Y-153787158D02*
G75*
G03*
X225950516Y-153570280I-499990J2D01*
G01*
X228494452Y-152990000D02*
G75*
G03*
X228746710Y-152921701I-3J500009D01*
G01*
X225950516Y-155409720D02*
G75*
G03*
X226000001Y-155192843I-450505J216876D01*
G01*
X228746711Y-156058299D02*
G75*
G03*
X228494453Y-155990000I-252261J-431710D01*
G01*
X228746711Y-156058299D02*
G75*
G03*
X229449484Y-155409720I252258J431701D01*
G01*
X226653289Y-152921701D02*
G75*
G03*
X226905548Y-152990000I252261J431710D01*
G01*
X247544452Y-155989999D02*
X245955547Y-155989999D01*
X245955548Y-152990000D02*
X247544452Y-152990000D01*
X245050001Y-155192842D02*
X245050001Y-153787158D01*
X248449999Y-153787158D02*
X248449999Y-155192842D01*
X247544452Y-152990000D02*
G75*
G03*
X247796710Y-152921701I-3J500009D01*
G01*
X248449999Y-155192842D02*
G75*
G03*
X248499484Y-155409720I499990J-2D01*
G01*
X245050001Y-153787158D02*
G75*
G03*
X245000516Y-153570280I-499990J2D01*
G01*
X245000516Y-155409720D02*
G75*
G03*
X245050001Y-155192843I-450505J216876D01*
G01*
X245703289Y-152921701D02*
G75*
G03*
X245955548Y-152990000I252261J431710D01*
G01*
X245955547Y-155989999D02*
G75*
G03*
X245703289Y-156058298I3J-500009D01*
G01*
X245000515Y-155409720D02*
G75*
G03*
X245703289Y-156058298I450516J-216877D01*
G01*
X245703289Y-152921701D02*
G75*
G03*
X245000516Y-153570281I-252259J-431700D01*
G01*
X248499484Y-153570280D02*
G75*
G03*
X248449999Y-153787157I450505J-216876D01*
G01*
X247796711Y-156058299D02*
G75*
G03*
X248499484Y-155409720I252258J431701D01*
G01*
X248499484Y-153570280D02*
G75*
G03*
X247796711Y-152921703I-450515J216877D01*
G01*
X247796711Y-156058299D02*
G75*
G03*
X247544453Y-155990000I-252261J-431710D01*
G01*
X266594452Y-155989999D02*
X265005547Y-155989999D01*
X265005548Y-152990000D02*
X266594452Y-152990000D01*
X264100001Y-155192842D02*
X264100001Y-153787158D01*
X267499999Y-153787158D02*
X267499999Y-155192842D01*
X264753289Y-152921701D02*
G75*
G03*
X265005548Y-152990000I252261J431710D01*
G01*
X265005547Y-155989999D02*
G75*
G03*
X264753289Y-156058298I3J-500009D01*
G01*
X264050515Y-155409720D02*
G75*
G03*
X264753289Y-156058298I450516J-216877D01*
G01*
X266846711Y-156058299D02*
G75*
G03*
X266594453Y-155990000I-252261J-431710D01*
G01*
X267549484Y-153570280D02*
G75*
G03*
X266846711Y-152921703I-450515J216877D01*
G01*
X264100001Y-153787158D02*
G75*
G03*
X264050516Y-153570280I-499990J2D01*
G01*
X267549484Y-153570280D02*
G75*
G03*
X267499999Y-153787157I450505J-216876D01*
G01*
X266594452Y-152990000D02*
G75*
G03*
X266846710Y-152921701I-3J500009D01*
G01*
X266846711Y-156058299D02*
G75*
G03*
X267549484Y-155409720I252258J431701D01*
G01*
X264050516Y-155409720D02*
G75*
G03*
X264100001Y-155192843I-450505J216876D01*
G01*
X264753289Y-152921701D02*
G75*
G03*
X264050516Y-153570281I-252259J-431700D01*
G01*
X267499999Y-155192842D02*
G75*
G03*
X267549484Y-155409720I499990J-2D01*
G01*
X283150001Y-155192842D02*
X283150001Y-153787158D01*
X285644452Y-155989999D02*
X284055547Y-155989999D01*
X286549999Y-153787158D02*
X286549999Y-155192842D01*
X284055548Y-152990000D02*
X285644452Y-152990000D01*
X285896711Y-156058299D02*
G75*
G03*
X286599484Y-155409720I252258J431701D01*
G01*
X283803289Y-152921701D02*
G75*
G03*
X283100516Y-153570281I-252259J-431700D01*
G01*
X283100516Y-155409720D02*
G75*
G03*
X283150001Y-155192843I-450505J216876D01*
G01*
X283150001Y-153787158D02*
G75*
G03*
X283100516Y-153570280I-499990J2D01*
G01*
X286599484Y-153570280D02*
G75*
G03*
X286549999Y-153787157I450505J-216876D01*
G01*
X285896711Y-156058299D02*
G75*
G03*
X285644453Y-155990000I-252261J-431710D01*
G01*
X285644452Y-152990000D02*
G75*
G03*
X285896710Y-152921701I-3J500009D01*
G01*
X283803289Y-152921701D02*
G75*
G03*
X284055548Y-152990000I252261J431710D01*
G01*
X286599484Y-153570280D02*
G75*
G03*
X285896711Y-152921703I-450515J216877D01*
G01*
X284055547Y-155989999D02*
G75*
G03*
X283803289Y-156058298I3J-500009D01*
G01*
X286549999Y-155192842D02*
G75*
G03*
X286599484Y-155409720I499990J-2D01*
G01*
X283100515Y-155409720D02*
G75*
G03*
X283803289Y-156058298I450516J-216877D01*
G01*
X306647842Y-160634999D02*
X305242158Y-160634999D01*
X304445001Y-159729452D02*
X304445001Y-158140547D01*
X307445000Y-158140548D02*
X307445000Y-159729452D01*
X305242158Y-157235001D02*
X306647842Y-157235001D01*
X307513299Y-157888289D02*
G75*
G03*
X306864719Y-157185516I-431700J252259D01*
G01*
X307513299Y-157888289D02*
G75*
G03*
X307445000Y-158140548I431710J-252261D01*
G01*
X306647842Y-157235001D02*
G75*
G03*
X306864720Y-157185516I2J499990D01*
G01*
X306864720Y-160684484D02*
G75*
G03*
X306647843Y-160634999I-216876J-450505D01*
G01*
X306864720Y-160684484D02*
G75*
G03*
X307513297Y-159981711I216877J450515D01*
G01*
X305242158Y-160634999D02*
G75*
G03*
X305025280Y-160684484I-2J-499990D01*
G01*
X305025280Y-157185516D02*
G75*
G03*
X305242157Y-157235001I216876J450505D01*
G01*
X305025280Y-157185515D02*
G75*
G03*
X304376702Y-157888289I-216877J-450516D01*
G01*
X304376701Y-159981711D02*
G75*
G03*
X304445000Y-159729453I-431710J252261D01*
G01*
X304376701Y-159981711D02*
G75*
G03*
X305025280Y-160684484I431701J-252258D01*
G01*
X307445000Y-159729452D02*
G75*
G03*
X307513299Y-159981710I500009J3D01*
G01*
X304445001Y-158140547D02*
G75*
G03*
X304376702Y-157888289I-500009J-3D01*
G01*
X338937499Y-153787158D02*
X338937499Y-155192842D01*
X335537501Y-155192842D02*
X335537501Y-153787158D01*
X336443048Y-152990000D02*
X338031952Y-152990000D01*
X338031952Y-155989999D02*
X336443047Y-155989999D01*
X335537501Y-153787158D02*
G75*
G03*
X335488016Y-153570280I-499990J2D01*
G01*
X336190789Y-152921701D02*
G75*
G03*
X335488016Y-153570281I-252259J-431700D01*
G01*
X335488016Y-155409720D02*
G75*
G03*
X335537501Y-155192843I-450505J216876D01*
G01*
X338284211Y-156058299D02*
G75*
G03*
X338986984Y-155409720I252258J431701D01*
G01*
X335488015Y-155409720D02*
G75*
G03*
X336190789Y-156058298I450516J-216877D01*
G01*
X338937499Y-155192842D02*
G75*
G03*
X338986984Y-155409720I499990J-2D01*
G01*
X338031952Y-152990000D02*
G75*
G03*
X338284210Y-152921701I-3J500009D01*
G01*
X338986984Y-153570280D02*
G75*
G03*
X338937499Y-153787157I450505J-216876D01*
G01*
X338986984Y-153570280D02*
G75*
G03*
X338284211Y-152921703I-450515J216877D01*
G01*
X336190789Y-152921701D02*
G75*
G03*
X336443048Y-152990000I252261J431710D01*
G01*
X336443047Y-155989999D02*
G75*
G03*
X336190789Y-156058298I3J-500009D01*
G01*
X338284211Y-156058299D02*
G75*
G03*
X338031953Y-155990000I-252261J-431710D01*
G01*
X354587501Y-155192842D02*
X354587501Y-153787158D01*
X357987499Y-153787158D02*
X357987499Y-155192842D01*
X355493048Y-152990000D02*
X357081952Y-152990000D01*
X357081952Y-155989999D02*
X355493047Y-155989999D01*
X354587501Y-153787158D02*
G75*
G03*
X354538016Y-153570280I-499990J2D01*
G01*
X354538016Y-155409720D02*
G75*
G03*
X354587501Y-155192843I-450505J216876D01*
G01*
X357081952Y-152990000D02*
G75*
G03*
X357334210Y-152921701I-3J500009D01*
G01*
X355493047Y-155989999D02*
G75*
G03*
X355240789Y-156058298I3J-500009D01*
G01*
X354538015Y-155409720D02*
G75*
G03*
X355240789Y-156058298I450516J-216877D01*
G01*
X355240789Y-152921701D02*
G75*
G03*
X355493048Y-152990000I252261J431710D01*
G01*
X357987499Y-155192842D02*
G75*
G03*
X358036984Y-155409720I499990J-2D01*
G01*
X355240789Y-152921701D02*
G75*
G03*
X354538016Y-153570281I-252259J-431700D01*
G01*
X357334211Y-156058299D02*
G75*
G03*
X358036984Y-155409720I252258J431701D01*
G01*
X358036984Y-153570280D02*
G75*
G03*
X357987499Y-153787157I450505J-216876D01*
G01*
X358036984Y-153570280D02*
G75*
G03*
X357334211Y-152921703I-450515J216877D01*
G01*
X357334211Y-156058299D02*
G75*
G03*
X357081953Y-155990000I-252261J-431710D01*
G01*
X374543048Y-152990000D02*
X376131952Y-152990000D01*
X376131952Y-155989999D02*
X374543047Y-155989999D01*
X373637501Y-155192842D02*
X373637501Y-153787158D01*
X377037499Y-153787158D02*
X377037499Y-155192842D01*
X374290789Y-152921701D02*
G75*
G03*
X374543048Y-152990000I252261J431710D01*
G01*
X374290789Y-152921701D02*
G75*
G03*
X373588016Y-153570281I-252259J-431700D01*
G01*
X374543047Y-155989999D02*
G75*
G03*
X374290789Y-156058298I3J-500009D01*
G01*
X377086984Y-153570280D02*
G75*
G03*
X376384211Y-152921703I-450515J216877D01*
G01*
X373588015Y-155409720D02*
G75*
G03*
X374290789Y-156058298I450516J-216877D01*
G01*
X376384211Y-156058299D02*
G75*
G03*
X377086984Y-155409720I252258J431701D01*
G01*
X377037499Y-155192842D02*
G75*
G03*
X377086984Y-155409720I499990J-2D01*
G01*
X377086984Y-153570280D02*
G75*
G03*
X377037499Y-153787157I450505J-216876D01*
G01*
X373637501Y-153787158D02*
G75*
G03*
X373588016Y-153570280I-499990J2D01*
G01*
X376384211Y-156058299D02*
G75*
G03*
X376131953Y-155990000I-252261J-431710D01*
G01*
X373588016Y-155409720D02*
G75*
G03*
X373637501Y-155192843I-450505J216876D01*
G01*
X376131952Y-152990000D02*
G75*
G03*
X376384210Y-152921701I-3J500009D01*
G01*
X53074298Y-172040000D02*
X54663202Y-172040000D01*
X55568749Y-172837158D02*
X55568749Y-174242842D01*
X52168751Y-174242842D02*
X52168751Y-172837158D01*
X54663202Y-175039999D02*
X53074297Y-175039999D01*
X55618234Y-172620280D02*
G75*
G03*
X55568749Y-172837157I450505J-216876D01*
G01*
X52168751Y-172837158D02*
G75*
G03*
X52119266Y-172620280I-499990J2D01*
G01*
X54663202Y-172040000D02*
G75*
G03*
X54915460Y-171971701I-3J500009D01*
G01*
X52822039Y-171971701D02*
G75*
G03*
X52119266Y-172620281I-252259J-431700D01*
G01*
X53074297Y-175039999D02*
G75*
G03*
X52822039Y-175108298I3J-500009D01*
G01*
X55618234Y-172620280D02*
G75*
G03*
X54915461Y-171971703I-450515J216877D01*
G01*
X55568749Y-174242842D02*
G75*
G03*
X55618234Y-174459720I499990J-2D01*
G01*
X54915461Y-175108299D02*
G75*
G03*
X55618234Y-174459720I252258J431701D01*
G01*
X52119266Y-174459720D02*
G75*
G03*
X52168751Y-174242843I-450505J216876D01*
G01*
X54915461Y-175108299D02*
G75*
G03*
X54663203Y-175040000I-252261J-431710D01*
G01*
X52822039Y-171971701D02*
G75*
G03*
X53074298Y-172040000I252261J431710D01*
G01*
X52119265Y-174459720D02*
G75*
G03*
X52822039Y-175108298I450516J-216877D01*
G01*
X80856952Y-175039999D02*
X79268047Y-175039999D01*
X78362501Y-174242842D02*
X78362501Y-172837158D01*
X79268048Y-172040000D02*
X80856952Y-172040000D01*
X81762499Y-172837158D02*
X81762499Y-174242842D01*
X81811984Y-172620280D02*
G75*
G03*
X81109211Y-171971703I-450515J216877D01*
G01*
X78313015Y-174459720D02*
G75*
G03*
X79015789Y-175108298I450516J-216877D01*
G01*
X78362501Y-172837158D02*
G75*
G03*
X78313016Y-172620280I-499990J2D01*
G01*
X81811984Y-172620280D02*
G75*
G03*
X81762499Y-172837157I450505J-216876D01*
G01*
X80856952Y-172040000D02*
G75*
G03*
X81109210Y-171971701I-3J500009D01*
G01*
X78313016Y-174459720D02*
G75*
G03*
X78362501Y-174242843I-450505J216876D01*
G01*
X79015789Y-171971701D02*
G75*
G03*
X79268048Y-172040000I252261J431710D01*
G01*
X79268047Y-175039999D02*
G75*
G03*
X79015789Y-175108298I3J-500009D01*
G01*
X81762499Y-174242842D02*
G75*
G03*
X81811984Y-174459720I499990J-2D01*
G01*
X81109211Y-175108299D02*
G75*
G03*
X81811984Y-174459720I252258J431701D01*
G01*
X81109211Y-175108299D02*
G75*
G03*
X80856953Y-175040000I-252261J-431710D01*
G01*
X79015789Y-171971701D02*
G75*
G03*
X78313016Y-172620281I-252259J-431700D01*
G01*
X99906952Y-175039999D02*
X98318047Y-175039999D01*
X98318048Y-172040000D02*
X99906952Y-172040000D01*
X97412501Y-174242842D02*
X97412501Y-172837158D01*
X100812499Y-172837158D02*
X100812499Y-174242842D01*
X98318047Y-175039999D02*
G75*
G03*
X98065789Y-175108298I3J-500009D01*
G01*
X99906952Y-172040000D02*
G75*
G03*
X100159210Y-171971701I-3J500009D01*
G01*
X97363016Y-174459720D02*
G75*
G03*
X97412501Y-174242843I-450505J216876D01*
G01*
X98065789Y-171971701D02*
G75*
G03*
X97363016Y-172620281I-252259J-431700D01*
G01*
X97363015Y-174459720D02*
G75*
G03*
X98065789Y-175108298I450516J-216877D01*
G01*
X100861984Y-172620280D02*
G75*
G03*
X100159211Y-171971703I-450515J216877D01*
G01*
X100861984Y-172620280D02*
G75*
G03*
X100812499Y-172837157I450505J-216876D01*
G01*
X98065789Y-171971701D02*
G75*
G03*
X98318048Y-172040000I252261J431710D01*
G01*
X100159211Y-175108299D02*
G75*
G03*
X100861984Y-174459720I252258J431701D01*
G01*
X97412501Y-172837158D02*
G75*
G03*
X97363016Y-172620280I-499990J2D01*
G01*
X100812499Y-174242842D02*
G75*
G03*
X100861984Y-174459720I499990J-2D01*
G01*
X100159211Y-175108299D02*
G75*
G03*
X99906953Y-175040000I-252261J-431710D01*
G01*
X119862499Y-172837158D02*
X119862499Y-174242842D01*
X117368048Y-172040000D02*
X118956952Y-172040000D01*
X116462501Y-174242842D02*
X116462501Y-172837158D01*
X118956952Y-175039999D02*
X117368047Y-175039999D01*
X118956952Y-172040000D02*
G75*
G03*
X119209210Y-171971701I-3J500009D01*
G01*
X116462501Y-172837158D02*
G75*
G03*
X116413016Y-172620280I-499990J2D01*
G01*
X117115789Y-171971701D02*
G75*
G03*
X117368048Y-172040000I252261J431710D01*
G01*
X119911984Y-172620280D02*
G75*
G03*
X119209211Y-171971703I-450515J216877D01*
G01*
X116413016Y-174459720D02*
G75*
G03*
X116462501Y-174242843I-450505J216876D01*
G01*
X117368047Y-175039999D02*
G75*
G03*
X117115789Y-175108298I3J-500009D01*
G01*
X117115789Y-171971701D02*
G75*
G03*
X116413016Y-172620281I-252259J-431700D01*
G01*
X119862499Y-174242842D02*
G75*
G03*
X119911984Y-174459720I499990J-2D01*
G01*
X116413015Y-174459720D02*
G75*
G03*
X117115789Y-175108298I450516J-216877D01*
G01*
X119911984Y-172620280D02*
G75*
G03*
X119862499Y-172837157I450505J-216876D01*
G01*
X119209211Y-175108299D02*
G75*
G03*
X119911984Y-174459720I252258J431701D01*
G01*
X119209211Y-175108299D02*
G75*
G03*
X118956953Y-175040000I-252261J-431710D01*
G01*
X138912499Y-172837158D02*
X138912499Y-174242842D01*
X136418048Y-172040000D02*
X138006952Y-172040000D01*
X138006952Y-175039999D02*
X136418047Y-175039999D01*
X135512501Y-174242842D02*
X135512501Y-172837158D01*
X138006952Y-172040000D02*
G75*
G03*
X138259210Y-171971701I-3J500009D01*
G01*
X136418047Y-175039999D02*
G75*
G03*
X136165789Y-175108298I3J-500009D01*
G01*
X138961984Y-172620280D02*
G75*
G03*
X138912499Y-172837157I450505J-216876D01*
G01*
X136165789Y-171971701D02*
G75*
G03*
X136418048Y-172040000I252261J431710D01*
G01*
X136165789Y-171971701D02*
G75*
G03*
X135463016Y-172620281I-252259J-431700D01*
G01*
X138259211Y-175108299D02*
G75*
G03*
X138006953Y-175040000I-252261J-431710D01*
G01*
X138912499Y-174242842D02*
G75*
G03*
X138961984Y-174459720I499990J-2D01*
G01*
X135512501Y-172837158D02*
G75*
G03*
X135463016Y-172620280I-499990J2D01*
G01*
X135463015Y-174459720D02*
G75*
G03*
X136165789Y-175108298I450516J-216877D01*
G01*
X135463016Y-174459720D02*
G75*
G03*
X135512501Y-174242843I-450505J216876D01*
G01*
X138259211Y-175108299D02*
G75*
G03*
X138961984Y-174459720I252258J431701D01*
G01*
X138961984Y-172620280D02*
G75*
G03*
X138259211Y-171971703I-450515J216877D01*
G01*
X157962499Y-172837158D02*
X157962499Y-174242842D01*
X157056952Y-175039999D02*
X155468047Y-175039999D01*
X155468048Y-172040000D02*
X157056952Y-172040000D01*
X154562501Y-174242842D02*
X154562501Y-172837158D01*
X155215789Y-171971701D02*
G75*
G03*
X155468048Y-172040000I252261J431710D01*
G01*
X154513015Y-174459720D02*
G75*
G03*
X155215789Y-175108298I450516J-216877D01*
G01*
X157056952Y-172040000D02*
G75*
G03*
X157309210Y-171971701I-3J500009D01*
G01*
X154562501Y-172837158D02*
G75*
G03*
X154513016Y-172620280I-499990J2D01*
G01*
X157309211Y-175108299D02*
G75*
G03*
X158011984Y-174459720I252258J431701D01*
G01*
X155468047Y-175039999D02*
G75*
G03*
X155215789Y-175108298I3J-500009D01*
G01*
X155215789Y-171971701D02*
G75*
G03*
X154513016Y-172620281I-252259J-431700D01*
G01*
X157962499Y-174242842D02*
G75*
G03*
X158011984Y-174459720I499990J-2D01*
G01*
X154513016Y-174459720D02*
G75*
G03*
X154562501Y-174242843I-450505J216876D01*
G01*
X158011984Y-172620280D02*
G75*
G03*
X157962499Y-172837157I450505J-216876D01*
G01*
X157309211Y-175108299D02*
G75*
G03*
X157056953Y-175040000I-252261J-431710D01*
G01*
X158011984Y-172620280D02*
G75*
G03*
X157309211Y-171971703I-450515J216877D01*
G01*
X173612501Y-174242842D02*
X173612501Y-172837158D01*
X177012499Y-172837158D02*
X177012499Y-174242842D01*
X174518048Y-172040000D02*
X176106952Y-172040000D01*
X176106952Y-175039999D02*
X174518047Y-175039999D01*
X173563015Y-174459720D02*
G75*
G03*
X174265789Y-175108298I450516J-216877D01*
G01*
X177061984Y-172620280D02*
G75*
G03*
X176359211Y-171971703I-450515J216877D01*
G01*
X174265789Y-171971701D02*
G75*
G03*
X173563016Y-172620281I-252259J-431700D01*
G01*
X174265789Y-171971701D02*
G75*
G03*
X174518048Y-172040000I252261J431710D01*
G01*
X176359211Y-175108299D02*
G75*
G03*
X177061984Y-174459720I252258J431701D01*
G01*
X177012499Y-174242842D02*
G75*
G03*
X177061984Y-174459720I499990J-2D01*
G01*
X177061984Y-172620280D02*
G75*
G03*
X177012499Y-172837157I450505J-216876D01*
G01*
X176106952Y-172040000D02*
G75*
G03*
X176359210Y-171971701I-3J500009D01*
G01*
X173563016Y-174459720D02*
G75*
G03*
X173612501Y-174242843I-450505J216876D01*
G01*
X174518047Y-175039999D02*
G75*
G03*
X174265789Y-175108298I3J-500009D01*
G01*
X176359211Y-175108299D02*
G75*
G03*
X176106953Y-175040000I-252261J-431710D01*
G01*
X173612501Y-172837158D02*
G75*
G03*
X173563016Y-172620280I-499990J2D01*
G01*
X196062499Y-172837158D02*
X196062499Y-174242842D01*
X192662501Y-174242842D02*
X192662501Y-172837158D01*
X195156952Y-175039999D02*
X193568047Y-175039999D01*
X193568048Y-172040000D02*
X195156952Y-172040000D01*
X196062499Y-174242842D02*
G75*
G03*
X196111984Y-174459720I499990J-2D01*
G01*
X195409211Y-175108299D02*
G75*
G03*
X196111984Y-174459720I252258J431701D01*
G01*
X192613015Y-174459720D02*
G75*
G03*
X193315789Y-175108298I450516J-216877D01*
G01*
X193568047Y-175039999D02*
G75*
G03*
X193315789Y-175108298I3J-500009D01*
G01*
X196111984Y-172620280D02*
G75*
G03*
X196062499Y-172837157I450505J-216876D01*
G01*
X193315789Y-171971701D02*
G75*
G03*
X193568048Y-172040000I252261J431710D01*
G01*
X192662501Y-172837158D02*
G75*
G03*
X192613016Y-172620280I-499990J2D01*
G01*
X196111984Y-172620280D02*
G75*
G03*
X195409211Y-171971703I-450515J216877D01*
G01*
X193315789Y-171971701D02*
G75*
G03*
X192613016Y-172620281I-252259J-431700D01*
G01*
X192613016Y-174459720D02*
G75*
G03*
X192662501Y-174242843I-450505J216876D01*
G01*
X195156952Y-172040000D02*
G75*
G03*
X195409210Y-171971701I-3J500009D01*
G01*
X195409211Y-175108299D02*
G75*
G03*
X195156953Y-175040000I-252261J-431710D01*
G01*
X212618048Y-172040000D02*
X214206952Y-172040000D01*
X214206952Y-175039999D02*
X212618047Y-175039999D01*
X211712501Y-174242842D02*
X211712501Y-172837158D01*
X215112499Y-172837158D02*
X215112499Y-174242842D01*
X215161984Y-172620280D02*
G75*
G03*
X214459211Y-171971703I-450515J216877D01*
G01*
X212365789Y-171971701D02*
G75*
G03*
X212618048Y-172040000I252261J431710D01*
G01*
X212365789Y-171971701D02*
G75*
G03*
X211663016Y-172620281I-252259J-431700D01*
G01*
X215161984Y-172620280D02*
G75*
G03*
X215112499Y-172837157I450505J-216876D01*
G01*
X214206952Y-172040000D02*
G75*
G03*
X214459210Y-171971701I-3J500009D01*
G01*
X211663015Y-174459720D02*
G75*
G03*
X212365789Y-175108298I450516J-216877D01*
G01*
X212618047Y-175039999D02*
G75*
G03*
X212365789Y-175108298I3J-500009D01*
G01*
X211712501Y-172837158D02*
G75*
G03*
X211663016Y-172620280I-499990J2D01*
G01*
X214459211Y-175108299D02*
G75*
G03*
X215161984Y-174459720I252258J431701D01*
G01*
X215112499Y-174242842D02*
G75*
G03*
X215161984Y-174459720I499990J-2D01*
G01*
X214459211Y-175108299D02*
G75*
G03*
X214206953Y-175040000I-252261J-431710D01*
G01*
X211663016Y-174459720D02*
G75*
G03*
X211712501Y-174242843I-450505J216876D01*
G01*
X233256952Y-175039999D02*
X231668047Y-175039999D01*
X230762501Y-174242842D02*
X230762501Y-172837158D01*
X234162499Y-172837158D02*
X234162499Y-174242842D01*
X231668048Y-172040000D02*
X233256952Y-172040000D01*
X234211984Y-172620280D02*
G75*
G03*
X233509211Y-171971703I-450515J216877D01*
G01*
X233509211Y-175108299D02*
G75*
G03*
X234211984Y-174459720I252258J431701D01*
G01*
X234162499Y-174242842D02*
G75*
G03*
X234211984Y-174459720I499990J-2D01*
G01*
X230713016Y-174459720D02*
G75*
G03*
X230762501Y-174242843I-450505J216876D01*
G01*
X230713015Y-174459720D02*
G75*
G03*
X231415789Y-175108298I450516J-216877D01*
G01*
X233509211Y-175108299D02*
G75*
G03*
X233256953Y-175040000I-252261J-431710D01*
G01*
X231668047Y-175039999D02*
G75*
G03*
X231415789Y-175108298I3J-500009D01*
G01*
X233256952Y-172040000D02*
G75*
G03*
X233509210Y-171971701I-3J500009D01*
G01*
X230762501Y-172837158D02*
G75*
G03*
X230713016Y-172620280I-499990J2D01*
G01*
X231415789Y-171971701D02*
G75*
G03*
X231668048Y-172040000I252261J431710D01*
G01*
X231415789Y-171971701D02*
G75*
G03*
X230713016Y-172620281I-252259J-431700D01*
G01*
X234211984Y-172620280D02*
G75*
G03*
X234162499Y-172837157I450505J-216876D01*
G01*
X253212499Y-172837158D02*
X253212499Y-174242842D01*
X249812501Y-174242842D02*
X249812501Y-172837158D01*
X252306952Y-175039999D02*
X250718047Y-175039999D01*
X250718048Y-172040000D02*
X252306952Y-172040000D01*
X250465789Y-171971701D02*
G75*
G03*
X250718048Y-172040000I252261J431710D01*
G01*
X252306952Y-172040000D02*
G75*
G03*
X252559210Y-171971701I-3J500009D01*
G01*
X252559211Y-175108299D02*
G75*
G03*
X253261984Y-174459720I252258J431701D01*
G01*
X253212499Y-174242842D02*
G75*
G03*
X253261984Y-174459720I499990J-2D01*
G01*
X249812501Y-172837158D02*
G75*
G03*
X249763016Y-172620280I-499990J2D01*
G01*
X249763016Y-174459720D02*
G75*
G03*
X249812501Y-174242843I-450505J216876D01*
G01*
X250718047Y-175039999D02*
G75*
G03*
X250465789Y-175108298I3J-500009D01*
G01*
X253261984Y-172620280D02*
G75*
G03*
X252559211Y-171971703I-450515J216877D01*
G01*
X252559211Y-175108299D02*
G75*
G03*
X252306953Y-175040000I-252261J-431710D01*
G01*
X253261984Y-172620280D02*
G75*
G03*
X253212499Y-172837157I450505J-216876D01*
G01*
X250465789Y-171971701D02*
G75*
G03*
X249763016Y-172620281I-252259J-431700D01*
G01*
X249763015Y-174459720D02*
G75*
G03*
X250465789Y-175108298I450516J-216877D01*
G01*
X271356952Y-175039999D02*
X269768047Y-175039999D01*
X272262499Y-172837158D02*
X272262499Y-174242842D01*
X269768048Y-172040000D02*
X271356952Y-172040000D01*
X268862501Y-174242842D02*
X268862501Y-172837158D01*
X272262499Y-174242842D02*
G75*
G03*
X272311984Y-174459720I499990J-2D01*
G01*
X271356952Y-172040000D02*
G75*
G03*
X271609210Y-171971701I-3J500009D01*
G01*
X269768047Y-175039999D02*
G75*
G03*
X269515789Y-175108298I3J-500009D01*
G01*
X271609211Y-175108299D02*
G75*
G03*
X271356953Y-175040000I-252261J-431710D01*
G01*
X268862501Y-172837158D02*
G75*
G03*
X268813016Y-172620280I-499990J2D01*
G01*
X268813016Y-174459720D02*
G75*
G03*
X268862501Y-174242843I-450505J216876D01*
G01*
X272311984Y-172620280D02*
G75*
G03*
X272262499Y-172837157I450505J-216876D01*
G01*
X269515789Y-171971701D02*
G75*
G03*
X269768048Y-172040000I252261J431710D01*
G01*
X268813015Y-174459720D02*
G75*
G03*
X269515789Y-175108298I450516J-216877D01*
G01*
X269515789Y-171971701D02*
G75*
G03*
X268813016Y-172620281I-252259J-431700D01*
G01*
X271609211Y-175108299D02*
G75*
G03*
X272311984Y-174459720I252258J431701D01*
G01*
X272311984Y-172620280D02*
G75*
G03*
X271609211Y-171971703I-450515J216877D01*
G01*
X287912501Y-174242842D02*
X287912501Y-172837158D01*
X291312499Y-172837158D02*
X291312499Y-174242842D01*
X290406952Y-175039999D02*
X288818047Y-175039999D01*
X288818048Y-172040000D02*
X290406952Y-172040000D01*
X290659211Y-175108299D02*
G75*
G03*
X291361984Y-174459720I252258J431701D01*
G01*
X290406952Y-172040000D02*
G75*
G03*
X290659210Y-171971701I-3J500009D01*
G01*
X291312499Y-174242842D02*
G75*
G03*
X291361984Y-174459720I499990J-2D01*
G01*
X291361984Y-172620280D02*
G75*
G03*
X290659211Y-171971703I-450515J216877D01*
G01*
X291361984Y-172620280D02*
G75*
G03*
X291312499Y-172837157I450505J-216876D01*
G01*
X287912501Y-172837158D02*
G75*
G03*
X287863016Y-172620280I-499990J2D01*
G01*
X287863015Y-174459720D02*
G75*
G03*
X288565789Y-175108298I450516J-216877D01*
G01*
X288565789Y-171971701D02*
G75*
G03*
X287863016Y-172620281I-252259J-431700D01*
G01*
X288818047Y-175039999D02*
G75*
G03*
X288565789Y-175108298I3J-500009D01*
G01*
X288565789Y-171971701D02*
G75*
G03*
X288818048Y-172040000I252261J431710D01*
G01*
X287863016Y-174459720D02*
G75*
G03*
X287912501Y-174242843I-450505J216876D01*
G01*
X290659211Y-175108299D02*
G75*
G03*
X290406953Y-175040000I-252261J-431710D01*
G01*
X48311798Y-191090000D02*
X49900702Y-191090000D01*
X49900702Y-194089999D02*
X48311797Y-194089999D01*
X50806249Y-191887158D02*
X50806249Y-193292842D01*
X47406251Y-193292842D02*
X47406251Y-191887158D01*
X49900702Y-191090000D02*
G75*
G03*
X50152960Y-191021701I-3J500009D01*
G01*
X50806249Y-193292842D02*
G75*
G03*
X50855734Y-193509720I499990J-2D01*
G01*
X47356765Y-193509720D02*
G75*
G03*
X48059539Y-194158298I450516J-216877D01*
G01*
X48059539Y-191021701D02*
G75*
G03*
X48311798Y-191090000I252261J431710D01*
G01*
X50855734Y-191670280D02*
G75*
G03*
X50152961Y-191021703I-450515J216877D01*
G01*
X50152961Y-194158299D02*
G75*
G03*
X50855734Y-193509720I252258J431701D01*
G01*
X47356766Y-193509720D02*
G75*
G03*
X47406251Y-193292843I-450505J216876D01*
G01*
X48311797Y-194089999D02*
G75*
G03*
X48059539Y-194158298I3J-500009D01*
G01*
X50152961Y-194158299D02*
G75*
G03*
X49900703Y-194090000I-252261J-431710D01*
G01*
X50855734Y-191670280D02*
G75*
G03*
X50806249Y-191887157I450505J-216876D01*
G01*
X47406251Y-191887158D02*
G75*
G03*
X47356766Y-191670280I-499990J2D01*
G01*
X48059539Y-191021701D02*
G75*
G03*
X47356766Y-191670281I-252259J-431700D01*
G01*
X72237499Y-191887158D02*
X72237499Y-193292842D01*
X68837501Y-193292842D02*
X68837501Y-191887158D01*
X69743048Y-191090000D02*
X71331952Y-191090000D01*
X71331952Y-194089999D02*
X69743047Y-194089999D01*
X72286984Y-191670280D02*
G75*
G03*
X72237499Y-191887157I450505J-216876D01*
G01*
X71331952Y-191090000D02*
G75*
G03*
X71584210Y-191021701I-3J500009D01*
G01*
X68788016Y-193509720D02*
G75*
G03*
X68837501Y-193292843I-450505J216876D01*
G01*
X69490789Y-191021701D02*
G75*
G03*
X69743048Y-191090000I252261J431710D01*
G01*
X68788015Y-193509720D02*
G75*
G03*
X69490789Y-194158298I450516J-216877D01*
G01*
X68837501Y-191887158D02*
G75*
G03*
X68788016Y-191670280I-499990J2D01*
G01*
X69490789Y-191021701D02*
G75*
G03*
X68788016Y-191670281I-252259J-431700D01*
G01*
X72286984Y-191670280D02*
G75*
G03*
X71584211Y-191021703I-450515J216877D01*
G01*
X72237499Y-193292842D02*
G75*
G03*
X72286984Y-193509720I499990J-2D01*
G01*
X69743047Y-194089999D02*
G75*
G03*
X69490789Y-194158298I3J-500009D01*
G01*
X71584211Y-194158299D02*
G75*
G03*
X71331953Y-194090000I-252261J-431710D01*
G01*
X71584211Y-194158299D02*
G75*
G03*
X72286984Y-193509720I252258J431701D01*
G01*
X87887501Y-193292842D02*
X87887501Y-191887158D01*
X91287499Y-191887158D02*
X91287499Y-193292842D01*
X88793048Y-191090000D02*
X90381952Y-191090000D01*
X90381952Y-194089999D02*
X88793047Y-194089999D01*
X88793047Y-194089999D02*
G75*
G03*
X88540789Y-194158298I3J-500009D01*
G01*
X91336984Y-191670280D02*
G75*
G03*
X91287499Y-191887157I450505J-216876D01*
G01*
X90634211Y-194158299D02*
G75*
G03*
X90381953Y-194090000I-252261J-431710D01*
G01*
X88540789Y-191021701D02*
G75*
G03*
X88793048Y-191090000I252261J431710D01*
G01*
X90634211Y-194158299D02*
G75*
G03*
X91336984Y-193509720I252258J431701D01*
G01*
X88540789Y-191021701D02*
G75*
G03*
X87838016Y-191670281I-252259J-431700D01*
G01*
X90381952Y-191090000D02*
G75*
G03*
X90634210Y-191021701I-3J500009D01*
G01*
X87838015Y-193509720D02*
G75*
G03*
X88540789Y-194158298I450516J-216877D01*
G01*
X87838016Y-193509720D02*
G75*
G03*
X87887501Y-193292843I-450505J216876D01*
G01*
X87887501Y-191887158D02*
G75*
G03*
X87838016Y-191670280I-499990J2D01*
G01*
X91287499Y-193292842D02*
G75*
G03*
X91336984Y-193509720I499990J-2D01*
G01*
X91336984Y-191670280D02*
G75*
G03*
X90634211Y-191021703I-450515J216877D01*
G01*
X109431952Y-194089999D02*
X107843047Y-194089999D01*
X107843048Y-191090000D02*
X109431952Y-191090000D01*
X106937501Y-193292842D02*
X106937501Y-191887158D01*
X110337499Y-191887158D02*
X110337499Y-193292842D01*
X106888016Y-193509720D02*
G75*
G03*
X106937501Y-193292843I-450505J216876D01*
G01*
X107590789Y-191021701D02*
G75*
G03*
X107843048Y-191090000I252261J431710D01*
G01*
X106937501Y-191887158D02*
G75*
G03*
X106888016Y-191670280I-499990J2D01*
G01*
X106888015Y-193509720D02*
G75*
G03*
X107590789Y-194158298I450516J-216877D01*
G01*
X109684211Y-194158299D02*
G75*
G03*
X109431953Y-194090000I-252261J-431710D01*
G01*
X110386984Y-191670280D02*
G75*
G03*
X110337499Y-191887157I450505J-216876D01*
G01*
X107843047Y-194089999D02*
G75*
G03*
X107590789Y-194158298I3J-500009D01*
G01*
X109431952Y-191090000D02*
G75*
G03*
X109684210Y-191021701I-3J500009D01*
G01*
X109684211Y-194158299D02*
G75*
G03*
X110386984Y-193509720I252258J431701D01*
G01*
X110386984Y-191670280D02*
G75*
G03*
X109684211Y-191021703I-450515J216877D01*
G01*
X107590789Y-191021701D02*
G75*
G03*
X106888016Y-191670281I-252259J-431700D01*
G01*
X110337499Y-193292842D02*
G75*
G03*
X110386984Y-193509720I499990J-2D01*
G01*
X125987501Y-193292842D02*
X125987501Y-191887158D01*
X126893048Y-191090000D02*
X128481952Y-191090000D01*
X129387499Y-191887158D02*
X129387499Y-193292842D01*
X128481952Y-194089999D02*
X126893047Y-194089999D01*
X128734211Y-194158299D02*
G75*
G03*
X129436984Y-193509720I252258J431701D01*
G01*
X125938015Y-193509720D02*
G75*
G03*
X126640789Y-194158298I450516J-216877D01*
G01*
X126893047Y-194089999D02*
G75*
G03*
X126640789Y-194158298I3J-500009D01*
G01*
X129436984Y-191670280D02*
G75*
G03*
X128734211Y-191021703I-450515J216877D01*
G01*
X128481952Y-191090000D02*
G75*
G03*
X128734210Y-191021701I-3J500009D01*
G01*
X128734211Y-194158299D02*
G75*
G03*
X128481953Y-194090000I-252261J-431710D01*
G01*
X126640789Y-191021701D02*
G75*
G03*
X126893048Y-191090000I252261J431710D01*
G01*
X129387499Y-193292842D02*
G75*
G03*
X129436984Y-193509720I499990J-2D01*
G01*
X125987501Y-191887158D02*
G75*
G03*
X125938016Y-191670280I-499990J2D01*
G01*
X125938016Y-193509720D02*
G75*
G03*
X125987501Y-193292843I-450505J216876D01*
G01*
X126640789Y-191021701D02*
G75*
G03*
X125938016Y-191670281I-252259J-431700D01*
G01*
X129436984Y-191670280D02*
G75*
G03*
X129387499Y-191887157I450505J-216876D01*
G01*
X145943048Y-191090000D02*
X147531952Y-191090000D01*
X147531952Y-194089999D02*
X145943047Y-194089999D01*
X145037501Y-193292842D02*
X145037501Y-191887158D01*
X148437499Y-191887158D02*
X148437499Y-193292842D01*
X144988016Y-193509720D02*
G75*
G03*
X145037501Y-193292843I-450505J216876D01*
G01*
X147531952Y-191090000D02*
G75*
G03*
X147784210Y-191021701I-3J500009D01*
G01*
X145690789Y-191021701D02*
G75*
G03*
X144988016Y-191670281I-252259J-431700D01*
G01*
X145690789Y-191021701D02*
G75*
G03*
X145943048Y-191090000I252261J431710D01*
G01*
X147784211Y-194158299D02*
G75*
G03*
X148486984Y-193509720I252258J431701D01*
G01*
X148486984Y-191670280D02*
G75*
G03*
X147784211Y-191021703I-450515J216877D01*
G01*
X145037501Y-191887158D02*
G75*
G03*
X144988016Y-191670280I-499990J2D01*
G01*
X148486984Y-191670280D02*
G75*
G03*
X148437499Y-191887157I450505J-216876D01*
G01*
X148437499Y-193292842D02*
G75*
G03*
X148486984Y-193509720I499990J-2D01*
G01*
X144988015Y-193509720D02*
G75*
G03*
X145690789Y-194158298I450516J-216877D01*
G01*
X147784211Y-194158299D02*
G75*
G03*
X147531953Y-194090000I-252261J-431710D01*
G01*
X145943047Y-194089999D02*
G75*
G03*
X145690789Y-194158298I3J-500009D01*
G01*
X164993048Y-191090000D02*
X166581952Y-191090000D01*
X167487499Y-191887158D02*
X167487499Y-193292842D01*
X164087501Y-193292842D02*
X164087501Y-191887158D01*
X166581952Y-194089999D02*
X164993047Y-194089999D01*
X164740789Y-191021701D02*
G75*
G03*
X164993048Y-191090000I252261J431710D01*
G01*
X167536984Y-191670280D02*
G75*
G03*
X166834211Y-191021703I-450515J216877D01*
G01*
X166834211Y-194158299D02*
G75*
G03*
X166581953Y-194090000I-252261J-431710D01*
G01*
X164993047Y-194089999D02*
G75*
G03*
X164740789Y-194158298I3J-500009D01*
G01*
X167487499Y-193292842D02*
G75*
G03*
X167536984Y-193509720I499990J-2D01*
G01*
X166581952Y-191090000D02*
G75*
G03*
X166834210Y-191021701I-3J500009D01*
G01*
X164038016Y-193509720D02*
G75*
G03*
X164087501Y-193292843I-450505J216876D01*
G01*
X167536984Y-191670280D02*
G75*
G03*
X167487499Y-191887157I450505J-216876D01*
G01*
X164087501Y-191887158D02*
G75*
G03*
X164038016Y-191670280I-499990J2D01*
G01*
X166834211Y-194158299D02*
G75*
G03*
X167536984Y-193509720I252258J431701D01*
G01*
X164740789Y-191021701D02*
G75*
G03*
X164038016Y-191670281I-252259J-431700D01*
G01*
X164038015Y-193509720D02*
G75*
G03*
X164740789Y-194158298I450516J-216877D01*
G01*
X186537499Y-191887158D02*
X186537499Y-193292842D01*
X185631952Y-194089999D02*
X184043047Y-194089999D01*
X184043048Y-191090000D02*
X185631952Y-191090000D01*
X183137501Y-193292842D02*
X183137501Y-191887158D01*
X186586984Y-191670280D02*
G75*
G03*
X186537499Y-191887157I450505J-216876D01*
G01*
X185884211Y-194158299D02*
G75*
G03*
X185631953Y-194090000I-252261J-431710D01*
G01*
X183137501Y-191887158D02*
G75*
G03*
X183088016Y-191670280I-499990J2D01*
G01*
X183088016Y-193509720D02*
G75*
G03*
X183137501Y-193292843I-450505J216876D01*
G01*
X184043047Y-194089999D02*
G75*
G03*
X183790789Y-194158298I3J-500009D01*
G01*
X183790789Y-191021701D02*
G75*
G03*
X184043048Y-191090000I252261J431710D01*
G01*
X183088015Y-193509720D02*
G75*
G03*
X183790789Y-194158298I450516J-216877D01*
G01*
X183790789Y-191021701D02*
G75*
G03*
X183088016Y-191670281I-252259J-431700D01*
G01*
X185631952Y-191090000D02*
G75*
G03*
X185884210Y-191021701I-3J500009D01*
G01*
X185884211Y-194158299D02*
G75*
G03*
X186586984Y-193509720I252258J431701D01*
G01*
X186586984Y-191670280D02*
G75*
G03*
X185884211Y-191021703I-450515J216877D01*
G01*
X186537499Y-193292842D02*
G75*
G03*
X186586984Y-193509720I499990J-2D01*
G01*
X205587499Y-191887158D02*
X205587499Y-193292842D01*
X203093048Y-191090000D02*
X204681952Y-191090000D01*
X202187501Y-193292842D02*
X202187501Y-191887158D01*
X204681952Y-194089999D02*
X203093047Y-194089999D01*
X205636984Y-191670280D02*
G75*
G03*
X205587499Y-191887157I450505J-216876D01*
G01*
X202138016Y-193509720D02*
G75*
G03*
X202187501Y-193292843I-450505J216876D01*
G01*
X204681952Y-191090000D02*
G75*
G03*
X204934210Y-191021701I-3J500009D01*
G01*
X205587499Y-193292842D02*
G75*
G03*
X205636984Y-193509720I499990J-2D01*
G01*
X202187501Y-191887158D02*
G75*
G03*
X202138016Y-191670280I-499990J2D01*
G01*
X202840789Y-191021701D02*
G75*
G03*
X203093048Y-191090000I252261J431710D01*
G01*
X205636984Y-191670280D02*
G75*
G03*
X204934211Y-191021703I-450515J216877D01*
G01*
X202138015Y-193509720D02*
G75*
G03*
X202840789Y-194158298I450516J-216877D01*
G01*
X204934211Y-194158299D02*
G75*
G03*
X205636984Y-193509720I252258J431701D01*
G01*
X202840789Y-191021701D02*
G75*
G03*
X202138016Y-191670281I-252259J-431700D01*
G01*
X204934211Y-194158299D02*
G75*
G03*
X204681953Y-194090000I-252261J-431710D01*
G01*
X203093047Y-194089999D02*
G75*
G03*
X202840789Y-194158298I3J-500009D01*
G01*
X224637499Y-191887158D02*
X224637499Y-193292842D01*
X222143048Y-191090000D02*
X223731952Y-191090000D01*
X221237501Y-193292842D02*
X221237501Y-191887158D01*
X223731952Y-194089999D02*
X222143047Y-194089999D01*
X223984211Y-194158299D02*
G75*
G03*
X223731953Y-194090000I-252261J-431710D01*
G01*
X223731952Y-191090000D02*
G75*
G03*
X223984210Y-191021701I-3J500009D01*
G01*
X224686984Y-191670280D02*
G75*
G03*
X223984211Y-191021703I-450515J216877D01*
G01*
X221890789Y-191021701D02*
G75*
G03*
X222143048Y-191090000I252261J431710D01*
G01*
X221237501Y-191887158D02*
G75*
G03*
X221188016Y-191670280I-499990J2D01*
G01*
X221188016Y-193509720D02*
G75*
G03*
X221237501Y-193292843I-450505J216876D01*
G01*
X224637499Y-193292842D02*
G75*
G03*
X224686984Y-193509720I499990J-2D01*
G01*
X221188015Y-193509720D02*
G75*
G03*
X221890789Y-194158298I450516J-216877D01*
G01*
X221890789Y-191021701D02*
G75*
G03*
X221188016Y-191670281I-252259J-431700D01*
G01*
X222143047Y-194089999D02*
G75*
G03*
X221890789Y-194158298I3J-500009D01*
G01*
X223984211Y-194158299D02*
G75*
G03*
X224686984Y-193509720I252258J431701D01*
G01*
X224686984Y-191670280D02*
G75*
G03*
X224637499Y-191887157I450505J-216876D01*
G01*
X240287501Y-193292842D02*
X240287501Y-191887158D01*
X243687499Y-191887158D02*
X243687499Y-193292842D01*
X242781952Y-194089999D02*
X241193047Y-194089999D01*
X241193048Y-191090000D02*
X242781952Y-191090000D01*
X243736984Y-191670280D02*
G75*
G03*
X243687499Y-191887157I450505J-216876D01*
G01*
X240238016Y-193509720D02*
G75*
G03*
X240287501Y-193292843I-450505J216876D01*
G01*
X240238015Y-193509720D02*
G75*
G03*
X240940789Y-194158298I450516J-216877D01*
G01*
X242781952Y-191090000D02*
G75*
G03*
X243034210Y-191021701I-3J500009D01*
G01*
X240940789Y-191021701D02*
G75*
G03*
X241193048Y-191090000I252261J431710D01*
G01*
X243687499Y-193292842D02*
G75*
G03*
X243736984Y-193509720I499990J-2D01*
G01*
X241193047Y-194089999D02*
G75*
G03*
X240940789Y-194158298I3J-500009D01*
G01*
X240287501Y-191887158D02*
G75*
G03*
X240238016Y-191670280I-499990J2D01*
G01*
X240940789Y-191021701D02*
G75*
G03*
X240238016Y-191670281I-252259J-431700D01*
G01*
X243736984Y-191670280D02*
G75*
G03*
X243034211Y-191021703I-450515J216877D01*
G01*
X243034211Y-194158299D02*
G75*
G03*
X242781953Y-194090000I-252261J-431710D01*
G01*
X243034211Y-194158299D02*
G75*
G03*
X243736984Y-193509720I252258J431701D01*
G01*
X259337501Y-193292842D02*
X259337501Y-191887158D01*
X262737499Y-191887158D02*
X262737499Y-193292842D01*
X261831952Y-194089999D02*
X260243047Y-194089999D01*
X260243048Y-191090000D02*
X261831952Y-191090000D01*
X261831952Y-191090000D02*
G75*
G03*
X262084210Y-191021701I-3J500009D01*
G01*
X259990789Y-191021701D02*
G75*
G03*
X260243048Y-191090000I252261J431710D01*
G01*
X262786984Y-191670280D02*
G75*
G03*
X262737499Y-191887157I450505J-216876D01*
G01*
X262786984Y-191670280D02*
G75*
G03*
X262084211Y-191021703I-450515J216877D01*
G01*
X259990789Y-191021701D02*
G75*
G03*
X259288016Y-191670281I-252259J-431700D01*
G01*
X260243047Y-194089999D02*
G75*
G03*
X259990789Y-194158298I3J-500009D01*
G01*
X262737499Y-193292842D02*
G75*
G03*
X262786984Y-193509720I499990J-2D01*
G01*
X262084211Y-194158299D02*
G75*
G03*
X262786984Y-193509720I252258J431701D01*
G01*
X259337501Y-191887158D02*
G75*
G03*
X259288016Y-191670280I-499990J2D01*
G01*
X259288015Y-193509720D02*
G75*
G03*
X259990789Y-194158298I450516J-216877D01*
G01*
X262084211Y-194158299D02*
G75*
G03*
X261831953Y-194090000I-252261J-431710D01*
G01*
X259288016Y-193509720D02*
G75*
G03*
X259337501Y-193292843I-450505J216876D01*
G01*
X295961798Y-191090000D02*
X297550702Y-191090000D01*
X298456249Y-191887158D02*
X298456249Y-193292842D01*
X297550702Y-194089999D02*
X295961797Y-194089999D01*
X295056251Y-193292842D02*
X295056251Y-191887158D01*
X297802961Y-194158299D02*
G75*
G03*
X298505734Y-193509720I252258J431701D01*
G01*
X298456249Y-193292842D02*
G75*
G03*
X298505734Y-193509720I499990J-2D01*
G01*
X295006766Y-193509720D02*
G75*
G03*
X295056251Y-193292843I-450505J216876D01*
G01*
X298505734Y-191670280D02*
G75*
G03*
X297802961Y-191021703I-450515J216877D01*
G01*
X295961797Y-194089999D02*
G75*
G03*
X295709539Y-194158298I3J-500009D01*
G01*
X297550702Y-191090000D02*
G75*
G03*
X297802960Y-191021701I-3J500009D01*
G01*
X295709539Y-191021701D02*
G75*
G03*
X295961798Y-191090000I252261J431710D01*
G01*
X295056251Y-191887158D02*
G75*
G03*
X295006766Y-191670280I-499990J2D01*
G01*
X298505734Y-191670280D02*
G75*
G03*
X298456249Y-191887157I450505J-216876D01*
G01*
X295006765Y-193509720D02*
G75*
G03*
X295709539Y-194158298I450516J-216877D01*
G01*
X295709539Y-191021701D02*
G75*
G03*
X295006766Y-191670281I-252259J-431700D01*
G01*
X297802961Y-194158299D02*
G75*
G03*
X297550703Y-194090000I-252261J-431710D01*
G01*
X357081952Y-194089999D02*
X355493047Y-194089999D01*
X355493048Y-191090000D02*
X357081952Y-191090000D01*
X357987499Y-191887158D02*
X357987499Y-193292842D01*
X354587501Y-193292842D02*
X354587501Y-191887158D01*
X358036984Y-191670280D02*
G75*
G03*
X357334211Y-191021703I-450515J216877D01*
G01*
X357334211Y-194158299D02*
G75*
G03*
X357081953Y-194090000I-252261J-431710D01*
G01*
X355493047Y-194089999D02*
G75*
G03*
X355240789Y-194158298I3J-500009D01*
G01*
X357081952Y-191090000D02*
G75*
G03*
X357334210Y-191021701I-3J500009D01*
G01*
X354587501Y-191887158D02*
G75*
G03*
X354538016Y-191670280I-499990J2D01*
G01*
X355240789Y-191021701D02*
G75*
G03*
X354538016Y-191670281I-252259J-431700D01*
G01*
X357334211Y-194158299D02*
G75*
G03*
X358036984Y-193509720I252258J431701D01*
G01*
X355240789Y-191021701D02*
G75*
G03*
X355493048Y-191090000I252261J431710D01*
G01*
X354538015Y-193509720D02*
G75*
G03*
X355240789Y-194158298I450516J-216877D01*
G01*
X354538016Y-193509720D02*
G75*
G03*
X354587501Y-193292843I-450505J216876D01*
G01*
X358036984Y-191670280D02*
G75*
G03*
X357987499Y-191887157I450505J-216876D01*
G01*
X357987499Y-193292842D02*
G75*
G03*
X358036984Y-193509720I499990J-2D01*
G01*
X47406251Y-212342842D02*
X47406251Y-210937158D01*
X50806249Y-210937158D02*
X50806249Y-212342842D01*
X49900702Y-213139999D02*
X48311797Y-213139999D01*
X48311798Y-210140000D02*
X49900702Y-210140000D01*
X47356766Y-212559720D02*
G75*
G03*
X47406251Y-212342843I-450505J216876D01*
G01*
X50152961Y-213208299D02*
G75*
G03*
X49900703Y-213140000I-252261J-431710D01*
G01*
X49900702Y-210140000D02*
G75*
G03*
X50152960Y-210071701I-3J500009D01*
G01*
X48059539Y-210071701D02*
G75*
G03*
X48311798Y-210140000I252261J431710D01*
G01*
X48311797Y-213139999D02*
G75*
G03*
X48059539Y-213208298I3J-500009D01*
G01*
X47406251Y-210937158D02*
G75*
G03*
X47356766Y-210720280I-499990J2D01*
G01*
X47356765Y-212559720D02*
G75*
G03*
X48059539Y-213208298I450516J-216877D01*
G01*
X48059539Y-210071701D02*
G75*
G03*
X47356766Y-210720281I-252259J-431700D01*
G01*
X50855734Y-210720280D02*
G75*
G03*
X50152961Y-210071703I-450515J216877D01*
G01*
X50855734Y-210720280D02*
G75*
G03*
X50806249Y-210937157I450505J-216876D01*
G01*
X50806249Y-212342842D02*
G75*
G03*
X50855734Y-212559720I499990J-2D01*
G01*
X50152961Y-213208299D02*
G75*
G03*
X50855734Y-212559720I252258J431701D01*
G01*
X72124298Y-210140000D02*
X73713202Y-210140000D01*
X71218751Y-212342842D02*
X71218751Y-210937158D01*
X74618749Y-210937158D02*
X74618749Y-212342842D01*
X73713202Y-213139999D02*
X72124297Y-213139999D01*
X71169266Y-212559720D02*
G75*
G03*
X71218751Y-212342843I-450505J216876D01*
G01*
X72124297Y-213139999D02*
G75*
G03*
X71872039Y-213208298I3J-500009D01*
G01*
X71169265Y-212559720D02*
G75*
G03*
X71872039Y-213208298I450516J-216877D01*
G01*
X71218751Y-210937158D02*
G75*
G03*
X71169266Y-210720280I-499990J2D01*
G01*
X74668234Y-210720280D02*
G75*
G03*
X73965461Y-210071703I-450515J216877D01*
G01*
X71872039Y-210071701D02*
G75*
G03*
X71169266Y-210720281I-252259J-431700D01*
G01*
X73713202Y-210140000D02*
G75*
G03*
X73965460Y-210071701I-3J500009D01*
G01*
X73965461Y-213208299D02*
G75*
G03*
X74668234Y-212559720I252258J431701D01*
G01*
X73965461Y-213208299D02*
G75*
G03*
X73713203Y-213140000I-252261J-431710D01*
G01*
X71872039Y-210071701D02*
G75*
G03*
X72124298Y-210140000I252261J431710D01*
G01*
X74668234Y-210720280D02*
G75*
G03*
X74618749Y-210937157I450505J-216876D01*
G01*
X74618749Y-212342842D02*
G75*
G03*
X74668234Y-212559720I499990J-2D01*
G01*
X97525702Y-213139999D02*
X95936797Y-213139999D01*
X95031251Y-212342842D02*
X95031251Y-210937158D01*
X95936798Y-210140000D02*
X97525702Y-210140000D01*
X98431249Y-210937158D02*
X98431249Y-212342842D01*
X98480734Y-210720280D02*
G75*
G03*
X97777961Y-210071703I-450515J216877D01*
G01*
X95031251Y-210937158D02*
G75*
G03*
X94981766Y-210720280I-499990J2D01*
G01*
X97525702Y-210140000D02*
G75*
G03*
X97777960Y-210071701I-3J500009D01*
G01*
X97777961Y-213208299D02*
G75*
G03*
X97525703Y-213140000I-252261J-431710D01*
G01*
X95936797Y-213139999D02*
G75*
G03*
X95684539Y-213208298I3J-500009D01*
G01*
X97777961Y-213208299D02*
G75*
G03*
X98480734Y-212559720I252258J431701D01*
G01*
X98431249Y-212342842D02*
G75*
G03*
X98480734Y-212559720I499990J-2D01*
G01*
X94981766Y-212559720D02*
G75*
G03*
X95031251Y-212342843I-450505J216876D01*
G01*
X98480734Y-210720280D02*
G75*
G03*
X98431249Y-210937157I450505J-216876D01*
G01*
X95684539Y-210071701D02*
G75*
G03*
X95936798Y-210140000I252261J431710D01*
G01*
X94981765Y-212559720D02*
G75*
G03*
X95684539Y-213208298I450516J-216877D01*
G01*
X95684539Y-210071701D02*
G75*
G03*
X94981766Y-210720281I-252259J-431700D01*
G01*
X169868749Y-210937158D02*
X169868749Y-212342842D01*
X166468751Y-212342842D02*
X166468751Y-210937158D01*
X167374298Y-210140000D02*
X168963202Y-210140000D01*
X168963202Y-213139999D02*
X167374297Y-213139999D01*
X166468751Y-210937158D02*
G75*
G03*
X166419266Y-210720280I-499990J2D01*
G01*
X169918234Y-210720280D02*
G75*
G03*
X169868749Y-210937157I450505J-216876D01*
G01*
X169868749Y-212342842D02*
G75*
G03*
X169918234Y-212559720I499990J-2D01*
G01*
X168963202Y-210140000D02*
G75*
G03*
X169215460Y-210071701I-3J500009D01*
G01*
X167122039Y-210071701D02*
G75*
G03*
X167374298Y-210140000I252261J431710D01*
G01*
X167122039Y-210071701D02*
G75*
G03*
X166419266Y-210720281I-252259J-431700D01*
G01*
X167374297Y-213139999D02*
G75*
G03*
X167122039Y-213208298I3J-500009D01*
G01*
X169215461Y-213208299D02*
G75*
G03*
X168963203Y-213140000I-252261J-431710D01*
G01*
X169918234Y-210720280D02*
G75*
G03*
X169215461Y-210071703I-450515J216877D01*
G01*
X169215461Y-213208299D02*
G75*
G03*
X169918234Y-212559720I252258J431701D01*
G01*
X166419265Y-212559720D02*
G75*
G03*
X167122039Y-213208298I450516J-216877D01*
G01*
X166419266Y-212559720D02*
G75*
G03*
X166468751Y-212342843I-450505J216876D01*
G01*
X240400702Y-213139999D02*
X238811797Y-213139999D01*
X237906251Y-212342842D02*
X237906251Y-210937158D01*
X238811798Y-210140000D02*
X240400702Y-210140000D01*
X241306249Y-210937158D02*
X241306249Y-212342842D01*
X237856765Y-212559720D02*
G75*
G03*
X238559539Y-213208298I450516J-216877D01*
G01*
X240400702Y-210140000D02*
G75*
G03*
X240652960Y-210071701I-3J500009D01*
G01*
X238559539Y-210071701D02*
G75*
G03*
X237856766Y-210720281I-252259J-431700D01*
G01*
X238811797Y-213139999D02*
G75*
G03*
X238559539Y-213208298I3J-500009D01*
G01*
X240652961Y-213208299D02*
G75*
G03*
X240400703Y-213140000I-252261J-431710D01*
G01*
X237856766Y-212559720D02*
G75*
G03*
X237906251Y-212342843I-450505J216876D01*
G01*
X241355734Y-210720280D02*
G75*
G03*
X241306249Y-210937157I450505J-216876D01*
G01*
X237906251Y-210937158D02*
G75*
G03*
X237856766Y-210720280I-499990J2D01*
G01*
X241355734Y-210720280D02*
G75*
G03*
X240652961Y-210071703I-450515J216877D01*
G01*
X240652961Y-213208299D02*
G75*
G03*
X241355734Y-212559720I252258J431701D01*
G01*
X241306249Y-212342842D02*
G75*
G03*
X241355734Y-212559720I499990J-2D01*
G01*
X238559539Y-210071701D02*
G75*
G03*
X238811798Y-210140000I252261J431710D01*
G01*
X265118749Y-210937158D02*
X265118749Y-212342842D01*
X262624298Y-210140000D02*
X264213202Y-210140000D01*
X261718751Y-212342842D02*
X261718751Y-210937158D01*
X264213202Y-213139999D02*
X262624297Y-213139999D01*
X264213202Y-210140000D02*
G75*
G03*
X264465460Y-210071701I-3J500009D01*
G01*
X261669265Y-212559720D02*
G75*
G03*
X262372039Y-213208298I450516J-216877D01*
G01*
X262624297Y-213139999D02*
G75*
G03*
X262372039Y-213208298I3J-500009D01*
G01*
X261718751Y-210937158D02*
G75*
G03*
X261669266Y-210720280I-499990J2D01*
G01*
X265168234Y-210720280D02*
G75*
G03*
X264465461Y-210071703I-450515J216877D01*
G01*
X265168234Y-210720280D02*
G75*
G03*
X265118749Y-210937157I450505J-216876D01*
G01*
X264465461Y-213208299D02*
G75*
G03*
X265168234Y-212559720I252258J431701D01*
G01*
X262372039Y-210071701D02*
G75*
G03*
X261669266Y-210720281I-252259J-431700D01*
G01*
X261669266Y-212559720D02*
G75*
G03*
X261718751Y-212342843I-450505J216876D01*
G01*
X265118749Y-212342842D02*
G75*
G03*
X265168234Y-212559720I499990J-2D01*
G01*
X264465461Y-213208299D02*
G75*
G03*
X264213203Y-213140000I-252261J-431710D01*
G01*
X262372039Y-210071701D02*
G75*
G03*
X262624298Y-210140000I252261J431710D01*
G01*
X286436798Y-210140000D02*
X288025702Y-210140000D01*
X288931249Y-210937158D02*
X288931249Y-212342842D01*
X285531251Y-212342842D02*
X285531251Y-210937158D01*
X288025702Y-213139999D02*
X286436797Y-213139999D01*
X286184539Y-210071701D02*
G75*
G03*
X286436798Y-210140000I252261J431710D01*
G01*
X286436797Y-213139999D02*
G75*
G03*
X286184539Y-213208298I3J-500009D01*
G01*
X288980734Y-210720280D02*
G75*
G03*
X288277961Y-210071703I-450515J216877D01*
G01*
X288277961Y-213208299D02*
G75*
G03*
X288025703Y-213140000I-252261J-431710D01*
G01*
X286184539Y-210071701D02*
G75*
G03*
X285481766Y-210720281I-252259J-431700D01*
G01*
X288025702Y-210140000D02*
G75*
G03*
X288277960Y-210071701I-3J500009D01*
G01*
X288980734Y-210720280D02*
G75*
G03*
X288931249Y-210937157I450505J-216876D01*
G01*
X285531251Y-210937158D02*
G75*
G03*
X285481766Y-210720280I-499990J2D01*
G01*
X288277961Y-213208299D02*
G75*
G03*
X288980734Y-212559720I252258J431701D01*
G01*
X288931249Y-212342842D02*
G75*
G03*
X288980734Y-212559720I499990J-2D01*
G01*
X285481766Y-212559720D02*
G75*
G03*
X285531251Y-212342843I-450505J216876D01*
G01*
X285481765Y-212559720D02*
G75*
G03*
X286184539Y-213208298I450516J-216877D01*
G01*
X311838202Y-213139999D02*
X310249297Y-213139999D01*
X310249298Y-210140000D02*
X311838202Y-210140000D01*
X309343751Y-212342842D02*
X309343751Y-210937158D01*
X312743749Y-210937158D02*
X312743749Y-212342842D01*
X312793234Y-210720280D02*
G75*
G03*
X312090461Y-210071703I-450515J216877D01*
G01*
X310249297Y-213139999D02*
G75*
G03*
X309997039Y-213208298I3J-500009D01*
G01*
X309343751Y-210937158D02*
G75*
G03*
X309294266Y-210720280I-499990J2D01*
G01*
X312743749Y-212342842D02*
G75*
G03*
X312793234Y-212559720I499990J-2D01*
G01*
X312090461Y-213208299D02*
G75*
G03*
X311838203Y-213140000I-252261J-431710D01*
G01*
X311838202Y-210140000D02*
G75*
G03*
X312090460Y-210071701I-3J500009D01*
G01*
X309294265Y-212559720D02*
G75*
G03*
X309997039Y-213208298I450516J-216877D01*
G01*
X309997039Y-210071701D02*
G75*
G03*
X309294266Y-210720281I-252259J-431700D01*
G01*
X312090461Y-213208299D02*
G75*
G03*
X312793234Y-212559720I252258J431701D01*
G01*
X309294266Y-212559720D02*
G75*
G03*
X309343751Y-212342843I-450505J216876D01*
G01*
X309997039Y-210071701D02*
G75*
G03*
X310249298Y-210140000I252261J431710D01*
G01*
X312793234Y-210720280D02*
G75*
G03*
X312743749Y-210937157I450505J-216876D01*
G01*
X335537501Y-212342842D02*
X335537501Y-210937158D01*
X336443048Y-210140000D02*
X338031952Y-210140000D01*
X338937499Y-210937158D02*
X338937499Y-212342842D01*
X338031952Y-213139999D02*
X336443047Y-213139999D01*
X336443047Y-213139999D02*
G75*
G03*
X336190789Y-213208298I3J-500009D01*
G01*
X335537501Y-210937158D02*
G75*
G03*
X335488016Y-210720280I-499990J2D01*
G01*
X336190789Y-210071701D02*
G75*
G03*
X335488016Y-210720281I-252259J-431700D01*
G01*
X338284211Y-213208299D02*
G75*
G03*
X338031953Y-213140000I-252261J-431710D01*
G01*
X338986984Y-210720280D02*
G75*
G03*
X338937499Y-210937157I450505J-216876D01*
G01*
X338284211Y-213208299D02*
G75*
G03*
X338986984Y-212559720I252258J431701D01*
G01*
X335488016Y-212559720D02*
G75*
G03*
X335537501Y-212342843I-450505J216876D01*
G01*
X338031952Y-210140000D02*
G75*
G03*
X338284210Y-210071701I-3J500009D01*
G01*
X336190789Y-210071701D02*
G75*
G03*
X336443048Y-210140000I252261J431710D01*
G01*
X338986984Y-210720280D02*
G75*
G03*
X338284211Y-210071703I-450515J216877D01*
G01*
X338937499Y-212342842D02*
G75*
G03*
X338986984Y-212559720I499990J-2D01*
G01*
X335488015Y-212559720D02*
G75*
G03*
X336190789Y-213208298I450516J-216877D01*
G01*
X355493048Y-210140000D02*
X357081952Y-210140000D01*
X357081952Y-213139999D02*
X355493047Y-213139999D01*
X357987499Y-210937158D02*
X357987499Y-212342842D01*
X354587501Y-212342842D02*
X354587501Y-210937158D01*
X357987499Y-212342842D02*
G75*
G03*
X358036984Y-212559720I499990J-2D01*
G01*
X355240789Y-210071701D02*
G75*
G03*
X354538016Y-210720281I-252259J-431700D01*
G01*
X355493047Y-213139999D02*
G75*
G03*
X355240789Y-213208298I3J-500009D01*
G01*
X358036984Y-210720280D02*
G75*
G03*
X357334211Y-210071703I-450515J216877D01*
G01*
X354587501Y-210937158D02*
G75*
G03*
X354538016Y-210720280I-499990J2D01*
G01*
X357334211Y-213208299D02*
G75*
G03*
X358036984Y-212559720I252258J431701D01*
G01*
X354538015Y-212559720D02*
G75*
G03*
X355240789Y-213208298I450516J-216877D01*
G01*
X358036984Y-210720280D02*
G75*
G03*
X357987499Y-210937157I450505J-216876D01*
G01*
X354538016Y-212559720D02*
G75*
G03*
X354587501Y-212342843I-450505J216876D01*
G01*
X357081952Y-210140000D02*
G75*
G03*
X357334210Y-210071701I-3J500009D01*
G01*
X355240789Y-210071701D02*
G75*
G03*
X355493048Y-210140000I252261J431710D01*
G01*
X357334211Y-213208299D02*
G75*
G03*
X357081953Y-213140000I-252261J-431710D01*
G01*
X377037499Y-210937158D02*
X377037499Y-212342842D01*
X373637501Y-212342842D02*
X373637501Y-210937158D01*
X374543048Y-210140000D02*
X376131952Y-210140000D01*
X376131952Y-213139999D02*
X374543047Y-213139999D01*
X374290789Y-210071701D02*
G75*
G03*
X374543048Y-210140000I252261J431710D01*
G01*
X374543047Y-213139999D02*
G75*
G03*
X374290789Y-213208298I3J-500009D01*
G01*
X376384211Y-213208299D02*
G75*
G03*
X376131953Y-213140000I-252261J-431710D01*
G01*
X377086984Y-210720280D02*
G75*
G03*
X376384211Y-210071703I-450515J216877D01*
G01*
X374290789Y-210071701D02*
G75*
G03*
X373588016Y-210720281I-252259J-431700D01*
G01*
X376131952Y-210140000D02*
G75*
G03*
X376384210Y-210071701I-3J500009D01*
G01*
X377037499Y-212342842D02*
G75*
G03*
X377086984Y-212559720I499990J-2D01*
G01*
X373588015Y-212559720D02*
G75*
G03*
X374290789Y-213208298I450516J-216877D01*
G01*
X373637501Y-210937158D02*
G75*
G03*
X373588016Y-210720280I-499990J2D01*
G01*
X376384211Y-213208299D02*
G75*
G03*
X377086984Y-212559720I252258J431701D01*
G01*
X373588016Y-212559720D02*
G75*
G03*
X373637501Y-212342843I-450505J216876D01*
G01*
X377086984Y-210720280D02*
G75*
G03*
X377037499Y-210937157I450505J-216876D01*
G01*
X215450000Y-66150000D02*
X209050000Y-66150000D01*
X207546960Y-60553128D02*
X207546960Y-64953128D01*
X216953040Y-60553128D02*
X216953040Y-64953128D01*
X207546960Y-64953128D02*
G75*
G03*
X208446960Y-65853128I900000J0D01*
G01*
X215450000Y-66150000D02*
G75*
G03*
X215782782Y-65971938I3J399995D01*
G01*
X216053040Y-65853128D02*
G75*
G03*
X216953040Y-64953128I0J900000D01*
G01*
X208717218Y-65971938D02*
G75*
G03*
X209050000Y-66150000I332782J221940D01*
G01*
X216053040Y-65853127D02*
G75*
G03*
X215782782Y-65971938I24176J-421777D01*
G01*
X208717218Y-65971938D02*
G75*
G03*
X208446960Y-65853128I-294434J-302966D01*
G01*
M02*
